<?xml version="1.0" encoding="iso-8859-1"?>
<!-- Generator: Adobe Illustrator 19.0.0, SVG Export Plug-In . SVG Version: 6.00 Build 0)  -->
<svg version="1.1" id="Layer_1" xmlns="http://www.w3.org/2000/svg" xmlns:xlink="http://www.w3.org/1999/xlink" x="0px" y="0px"
	 viewBox="0 0 360.209 360.209" style="enable-background:new 0 0 360.209 360.209;" xml:space="preserve">
<g>
	<g>
		<path d="M344.609,47.505l-31.6-31.6c-10-10-23.2-15.6-37.6-15.6c-14,0-27.6,5.6-37.6,15.6l-217.6,216.8c-7.6,7.2-12,17.6-12,28.8
			v80c0,0,0,0-0.4,0l-5.2,4.8c-3.2,3.2-3.6,8-0.4,11.2c1.6,1.6,3.6,2.4,6,2.4c2,0,4-0.8,5.6-2l5.2-4.8c0.4-0.4,0.8-0.8,0.8-1.2h79.2
			c10.8,0,20.8-4.4,28.4-12l217.2-218C365.409,101.905,365.409,67.905,344.609,47.505z M104.209,335.505c-1.6,0.4-3.6,0.8-5.2,0.8
			h-74.8v-74.8c0-2,0.4-3.6,0.8-5.2c0.4,0,0.8,0,1.2,0h38v28c0,6.8,5.2,12,12,12h28V335.505z M120.209,325.105v-32.8
			c0-6.8-5.2-12-12-12h-28v-28c0-6.8-5.2-12-12-12h-32.8l184.4-183.6l84,84L120.209,325.105z M333.409,111.105l-18.4,18.4l-84-84
			l18.4-18.4c7.2-7.2,16.4-10.8,26-10.8c10,0,19.2,4,26,10.8l31.6,31.6C347.809,73.105,347.809,96.705,333.409,111.105z"/>
	</g>
</g>
<g>
</g>
<g>
</g>
<g>
</g>
<g>
</g>
<g>
</g>
<g>
</g>
<g>
</g>
<g>
</g>
<g>
</g>
<g>
</g>
<g>
</g>
<g>
</g>
<g>
</g>
<g>
</g>
<g>
</g>
</svg>
