<svg xmlns="http://www.w3.org/2000/svg" xmlns:xlink="http://www.w3.org/1999/xlink" viewBox="0 0 50 50" version="1.1">
    <g id="surface1">
        <path fill="#333333" style=" " d="M 6.90625 5.96875 C 6.875 5.976563 6.84375 5.988281 6.8125 6 C 6.488281 6.066406 6.222656 6.289063 6.09375 6.59375 L 0.09375 19.59375 C 0.0351563 19.722656 0.00390625 19.859375 0 20 L 0 43 C -0.00390625 43.359375 0.183594 43.695313 0.496094 43.878906 C 0.808594 44.058594 1.191406 44.058594 1.503906 43.878906 C 1.816406 43.695313 2.003906 43.359375 2 43 L 2 21 L 11.03125 21 C 11.277344 24.460938 12.765625 27.050781 14.34375 28.9375 C 16.074219 31.003906 17.929688 32.449219 18.34375 33.15625 C 19.164063 34.550781 19.925781 35.949219 20.9375 37.0625 C 21.949219 38.175781 23.304688 39 25 39 C 25.289063 39 25.40625 39.042969 25.59375 39.15625 C 25.78125 39.269531 26.03125 39.503906 26.375 39.78125 C 27.058594 40.339844 28.183594 41 30 41 C 31.277344 41 32.441406 40.269531 33.46875 39.1875 C 34.496094 38.105469 35.4375 36.632813 36.25 34.78125 C 37.78125 31.292969 38.847656 26.519531 38.96875 21 L 48 21 L 48 43 C 47.996094 43.359375 48.183594 43.695313 48.496094 43.878906 C 48.808594 44.058594 49.191406 44.058594 49.503906 43.878906 C 49.816406 43.695313 50.003906 43.359375 50 43 L 50 20 C 49.996094 19.859375 49.964844 19.722656 49.90625 19.59375 L 43.90625 6.59375 C 43.726563 6.179688 43.292969 5.933594 42.84375 6 C 42.535156 6.050781 42.265625 6.242188 42.121094 6.515625 C 41.972656 6.792969 41.960938 7.121094 42.09375 7.40625 L 47.4375 19 L 38.875 19 C 38.4375 17.066406 36.765625 15.3125 34.5625 13.875 C 32.789063 12.71875 30.597656 11.808594 28.25 11.34375 C 28.289063 11.234375 28.3125 11.117188 28.3125 11 C 28.3125 10.640625 28.105469 10.328125 27.9375 10.15625 C 27.769531 9.984375 27.613281 9.882813 27.46875 9.8125 C 27.175781 9.671875 26.914063 9.621094 26.625 9.5625 C 26.046875 9.445313 25.449219 9.375 25 9.375 C 24.574219 9.375 23.957031 9.417969 23.375 9.53125 C 23.082031 9.589844 22.800781 9.660156 22.5 9.8125 C 22.347656 9.886719 22.195313 9.972656 22.03125 10.15625 C 21.867188 10.339844 21.6875 10.664063 21.6875 11 C 21.6875 11.117188 21.710938 11.234375 21.75 11.34375 C 19.386719 11.84375 17.210938 12.835938 15.4375 14.03125 C 14.15625 14.894531 13.089844 15.878906 12.3125 16.875 C 11.773438 17.5625 11.363281 18.269531 11.15625 19 L 2.5625 19 L 7.90625 7.40625 C 8.058594 7.09375 8.039063 6.726563 7.851563 6.433594 C 7.667969 6.144531 7.347656 5.964844 7 5.96875 C 6.96875 5.96875 6.9375 5.96875 6.90625 5.96875 Z M 25 13 C 28.113281 13 31.210938 14.089844 33.46875 15.5625 C 35.726563 17.035156 37 18.921875 37 20 C 37 25.695313 35.894531 30.582031 34.40625 33.96875 C 33.660156 35.664063 32.835938 36.964844 32.03125 37.8125 C 31.226563 38.660156 30.492188 39 30 39 C 28.597656 39 28.167969 38.660156 27.625 38.21875 C 27.351563 37.996094 27.046875 37.730469 26.625 37.46875 C 26.203125 37.207031 25.644531 37 25 37 C 23.914063 37 23.1875 36.578125 22.40625 35.71875 C 21.625 34.859375 20.894531 33.570313 20.0625 32.15625 C 19.179688 30.652344 17.421875 29.472656 15.875 27.625 C 14.328125 25.777344 13 23.449219 13 20 C 13 19.601563 13.261719 18.878906 13.875 18.09375 C 14.488281 17.308594 15.429688 16.480469 16.5625 15.71875 C 18.828125 14.191406 21.90625 13 25 13 Z M 25 14 C 24.449219 14 24 14.222656 24 14.5 C 24 14.777344 24.449219 15 25 15 C 25.550781 15 26 14.777344 26 14.5 C 26 14.222656 25.550781 14 25 14 Z M 20 15 C 19.449219 15 19 15.222656 19 15.5 C 19 15.777344 19.449219 16 20 16 C 20.550781 16 21 15.777344 21 15.5 C 21 15.222656 20.550781 15 20 15 Z M 30 15 C 29.449219 15 29 15.222656 29 15.5 C 29 15.777344 29.449219 16 30 16 C 30.550781 16 31 15.777344 31 15.5 C 31 15.222656 30.550781 15 30 15 Z M 20.0625 16.53125 C 19.621094 16.597656 19.277344 16.949219 19.21875 17.390625 C 19.160156 17.832031 19.402344 18.257813 19.8125 18.4375 L 23.5625 20.375 C 23.636719 20.667969 23.78125 20.929688 24 21.125 L 24 30.25 C 23.996094 30.609375 24.183594 30.945313 24.496094 31.128906 C 24.808594 31.308594 25.191406 31.308594 25.503906 31.128906 C 25.816406 30.945313 26.003906 30.609375 26 30.25 L 26 21.125 C 26.308594 20.851563 26.5 20.445313 26.5 20 C 26.5 19.171875 25.828125 18.5 25 18.5 C 24.816406 18.5 24.628906 18.535156 24.46875 18.59375 L 20.75 16.65625 C 20.570313 16.554688 20.363281 16.511719 20.15625 16.53125 C 20.125 16.53125 20.09375 16.53125 20.0625 16.53125 Z M 16 18 C 15.449219 18 15 18.222656 15 18.5 C 15 18.777344 15.449219 19 16 19 C 16.550781 19 17 18.777344 17 18.5 C 17 18.222656 16.550781 18 16 18 Z M 34 18 C 33.449219 18 33 18.222656 33 18.5 C 33 18.777344 33.449219 19 34 19 C 34.550781 19 35 18.777344 35 18.5 C 35 18.222656 34.550781 18 34 18 Z M 35 21 C 34.449219 21 34 21.449219 34 22 C 34 22.550781 34.449219 23 35 23 C 35.550781 23 36 22.550781 36 22 C 36 21.449219 35.550781 21 35 21 Z M 15 22 C 14.449219 22 14 22.449219 14 23 C 14 23.550781 14.449219 24 15 24 C 15.550781 24 16 23.550781 16 23 C 16 22.449219 15.550781 22 15 22 Z M 20 27 C 19.449219 27 19 27.449219 19 28 C 19 28.550781 19.449219 29 20 29 C 20.550781 29 21 28.550781 21 28 C 21 27.449219 20.550781 27 20 27 Z M 33 27 C 32.449219 27 32 27.449219 32 28 C 32 28.550781 32.449219 29 33 29 C 33.550781 29 34 28.550781 34 28 C 34 27.449219 33.550781 27 33 27 Z M 32 32 C 31.449219 32 31 32.449219 31 33 C 31 33.550781 31.449219 34 32 34 C 32.550781 34 33 33.550781 33 33 C 33 32.449219 32.550781 32 32 32 Z M 24 33 C 23.449219 33 23 33.449219 23 34 C 23 34.550781 23.449219 35 24 35 C 24.550781 35 25 34.550781 25 34 C 25 33.449219 24.550781 33 24 33 Z M 29 36 C 28.449219 36 28 36.449219 28 37 C 28 37.550781 28.449219 38 29 38 C 29.550781 38 30 37.550781 30 37 C 30 36.449219 29.550781 36 29 36 Z "></path>
    </g>
</svg>