<?xml version="1.0" encoding="utf-8"?>
<!-- Generator: Adobe Illustrator 18.1.1, SVG Export Plug-In . SVG Version: 6.00 Build 0)  -->
<svg version="1.1" id="Capa_1" xmlns="http://www.w3.org/2000/svg" xmlns:xlink="http://www.w3.org/1999/xlink" x="0px" y="0px"
	 viewBox="0 0 706 422" enable-background="new 0 0 706 422" xml:space="preserve">
<g>
	<g>
		<path fill="#18CFC8" d="M516.5,261.6H289.3c-3.7,0-6.8-3-6.8-6.8V128c0-3.7,3-6.8,6.8-6.8h227.2c3.7,0,6.8,3,6.8,6.8v126.9
			C523.3,258.6,520.2,261.6,516.5,261.6z"/>
	</g>
</g>
<g>
	<path fill="#4F5D77" d="M530.5,282H272c-6.4,0-11.6-5.2-11.6-11.6V113.1c0-6.4,5.2-11.6,11.6-11.6h160.2c3.1,0,5.6,2.5,5.6,5.6
		c0,3.1-2.5,5.6-5.6,5.6H272c-0.1,0-0.3,0.1-0.3,0.3v157.3c0,0.1,0.1,0.3,0.3,0.3h258.5c0.1,0,0.3-0.1,0.3-0.3v-98.7
		c0-3.1,2.5-5.6,5.6-5.6c3.1,0,5.6,2.5,5.6,5.6v98.7C542.1,276.8,536.9,282,530.5,282z"/>
</g>
<g>
	<path fill="#4F5D77" d="M536.5,162.9c-3.1,0-5.6-2.5-5.6-5.6v-14.7c0-3.1,2.5-5.6,5.6-5.6c3.1,0,5.6,2.5,5.6,5.6v14.7
		C542.1,160.4,539.6,162.9,536.5,162.9z"/>
</g>
<g>
	<path fill="#4F5D77" d="M536.5,132c-3.1,0-5.6-2.5-5.6-5.6v-13.2c0-0.1-0.1-0.3-0.3-0.3h-48.8c-3.1,0-5.6-2.5-5.6-5.6
		c0-3.1,2.5-5.6,5.6-5.6h48.8c6.4,0,11.6,5.2,11.6,11.6v13.2C542.1,129.4,539.6,132,536.5,132z"/>
</g>
<g>
	<g>
		<circle fill="#18CFC8" cx="169" cy="124.9" r="7.5"/>
	</g>
	<g>
		<path fill="#FFE400" d="M191.6,141c-4.3,0-7.7,3.5-7.7,7.7s3.5,7.7,7.7,7.7c4.3,0,7.7-3.5,7.7-7.7S195.9,141,191.6,141z
			 M191.5,152.2c-2,0-3.6-1.6-3.6-3.6c0-2,1.6-3.6,3.6-3.6c2,0,3.6,1.6,3.6,3.6C195.1,150.6,193.5,152.2,191.5,152.2z"/>
	</g>
	<g>
		<path fill="#18CFC8" d="M103.9,171.4c-4.3,0-7.7,3.5-7.7,7.7s3.5,7.7,7.7,7.7s7.7-3.5,7.7-7.7S108.2,171.4,103.9,171.4z
			 M103.8,181.6c-1.4,0-2.6-1.1-2.6-2.6s1.1-2.6,2.6-2.6s2.6,1.1,2.6,2.6S105.2,181.6,103.8,181.6z"/>
	</g>
	<g>
		<g>
			<path fill="#18CFC8" d="M144.5,159.8h4.6c0.2,0,0.5,0,0.7,0.1c0.3,0,0.5,0.1,0.7,0.3c0.2,0.1,0.4,0.3,0.5,0.5
				c0.1,0.2,0.2,0.5,0.2,0.8c0,0.3-0.1,0.6-0.2,0.8c-0.1,0.2-0.3,0.4-0.5,0.5c-0.2,0.1-0.4,0.2-0.7,0.3c-0.3,0.1-0.5,0.1-0.8,0.1
				h-4.6v4.5c0,0.2,0,0.5-0.1,0.7c0,0.3-0.1,0.5-0.3,0.7c-0.1,0.2-0.3,0.4-0.5,0.5c-0.2,0.1-0.5,0.2-0.9,0.2c-0.6,0-1-0.2-1.3-0.6
				c-0.3-0.4-0.4-0.9-0.4-1.6v-4.5h-4.6c-0.2,0-0.5,0-0.8-0.1c-0.3,0-0.5-0.1-0.7-0.3c-0.2-0.1-0.4-0.3-0.5-0.5
				c-0.1-0.2-0.2-0.5-0.2-0.8c0-0.3,0.1-0.5,0.2-0.7c0.1-0.2,0.3-0.4,0.5-0.5c0.2-0.1,0.4-0.2,0.7-0.3c0.3-0.1,0.6-0.1,0.9-0.1h4.6
				v-4.5c0-0.2,0-0.5,0.1-0.7c0-0.3,0.1-0.5,0.2-0.7c0.1-0.2,0.3-0.4,0.5-0.5c0.2-0.1,0.5-0.2,0.9-0.2c0.3,0,0.6,0.1,0.8,0.2
				c0.2,0.1,0.4,0.3,0.5,0.5c0.1,0.2,0.2,0.4,0.3,0.7c0.1,0.3,0.1,0.5,0.1,0.8V159.8z"/>
		</g>
	</g>
	<g>
		<g>
			<path fill="#FFAE31" d="M103.4,214.7h4.6c0.2,0,0.5,0,0.7,0.1c0.3,0,0.5,0.1,0.7,0.3c0.2,0.1,0.4,0.3,0.5,0.5
				c0.1,0.2,0.2,0.5,0.2,0.8c0,0.3-0.1,0.6-0.2,0.8c-0.1,0.2-0.3,0.4-0.5,0.5c-0.2,0.1-0.4,0.2-0.7,0.3c-0.3,0.1-0.5,0.1-0.8,0.1
				h-4.6v4.5c0,0.2,0,0.5-0.1,0.7c0,0.3-0.1,0.5-0.3,0.7c-0.1,0.2-0.3,0.4-0.5,0.5c-0.2,0.1-0.5,0.2-0.9,0.2c-0.6,0-1-0.2-1.3-0.6
				c-0.3-0.4-0.4-0.9-0.4-1.6V218h-4.6c-0.2,0-0.5,0-0.8-0.1c-0.3,0-0.5-0.1-0.7-0.3c-0.2-0.1-0.4-0.3-0.5-0.5
				c-0.1-0.2-0.2-0.5-0.2-0.8c0-0.3,0.1-0.5,0.2-0.7c0.1-0.2,0.3-0.4,0.5-0.5c0.2-0.1,0.4-0.2,0.7-0.3c0.3-0.1,0.6-0.1,0.9-0.1h4.6
				v-4.5c0-0.2,0-0.5,0.1-0.7c0-0.3,0.1-0.5,0.2-0.7c0.1-0.2,0.3-0.4,0.5-0.5c0.2-0.1,0.5-0.2,0.9-0.2c0.3,0,0.6,0.1,0.8,0.2
				c0.2,0.1,0.4,0.3,0.5,0.5c0.1,0.2,0.2,0.4,0.3,0.7c0.1,0.3,0.1,0.5,0.1,0.8V214.7z"/>
		</g>
	</g>
</g>
<g>
	<g>
		<circle fill="#FFC6C5" cx="603.7" cy="127.1" r="5.3"/>
	</g>
	<g>
		<circle fill="#18CFC8" cx="587.7" cy="169.5" r="5.3"/>
	</g>
	<g>
		<g>
			<path fill="#FFE400" d="M535.9,49.7h4.6c0.2,0,0.5,0,0.7,0.1c0.3,0,0.5,0.1,0.7,0.3c0.2,0.1,0.4,0.3,0.5,0.5
				c0.1,0.2,0.2,0.5,0.2,0.8c0,0.3-0.1,0.6-0.2,0.8c-0.1,0.2-0.3,0.4-0.5,0.5c-0.2,0.1-0.4,0.2-0.7,0.3c-0.3,0.1-0.5,0.1-0.8,0.1
				h-4.6v4.5c0,0.2,0,0.5-0.1,0.7c0,0.3-0.1,0.5-0.3,0.7c-0.1,0.2-0.3,0.4-0.5,0.5c-0.2,0.1-0.5,0.2-0.9,0.2c-0.6,0-1-0.2-1.3-0.6
				c-0.3-0.4-0.4-0.9-0.4-1.6V53h-4.6c-0.2,0-0.5,0-0.8-0.1c-0.3,0-0.5-0.1-0.7-0.3c-0.2-0.1-0.4-0.3-0.5-0.5
				c-0.1-0.2-0.2-0.5-0.2-0.8c0-0.3,0.1-0.5,0.2-0.7c0.1-0.2,0.3-0.4,0.5-0.5c0.2-0.1,0.4-0.2,0.7-0.3c0.3-0.1,0.6-0.1,0.9-0.1h4.6
				v-4.5c0-0.2,0-0.5,0.1-0.7c0-0.3,0.1-0.5,0.2-0.7c0.1-0.2,0.3-0.4,0.5-0.5c0.2-0.1,0.5-0.2,0.9-0.2c0.3,0,0.6,0.1,0.8,0.2
				c0.2,0.1,0.4,0.3,0.5,0.5c0.1,0.2,0.2,0.4,0.3,0.7c0.1,0.3,0.1,0.5,0.1,0.8V49.7z"/>
		</g>
	</g>
	<g>
		<g>
			<path fill="#FFC6C5" d="M578.3,88h4.6c0.2,0,0.5,0,0.7,0.1c0.3,0,0.5,0.1,0.7,0.3s0.4,0.3,0.5,0.5c0.1,0.2,0.2,0.5,0.2,0.8
				c0,0.3-0.1,0.6-0.2,0.8c-0.1,0.2-0.3,0.4-0.5,0.5c-0.2,0.1-0.4,0.2-0.7,0.3c-0.3,0.1-0.5,0.1-0.8,0.1h-4.6v4.5
				c0,0.2,0,0.5-0.1,0.7c0,0.3-0.1,0.5-0.3,0.7c-0.1,0.2-0.3,0.4-0.5,0.5c-0.2,0.1-0.5,0.2-0.9,0.2c-0.6,0-1-0.2-1.3-0.6
				c-0.3-0.4-0.4-0.9-0.4-1.6v-4.5h-4.6c-0.2,0-0.5,0-0.8-0.1c-0.3,0-0.5-0.1-0.7-0.3c-0.2-0.1-0.4-0.3-0.5-0.5
				c-0.1-0.2-0.2-0.5-0.2-0.8c0-0.3,0.1-0.5,0.2-0.7c0.1-0.2,0.3-0.4,0.5-0.5c0.2-0.1,0.4-0.2,0.7-0.3c0.3-0.1,0.6-0.1,0.9-0.1h4.6
				v-4.5c0-0.2,0-0.5,0.1-0.7c0-0.3,0.1-0.5,0.2-0.7c0.1-0.2,0.3-0.4,0.5-0.5c0.2-0.1,0.5-0.2,0.9-0.2c0.3,0,0.6,0.1,0.8,0.2
				c0.2,0.1,0.4,0.3,0.5,0.5c0.1,0.2,0.2,0.4,0.3,0.7c0.1,0.3,0.1,0.5,0.1,0.8V88z"/>
		</g>
	</g>
	<g>
		<path fill="#18CFC8" d="M576.6,32.1c-4.3,0-7.7,3.5-7.7,7.7s3.5,7.7,7.7,7.7c4.3,0,7.7-3.5,7.7-7.7S580.9,32.1,576.6,32.1z
			 M576.5,42.2c-1.4,0-2.6-1.1-2.6-2.6c0-1.4,1.1-2.6,2.6-2.6s2.6,1.1,2.6,2.6C579,41.1,577.9,42.2,576.5,42.2z"/>
	</g>
</g>
<g>
	<path fill="#FFFFFF" d="M387.4,370.7H147.1c-2.9,0-5.3-2.4-5.3-5.3V227.6c0-2.9,2.4-19.8,5.3-19.8h90.5l10.6,14.5h139.1
		c2.9,0,5.3,2.4,5.3,5.3v137.7C392.7,368.3,390.3,370.7,387.4,370.7z"/>
	<path fill="#4F5D77" d="M387.4,376.3H147.1c-6,0-11-4.9-11-11V227.6c0-2,0.7-7.4,1.7-12.2c1-5,2.8-13.3,9.3-13.3h90.5
		c1.8,0,3.5,0.9,4.6,2.3l8.9,12.2h136.3c6,0,11,4.9,11,11v137.7C398.3,371.4,393.4,376.3,387.4,376.3z M147.4,365H387V228H248.2
		c-1.8,0-3.5-0.9-4.6-2.3l-8.9-12.2h-84.8c-1.2,3.9-2.5,12.1-2.5,14.2V365z"/>
</g>
<g>
	<g>
		<path fill="#FFFFFF" d="M416.7,216.6h-21.4c-12.6,0-22.8-10.3-22.8-22.8v-7.2c0-12.6,10.3-22.8,22.8-22.8h21.4
			c12.6,0,22.8,10.3,22.8,22.8v7.2C439.6,206.3,429.3,216.6,416.7,216.6z"/>
	</g>
	<g>
		<g>
			<path fill="#4F5D77" d="M409.8,187.5h9c0.5,0,0.9,0,1.4,0.1c0.5,0.1,1,0.3,1.4,0.5c0.4,0.2,0.8,0.6,1,1c0.3,0.4,0.4,1,0.4,1.6
				c0,0.6-0.1,1.1-0.4,1.5c-0.2,0.4-0.6,0.8-0.9,1c-0.4,0.3-0.9,0.5-1.4,0.6c-0.5,0.1-1.1,0.2-1.6,0.2h-9v8.7c0,0.4,0,0.9-0.1,1.4
				c-0.1,0.5-0.3,1-0.5,1.4c-0.2,0.4-0.6,0.8-1,1c-0.4,0.3-1,0.4-1.7,0.4c-1.2,0-2-0.4-2.5-1.2c-0.5-0.8-0.8-1.8-0.8-3.1V194h-9
				c-0.5,0-1,0-1.5-0.1c-0.5-0.1-1-0.3-1.4-0.5c-0.4-0.2-0.8-0.6-1-1c-0.3-0.4-0.4-1-0.4-1.6c0-0.6,0.1-1,0.3-1.4
				c0.2-0.4,0.5-0.7,0.9-1c0.4-0.3,0.8-0.5,1.4-0.6c0.5-0.1,1.1-0.2,1.7-0.2h9v-8.8c0-0.4,0-0.9,0.1-1.4c0.1-0.5,0.2-1,0.5-1.4
				c0.2-0.4,0.6-0.8,1-1c0.4-0.3,1-0.4,1.7-0.4c0.6,0,1.1,0.1,1.5,0.4c0.4,0.2,0.8,0.6,1,1c0.3,0.4,0.5,0.9,0.6,1.4
				c0.1,0.5,0.2,1,0.2,1.6V187.5z"/>
		</g>
	</g>
</g>
<g>
	<g>
		<path fill="#18CFC8" d="M278.8,322.5h-21.4c-12.6,0-22.8-10.3-22.8-22.8v-7.2c0-12.6,10.3-22.8,22.8-22.8h21.4
			c12.6,0,22.8,10.3,22.8,22.8v7.2C301.6,312.2,291.4,322.5,278.8,322.5z"/>
	</g>
	<g>
		<g>
			<path fill="#4F5D77" d="M271,292.4h9.2c0.5,0,1,0,1.5,0.1c0.5,0.1,1,0.3,1.4,0.5s0.8,0.6,1.1,1c0.3,0.4,0.4,1,0.4,1.7
				c0,0.6-0.1,1.1-0.4,1.5s-0.6,0.8-1,1.1c-0.4,0.3-0.9,0.5-1.4,0.6c-0.5,0.1-1.1,0.2-1.7,0.2H271v9c0,0.5,0,1-0.1,1.5
				c-0.1,0.5-0.3,1-0.5,1.4c-0.2,0.4-0.6,0.8-1,1.1c-0.5,0.3-1,0.4-1.7,0.4c-1.2,0-2.1-0.4-2.6-1.2c-0.5-0.8-0.8-1.9-0.8-3.1v-9H255
				c-0.5,0-1,0-1.5-0.1c-0.5-0.1-1-0.3-1.4-0.5c-0.4-0.2-0.8-0.6-1.1-1c-0.3-0.4-0.4-1-0.4-1.7c0-0.6,0.1-1.1,0.3-1.5
				c0.2-0.4,0.5-0.8,0.9-1c0.4-0.3,0.9-0.5,1.4-0.6c0.5-0.1,1.1-0.2,1.7-0.2h9.2v-9c0-0.5,0-1,0.1-1.5c0.1-0.5,0.3-1,0.5-1.4
				c0.2-0.4,0.6-0.8,1-1.1s1-0.4,1.7-0.4c0.6,0,1.1,0.1,1.6,0.4c0.4,0.2,0.8,0.6,1.1,1c0.3,0.4,0.5,0.9,0.6,1.4
				c0.1,0.5,0.2,1.1,0.2,1.6V292.4z"/>
		</g>
	</g>
</g>
</svg>
