<?xml version="1.0" encoding="utf-8"?>
<!-- Generator: Adobe Illustrator 18.1.1, SVG Export Plug-In . SVG Version: 6.00 Build 0)  -->
<svg version="1.1" id="Capa_1" xmlns="http://www.w3.org/2000/svg" xmlns:xlink="http://www.w3.org/1999/xlink" x="0px" y="0px"
	 viewBox="0 0 1280 800" enable-background="new 0 0 1280 800" xml:space="preserve">
<g>
	<circle fill="#18CFC8" cx="356.6" cy="133.5" r="14.5"/>
	<circle fill="#FFC6C5" cx="1050.3" cy="268.2" r="10.3"/>
	<circle fill="#18CFC8" cx="1019.5" cy="349.8" r="10.3"/>
	<path fill="#FFE400" d="M400.1,164.5c-8.2,0-14.9,6.7-14.9,14.9c0,8.2,6.7,14.9,14.9,14.9c8.2,0,14.9-6.7,14.9-14.9
		C415,171.2,408.5,164.5,400.1,164.5z M400,186.1c-3.8,0-6.9-3.1-6.9-6.9c0-3.8,3.1-6.9,6.9-6.9s6.9,3.1,6.9,6.9
		C406.8,183,403.8,186.1,400,186.1z"/>
	<path fill="#18CFC8" d="M231.3,223c-8.2,0-14.9,6.7-14.9,14.9c0,8.2,6.7,14.9,14.9,14.9c8.2,0,14.9-6.7,14.9-14.9
		C246.2,229.8,239.5,223,231.3,223z M231,242.4c-2.7,0-4.9-2.2-4.9-4.9s2.2-4.9,4.9-4.9c2.7,0,4.9,2.2,4.9,4.9
		S233.7,242.4,231,242.4z"/>
	<g>
		<path fill="#18CFC8" d="M309.5,200.7h8.9c0.4,0,0.9,0,1.5,0.2c0.5,0.2,0.9,0.2,1.5,0.5c0.5,0.4,0.7,0.5,1.1,0.9
			c0.4,0.4,0.4,0.9,0.4,1.6c0,0.5-0.2,1.1-0.4,1.5c-0.2,0.4-0.5,0.7-0.9,1.1c-0.4,0.2-0.9,0.5-1.3,0.5c-0.5,0.2-1.1,0.2-1.6,0.2
			h-8.9v8.7c0,0.4,0,0.9-0.2,1.5c-0.2,0.5-0.2,0.9-0.5,1.5c-0.2,0.4-0.5,0.7-1.1,1.1c-0.4,0.2-0.9,0.4-1.6,0.4c-1.1,0-2-0.4-2.5-1.3
			c-0.5-0.7-0.7-1.8-0.7-3.1v-8.7h-8.9c-0.5,0-0.9,0-1.5-0.2c-0.5-0.2-0.9-0.2-1.5-0.5c-0.4-0.2-0.7-0.5-1.1-0.9
			c-0.2-0.4-0.4-0.9-0.4-1.6c0-0.5,0.2-1.1,0.4-1.5c0.2-0.4,0.5-0.7,0.9-1.1c0.4-0.2,0.9-0.5,1.3-0.5c0.5-0.2,1.1-0.2,1.6-0.2h8.9
			V192c0-0.4,0-0.9,0.2-1.5c0-0.5,0.2-0.9,0.5-1.5c0.2-0.4,0.5-0.7,1.1-1.1s0.9-0.4,1.6-0.4c0.5,0,1.1,0.2,1.5,0.4s0.7,0.5,1.1,0.9
			c0.2,0.4,0.5,0.9,0.5,1.5s0.2,1.1,0.2,1.6L309.5,200.7L309.5,200.7z"/>
	</g>
	<g>
		<path fill="#FFAE31" d="M230.3,306.3h8.9c0.4,0,0.9,0,1.5,0.2s0.9,0.2,1.5,0.5s0.7,0.5,1.1,0.9c0.4,0.4,0.4,0.9,0.4,1.6
			c0,0.5-0.2,1.1-0.4,1.5c-0.2,0.4-0.5,0.7-0.9,1.1c-0.4,0.2-0.9,0.5-1.3,0.5c-0.5,0.2-1.1,0.2-1.6,0.2h-9.1v8.7
			c0,0.4,0,0.9-0.2,1.5c-0.2,0.5-0.2,0.9-0.5,1.5c-0.2,0.4-0.5,0.7-1.1,1.1c-0.4,0.2-0.9,0.4-1.6,0.4c-1.1,0-2-0.4-2.5-1.3
			c-0.5-0.7-0.7-1.8-0.7-3.1v-8.7h-8.9c-0.5,0-0.9,0-1.5-0.2c-0.5-0.2-0.9-0.2-1.5-0.5c-0.4-0.2-0.7-0.5-1.1-0.9
			c-0.2-0.4-0.4-0.9-0.4-1.6c0-0.5,0.2-1.1,0.4-1.5c0.2-0.4,0.5-0.7,0.9-1.1c0.4-0.2,0.9-0.5,1.3-0.5c0.5-0.2,1.1-0.2,1.6-0.2h8.9
			v-8.7c0-0.4,0-0.9,0.2-1.5c0-0.5,0.2-0.9,0.5-1.5c0.2-0.4,0.5-0.7,1.1-1.1c0.5-0.4,0.9-0.4,1.6-0.4c0.5,0,1.1,0.2,1.5,0.4
			c0.4,0.2,0.7,0.5,1.1,0.9c0.2,0.4,0.5,0.9,0.5,1.5s0.2,1.1,0.2,1.6v8.7H230.3z"/>
	</g>
	<g>
		<path fill="#FFE400" d="M919.9,119.2h8.9c0.4,0,0.9,0,1.5,0.2c0.5,0.2,0.9,0.2,1.5,0.5s0.7,0.5,1.1,0.9c0.4,0.4,0.4,0.9,0.4,1.6
			c0,0.5-0.2,1.1-0.4,1.5s-0.5,0.7-0.9,1.1c-0.4,0.2-0.9,0.5-1.3,0.5c-0.5,0.2-1.1,0.2-1.6,0.2h-8.9v8.7c0,0.4,0,0.9-0.2,1.5
			c-0.2,0.5-0.2,0.9-0.5,1.5c-0.2,0.4-0.5,0.7-1.1,1.1c-0.4,0.2-0.9,0.4-1.6,0.4c-1.1,0-2-0.4-2.5-1.3c-0.5-0.7-0.7-1.8-0.7-3.1
			v-8.7h-8.9c-0.5,0-0.9,0-1.5-0.2s-0.9-0.2-1.5-0.5c-0.4-0.2-0.7-0.5-1.1-0.9c-0.2-0.4-0.4-0.9-0.4-1.6c0-0.5,0.2-1.1,0.4-1.5
			c0.2-0.4,0.5-0.7,0.9-1.1c0.4-0.2,0.9-0.5,1.3-0.5c0.5-0.2,1.1-0.2,1.6-0.2h8.9v-8.7c0-0.4,0-0.9,0.2-1.5c0-0.5,0.2-0.9,0.5-1.5
			c0.2-0.4,0.5-0.7,1.1-1.1s0.9-0.4,1.6-0.4c0.5,0,1.1,0.2,1.5,0.4c0.4,0.2,0.7,0.5,1.1,0.9c0.2,0.4,0.5,0.9,0.5,1.5
			c0,0.5,0.2,1.1,0.2,1.6L919.9,119.2L919.9,119.2z"/>
	</g>
	<g>
		<path fill="#FFC6C5" d="M1001.5,193h8.9c0.4,0,0.9,0,1.5,0.2s0.9,0.2,1.5,0.5s0.7,0.5,1.1,0.9c0.4,0.4,0.4,0.9,0.4,1.6
			c0,0.5-0.2,1.1-0.4,1.5c-0.2,0.4-0.5,0.7-0.9,1.1c-0.4,0.2-0.9,0.5-1.3,0.5c-0.5,0.2-1.1,0.2-1.6,0.2h-8.9v8.7
			c0,0.4,0,0.9-0.2,1.5s-0.2,0.9-0.5,1.5c-0.2,0.4-0.5,0.7-1.1,1.1c-0.4,0.2-0.9,0.4-1.6,0.4c-1.1,0-2-0.4-2.5-1.3
			c-0.5-0.7-0.7-1.8-0.7-3.1v-8.7h-8.9c-0.5,0-0.9,0-1.5-0.2s-0.9-0.2-1.5-0.5c-0.4-0.2-0.7-0.5-1.1-0.9c-0.2-0.4-0.4-0.9-0.4-1.6
			c0-0.5,0.2-1.1,0.4-1.5c0.2-0.4,0.5-0.7,0.9-1.1c0.4-0.2,0.9-0.5,1.3-0.5c0.5-0.2,1.1-0.2,1.6-0.2h8.9v-8.7c0-0.4,0-0.9,0.2-1.5
			c0-0.5,0.2-0.9,0.5-1.5c0.2-0.4,0.5-0.7,1.1-1.1c0.5-0.4,0.9-0.4,1.6-0.4c0.5,0,1.1,0.2,1.5,0.4c0.4,0.2,0.7,0.5,1.1,0.9
			c0.2,0.4,0.5,0.9,0.5,1.5s0.2,1.1,0.2,1.6L1001.5,193L1001.5,193z"/>
	</g>
	<path fill="#18CFC8" d="M998.3,85.3c-8.2,0-14.9,6.7-14.9,14.9s6.7,14.9,14.9,14.9s14.9-6.7,14.9-14.9S1006.4,85.3,998.3,85.3z
		 M997.9,104.7c-2.7,0-4.9-2.2-4.9-4.9c0-2.7,2.2-4.9,4.9-4.9s4.9,2.2,4.9,4.9C1002.8,102.5,1000.6,104.7,997.9,104.7z"/>
	<g>
		<path fill="#4F5D77" d="M870.3,274.2c17.2,0,34.3,0,51.5,0c4.7,0,13.2-2,14.9,3.6c0.4,1.5,0,3.4,0,4.7c0,27.9,0,55.7,0,83.6
			c0,80.1,0,160.1,0,240.2c0,6,1.5,14.3,0,20.1c-1.3,4.9-5.3,4-9.4,4c-20.5,0-40.8,0-61.3,0c-80.9,0-161.7,0-242.6,0
			c-80.3,0-160.5,0-240.8,0c-19.9,0-39.9,0-59.8,0c-4.2,0-7.8,0.9-9.1-4c-1.5-6.3,0-14.9,0-21.4c0-80.1,0-160.3,0-240.4
			c0-27.6,0-55.1,0-82.7c0-4.7,0.5-7.3,5.6-7.8c7.1-0.7,14.5,0,21.6,0c75.8,0,151.6,0,227.4,0c70,0,140.1,0,210.1,0c4,0,8,0,11.8,0
			c14,0,14-21.8,0-21.8c-55.1,0-110.1,0-165.2,0c-85.6,0-171.2,0-256.9,0c-16.9,0-34.1-0.7-50.9,0c-17.6,0.9-25.4,14.9-25.4,30.6
			c0,11.2,0,22.5,0,33.5c0,84.7,0,169.2,0,253.8c0,14,0,28.1,0,42.1c0,8-0.9,16.9,2.2,24.1c8.5,19.8,33.9,15.4,51.5,15.4
			c73.4,0,146.7,0,220.1,0c88.3,0,176.6,0,264.9,0c27.7,0,55.5,0,83,0c5.8,0,11.8,0.2,17.6,0c15.2-0.4,26.5-10.5,27-26.1
			c0.9-24.3,0-48.6,0-72.9c0-44.8,0-89.6,0-134.3c0-38.4,0-77.1,0-115.5c0-8.2,0.4-16.5,0-24.7c-0.4-9.6-4.5-18.5-13.2-23.2
			c-7.1-4-15.6-3.1-23.4-3.1c-17.2,0-34.3,0-51.5,0C856.3,252.4,856.3,274.2,870.3,274.2L870.3,274.2z"/>
	</g>
	<g>
		<path fill="#4F5D77" d="M384.5,697.5c53.3,0,106.6,0,159.9,0c84.8,0,169.9,0,254.7,0c19.4,0,38.8,0,58.4,0c14,0,14-21.8,0-21.8
			c-53.3,0-106.6,0-159.9,0c-84.8,0-169.9,0-254.7,0c-19.4,0-38.8,0-58.4,0C370.6,675.8,370.6,697.5,384.5,697.5L384.5,697.5z"/>
	</g>
	<path fill="#18CFC8" d="M905.4,574.2H345.2c-8.2,0-15-6.7-15-15V308.3c0-8.2,6.7-15,15-15h560.4c8.2,0,15,6.7,15,15v251.1
		C920.5,567.5,913.8,574.2,905.4,574.2z"/>
	<path fill="#FFFFFF" d="M436,550.5h-73.4c-6.9,0-12.5-5.6-12.5-12.5V332.7c0-6.9,5.6-12.5,12.5-12.5H436c6.9,0,12.5,5.6,12.5,12.5
		V538C448.5,544.9,442.9,550.5,436,550.5z"/>
	<path fill="#FFFF00" d="M889.5,551.8H478.3c-6.3,0-11.6-5.3-11.6-11.6v-208c0-6.3,5.3-11.6,11.6-11.6h411.2
		c6.3,0,11.6,5.3,11.6,11.6v208C901.1,546.5,896,551.8,889.5,551.8z"/>
</g>
</svg>
