<?xml version="1.0" encoding="utf-8"?>
<!-- Svg Vector Icons : http://www.onlinewebfonts.com/icon -->
<!DOCTYPE svg PUBLIC "-//W3C//DTD SVG 1.1//EN" "http://www.w3.org/Graphics/SVG/1.1/DTD/svg11.dtd">
<svg version="1.1" xmlns="http://www.w3.org/2000/svg" xmlns:xlink="http://www.w3.org/1999/xlink" x="0px" y="0px" viewBox="0 0 1000 1000" enable-background="new 0 0 1000 1000" xml:space="preserve">
<metadata> Svg Vector Icons : http://www.onlinewebfonts.com/icon </metadata>
<g><g transform="translate(0.000000,512.000000) scale(0.100000,-0.100000)">
    <path troke="#18CFC8" fill="#18CFC8"   d="M886.3,4990.3C760,4959.7,695,4894.7,695,4797.1c0-168.3,101.4-237.2,296.5-202.8c65,13.4,181.7,23,256.4,23c128.2,0,143.5,3.8,195.1,55.5c95.7,97.6,68.9,262.1-53.6,325.2C1334,5026.7,1016.4,5021,886.3,4990.3z"/><path troke="#18CFC8" fill="#18CFC8"   d="M2039.9,4999.9c-24.9-9.6-61.2-45.9-82.3-80.4c-53.6-86.1-40.2-179.8,38.3-248.7c57.4-53.6,59.3-53.6,340.5-53.6c237.2,0,287,5.7,321.4,34.4c105.2,84.2,112.9,208.5,19.1,302.3l-65,65l-264-1.9C2200.6,5017.1,2062.9,5009.5,2039.9,4999.9z"/><path troke="#18CFC8" fill="#18CFC8"   d="M3228,4954c-93.7-93.7-86.1-218.1,19.1-302.3c34.4-28.7,84.2-34.4,321.4-34.4c281.2,0,283.1,0,340.5,53.6c109.1,95.7,80.4,279.3-49.7,329.1c-26.8,11.5-164.5,19.1-308,19.1H3293L3228,4954z"/><path troke="#18CFC8" fill="#18CFC8"   d="M4511.7,4996.1c-70.8-38.3-105.2-99.5-105.2-183.7c0-67,11.5-93.8,55.5-139.7l55.5-55.5h290.8H5099l55.5,55.5c44,44,55.5,72.7,55.5,135.8c0,177.9-63.1,210.4-405.6,210.4C4657.1,5019,4534.6,5009.5,4511.7,4996.1z"/><path troke="#18CFC8" fill="#18CFC8"   d="M5694,4762.7c-65.1-30.6-120.5-116.7-120.5-189.4c0-24.9,21.1-74.6,47.8-111c103.3-141.6,137.8-200.9,160.7-267.8c30.6-93.7,97.6-153,191.3-164.5c68.9-9.6,84.2-3.8,145.4,57.4c53.6,53.6,67,82.3,67,141.6c0,170.3-242.9,529.9-373,551C5782,4785.6,5728.4,4778,5694,4762.7z"/><path troke="#18CFC8" fill="#18CFC8"   d="M233.9,4397.3c-80.3-44-116.7-162.6-126.3-401.8c-11.5-241.1,3.8-298.4,93.8-353.9c80.3-49.7,176-38.3,243,28.7c44,44,51.7,70.8,67,264c26.8,355.8,26.8,371.2-28.7,426.6C421.4,4420.2,304.7,4439.4,233.9,4397.3z"/><path troke="#18CFC8" fill="#18CFC8"   d="M5877.6,3547.9l-55.5-55.5v-290.8v-290.8l55.5-55.5c44-44,72.7-55.5,135.8-55.5c176,0,210.4,63.1,210.4,401.8c0,147.3-9.6,267.8-21,292.7c-36.3,72.7-97.6,109.1-185.5,109.1C5950.4,3603.3,5923.6,3591.8,5877.6,3547.9z"/><path troke="#18CFC8" fill="#18CFC8"   d="M186.1,3148c-72.7-57.4-84.2-107.1-84.2-367.3c0-338.6,34.4-401.8,210.4-401.8c63.1,0,91.8,11.5,135.8,55.5l55.5,55.5v290.8v290.8l-55.5,55.5c-45.9,44-72.7,55.5-139.7,55.5C258.8,3182.4,209.1,3169,186.1,3148z"/><path troke="#18CFC8" fill="#18CFC8"   d="M5893,2321.5c-36.4-28.7-76.5-38.3-174.1-38.3c-183.7,0-321.4-57.4-453.4-189.4c-59.3-59.3-118.6-139.7-132-177.9c-22.9-65-32.5-70.8-74.6-57.4c-88,24.9-313.8,11.5-394.1-23c-176-74.6-319.5-227.7-373.1-397.9c-21-72.7-23-72.7-124.4-72.7c-304.2,0-577.8-248.7-617.9-562.5L3536,689.6l-88-24.9c-189.4-55.5-369.2-233.4-422.8-415.1c-11.5-44-23-137.7-21-206.6c1.9-181.7,68.9-319.5,237.2-487.9l132-130.1v-132V-837l-65,67l-63.1,68.9h-185.6c-179.8,0-187.5-1.9-243-55.5c-63.1-63.1-74.6-158.8-28.7-248.7c38.3-72.7,105.2-97.6,271.7-97.6c162.6,0,241.1,30.6,283.1,109.1c24.9,47.8,26.8,24.9,34.4-252.5c7.7-254.4,15.3-323.3,49.7-409.4c53.6-135.8,158.8-290.8,264-392.2l84.2-82.3v-868.6c0-707.9,5.7-891.5,28.7-991c86.1-363.5,396-671.5,759.5-757.6c181.7-42.1,4365.8-42.1,4547.5,0c177.9,42.1,338.6,135.8,480.2,277.4c141.6,141.6,235.3,302.3,277.4,480.2c42.1,181.7,42.1,4365.8,0,4547.5c-86.1,363.5-394.1,673.4-757.6,759.5c-101.4,23-302.3,28.7-1155.5,28.7H6922.2l-350.1,350.1c-340.6,340.5-348.2,350.1-348.2,428.5c0,44-9.6,103.3-22.9,130.1C6155,2356,5984.8,2394.2,5893,2321.5z M5852.8,1826c124.3-89.9,759.5-748,853.3-882c256.3-365.4,371.1-809.2,321.4-1235.9c-103.3-859-748-1509.5-1597.5-1612.8c-223.8-26.8-1029.2-26.8-1161.3,0c-191.3,40.2-359.7,174.1-440,352c-34.4,78.4-44,137.7-49.7,334.8l-7.7,239.1l265.9-262.1c254.4-250.6,271.7-264,344.4-264c139.7,0,243,135.8,197,260.2c-11.5,30.6-279.3,313.8-595,629.4l-572,575.8v88c0,151.1,120.5,250.6,275.5,229.6c44-7.7,128.2-78.4,338.6-283.1c265.9-262.1,285.1-275.5,355.8-275.5c139.7,0,243,137.7,197,260.2c-11.5,30.6-153,189.4-313.8,352c-325.2,329.1-348.2,365.4-285.1,493.6c45.9,95.7,145.4,147.3,244.9,130.1c59.3-11.5,112.9-51.7,277.4-212.4c112.9-109.1,225.7-204.7,252.5-210.4c70.8-17.2,179.8,34.4,214.3,103.3c61.2,118.6,42.1,166.4-153.1,367.3c-135.8,139.7-141.6,151.1-141.6,237.2c0,76.5,9.6,99.5,65,155c57.4,57.4,76.5,65,162.6,65c97.6,0,101.4-1.9,256.4-151.1c86.1-84.2,179.8-156.9,206.6-164.5c72.7-17.2,181.7,34.4,216.2,103.3c44,82.3,38.3,137.7-24.9,233.4c-30.6,45.9-61.2,107.1-68.9,133.9c-17.2,72.7,34.5,181.7,109.1,227.7C5684.4,1896.8,5764.8,1891.1,5852.8,1826z M9022.8,915.4c197-51.7,319.5-156.9,413.2-353.9l49.7-105.2v-2171.4v-2171.4l-49.7-105.2c-70.8-153-155-239.1-300.4-309.9l-128.2-63.1H6836.1H4664.7l-105.2,49.7c-197,93.8-302.3,216.2-353.9,413.2c-23,88-28.7,256.3-28.7,847.5v736.6l568.2-5.7c363.5-3.8,637.1,1.9,751.8,15.3c983.3,122.5,1775.4,893.4,1922.7,1869.1c63.1,419,13.4,820.7-153.1,1212.9c-36.3,88-67,162.6-67,164.5c0,3.8,386.5,5.7,857.1,5.7C8753.1,944.1,8932.9,938.3,9022.8,915.4z"/><path troke="#18CFC8" fill="#18CFC8"   d="M201.4,1919.8c-34.4-21-70.8-61.2-80.4-88c-11.5-26.8-19.1-164.5-19.1-308v-258.3l65-65c93.7-93.7,218.1-86.1,302.3,19.1c28.7,34.4,34.4,84.2,34.4,321.4c0,281.2,0,283.1-51.7,340.5C381.2,1960,287.5,1973.3,201.4,1919.8z"/><path troke="#18CFC8" fill="#18CFC8"   d="M165,647.5l-65-65l5.7-288.9C111.5,10.5,111.5,6.7,165-45c42.1-42.1,70.8-53.6,139.7-53.6c74.6,0,95.7,9.6,143.5,63.1l55.5,61.2v267.8c0,290.8-15.3,350.1-97.6,394.1C314.3,733.6,239.7,722.2,165,647.5z"/><path troke="#18CFC8" fill="#18CFC8"   d="M473.1-471.6c-68.9-26.8-122.4-112.9-122.4-197.1c0-68.9,11.5-89.9,97.6-172.2c120.5-116.7,338.6-223.8,453.4-223.8c155,0,241.1,147.3,172.2,296.5c-13.4,32.5-68.9,68.9-166.4,116.7c-80.4,38.3-166.4,88-193.2,112.9C622.3-456.3,557.2-437.2,473.1-471.6z"/><path troke="#18CFC8" fill="#18CFC8"   d="M1601.8-735.6c-105.2-84.2-112.9-208.5-17.2-304.2l65-65l288.9,5.7c283.1,5.7,287,5.7,338.6,59.3c42.1,42.1,53.6,70.8,53.6,139.7c0,74.6-9.6,95.7-63.1,143.5l-61.2,55.5h-283.1C1686-701.2,1636.2-706.9,1601.8-735.6z"/></g></g>
</svg>