<?xml version="1.0" encoding="utf-8"?>
<!-- Generator: Adobe Illustrator 18.1.1, SVG Export Plug-In . SVG Version: 6.00 Build 0)  -->
<svg version="1.1" id="Capa_1" xmlns="http://www.w3.org/2000/svg" xmlns:xlink="http://www.w3.org/1999/xlink" x="0px" y="0px"
	 viewBox="0 0 706 422" enable-background="new 0 0 706 422" xml:space="preserve">
<g>
	<path fill="#4F5D77" d="M385.5,237.7C385.5,237.7,385.4,237.7,385.5,237.7l-14.2,0c-2.8,0-5-2.2-5-5s2.2-5,5-5l14.3,0
		c2.7,0.1,4.8,2.3,4.8,5C390.5,235.5,388.2,237.7,385.5,237.7z M357.2,237.7H343c-2.8,0-5-2.2-5-5s2.2-5,5-5h14.1c2.8,0,5,2.2,5,5
		S359.9,237.7,357.2,237.7z M328.9,237.7h-14.1c-2.8,0-5-2.2-5-5s2.2-5,5-5h14.1c2.8,0,5,2.2,5,5S331.7,237.7,328.9,237.7z
		 M300.7,237.7h-14.1c-2.8,0-5-2.2-5-5s2.2-5,5-5h14.1c2.8,0,5,2.2,5,5S303.4,237.7,300.7,237.7z M272.4,237.7h-14.1
		c-2.8,0-5-2.2-5-5s2.2-5,5-5h14.1c2.8,0,5,2.2,5,5S275.2,237.7,272.4,237.7z M244.2,237.7H230c-2.8,0-5-2.2-5-5s2.2-5,5-5h14.1
		c2.8,0,5,2.2,5,5S246.9,237.7,244.2,237.7z M215.9,237.7h-14.1c-2.8,0-5-2.2-5-5s2.2-5,5-5h14.1c2.8,0,5,2.2,5,5
		S218.7,237.7,215.9,237.7z M187.6,237.7h-14.1c-2.8,0-5-2.2-5-5s2.2-5,5-5h14.1c2.8,0,5,2.2,5,5S190.4,237.7,187.6,237.7z
		 M159.4,237.7h-11.6c-1.8,0-3.6-0.5-5.2-1.6c-2.3-1.5-2.9-4.6-1.4-6.9c1.5-2.2,4.5-2.9,6.7-1.5h11.4c2.8,0,5,2.2,5,5
		S162.1,237.7,159.4,237.7z M389.7,226c-2.8,0-5-2.2-5-5v-14.1c0-2.8,2.2-5,5-5s5,2.2,5,5V221C394.7,223.7,392.5,226,389.7,226z
		 M143.5,223.5c-2.8,0-5-2.2-5-5v-14.1c0-2.8,2.2-5,5-5s5,2.2,5,5v14.1C148.5,221.2,146.3,223.5,143.5,223.5z M389.7,197.7
		c-2.8,0-5-2.2-5-5v-14.1c0-2.8,2.2-5,5-5s5,2.2,5,5v14.1C394.7,195.5,392.5,197.7,389.7,197.7z M143.5,195.2c-2.8,0-5-2.2-5-5
		v-14.1c0-2.8,2.2-5,5-5s5,2.2,5,5v14.1C148.5,193,146.3,195.2,143.5,195.2z M389.7,169.4c-2.8,0-5-2.2-5-5v-14.1c0-2.8,2.2-5,5-5
		s5,2.2,5,5v14.1C394.7,167.2,392.5,169.4,389.7,169.4z M143.5,167c-2.8,0-5-2.2-5-5v-14.1c0-2.8,2.2-5,5-5s5,2.2,5,5V162
		C148.5,164.7,146.3,167,143.5,167z M387.8,141.8c-0.9,0-1.8-0.2-2.6-0.7h-11.4c-2.8,0-5-2.2-5-5s2.2-5,5-5h11.6
		c1.8,0,3.6,0.5,5.1,1.5c2.3,1.5,2.9,4.6,1.4,6.9C391,141.1,389.4,141.8,387.8,141.8z M359.7,141.1h-14.1c-2.8,0-5-2.2-5-5
		s2.2-5,5-5h14.1c2.8,0,5,2.2,5,5S362.4,141.1,359.7,141.1z M331.4,141.1h-14.1c-2.8,0-5-2.2-5-5s2.2-5,5-5h14.1c2.8,0,5,2.2,5,5
		S334.2,141.1,331.4,141.1z M303.2,141.1H289c-2.8,0-5-2.2-5-5s2.2-5,5-5h14.1c2.8,0,5,2.2,5,5S305.9,141.1,303.2,141.1z
		 M274.9,141.1h-14.1c-2.8,0-5-2.2-5-5s2.2-5,5-5h14.1c2.8,0,5,2.2,5,5S277.7,141.1,274.9,141.1z M246.7,141.1h-14.1
		c-2.8,0-5-2.2-5-5s2.2-5,5-5h14.1c2.8,0,5,2.2,5,5S249.4,141.1,246.7,141.1z M218.4,141.1h-14.1c-2.8,0-5-2.2-5-5s2.2-5,5-5h14.1
		c2.8,0,5,2.2,5,5S221.2,141.1,218.4,141.1z M190.1,141.1H176c-2.8,0-5-2.2-5-5s2.2-5,5-5h14.1c2.8,0,5,2.2,5,5
		S192.9,141.1,190.1,141.1z M161.9,141.1h-14.1c-2.8,0-5-2.2-5-5s2.2-5,5-5h14.1c2.8,0,5,2.2,5,5S164.6,141.1,161.9,141.1z"/>
</g>
<g>
	<path fill="#FFFFFF" d="M539.4,302.7H301.8c-2.4,0-4.3-1.9-4.3-4.3v-88c0-2.4,1.9-4.3,4.3-4.3h237.6c2.4,0,4.3,1.9,4.3,4.3v88
		C543.7,300.8,541.8,302.7,539.4,302.7z"/>
	<path fill="#4F5D77" d="M539.4,308.7H301.8c-5.7,0-10.3-4.6-10.3-10.3v-88c0-5.7,4.6-10.3,10.3-10.3h237.6
		c5.7,0,10.3,4.6,10.3,10.3v88C549.7,304.1,545.1,308.7,539.4,308.7z M303.5,296.7h234.2v-84.6H303.5V296.7z"/>
</g>
<g>
	<g>
		<path fill="#4F5D77" d="M412.8,237.8c2.2,0,2.3,0,5.8,3.4"/>
	</g>
	<g>
		<path fill="#4F5D77" d="M412.8,237.8c2.2,0,2.3,0,5.8,3.4"/>
	</g>
	<g>
		<ellipse fill="#18CFC8" cx="406" cy="290" rx="43.6" ry="46.3"/>
	</g>
	<g>
		<g transform="translate(0.000000,512.000000) scale(0.100000,-0.100000)">
			<g>
				<path fill="#4F5D77" d="M4183.7,2783.4c-13.7,6.3-27.3,5.6-49.6,5.6c-41.8,0-73.2-13.1-103.2-43.1c-13.5-13.5-27-31.8-30.1-40.5
					c-5.2-14.8-7.4-16.1-17-13.1c-20,5.7-71.4,2.6-89.7-5.2c-40.1-17-72.7-51.8-84.9-90.6c-4.8-16.6-5.2-16.6-28.3-16.6
					c-69.3,0-131.6-56.6-140.7-128.1l-3.1-25.7l-20-5.7c-43.1-12.6-84.1-53.1-96.3-94.5c-2.6-10-5.2-31.4-4.8-47
					c0.4-41.4,15.7-72.7,54-111.1l30.1-29.6v-30.1v-29.6l-1.6-26.6c0.4-9.3-1.2-7.3,2.5-66.6c1.8-57.9,3.5-73.6,11.3-93.2
					c12.2-30.9,36.2-66.2,60.1-89.3l19.2-18.7c0,0,51.5-35.1,91.5-42.7l129.4-1.3c82.8-0.9,145.1,0.4,171.2,3.5
					c223.9,27.9,404.2,203.4,437.8,425.5c14.4,95.4,3.1,186.9-34.9,276.1c-8.3,20-15.1,37.1-15.3,37.5
					c-12.2,23.3-63.1,92.8-63.1,92.8l-79.7,79.7L4183.7,2783.4z M4164.6,2684.9c28.3-20.5,172.9-170.3,194.3-200.8
					c58.4-83.2,84.5-184.2,73.2-281.4c-23.5-195.6-170.3-343.7-363.7-367.2c-51-6.1-234.3-6.1-264.4,0
					c-43.6,9.2-81.9,39.6-100.2,80.1c-7.8,17.8-10,31.4-11.3,76.2l-1.8,54.4l60.5-59.7c57.9-57.1,61.9-60.1,78.4-60.1
					c31.8,0,55.3,30.9,44.9,59.2c-2.6,7-63.6,71.4-135.5,143.3l-130.2,131.1v20c0,34.4,27.4,57.1,62.7,52.3
					c10-1.8,29.2-17.8,77.1-64.5c60.5-59.7,64.9-62.7,81-62.7c31.8,0,55.3,31.4,44.9,59.2c-2.6,7-34.8,43.1-71.4,80.1
					c-74,74.9-79.3,83.2-64.9,112.4c10.5,21.8,33.1,33.5,55.8,29.6c13.5-2.6,25.7-11.8,63.2-48.4c25.7-24.8,51.4-46.6,57.5-47.9
					c16.1-3.9,40.9,7.8,48.8,23.5c13.9,27,9.6,37.9-34.9,83.6c-30.9,31.8-32.2,34.4-32.2,54c0,17.4,2.2,22.7,14.8,35.3
					c13.1,13.1,17.4,14.8,37,14.8c22.2,0,23.1-0.4,58.4-34.4c19.6-19.2,40.9-35.7,47-37.5c16.6-3.9,41.4,7.8,49.2,23.5
					c10,18.7,8.7,31.4-5.7,53.1c-7,10.5-13.9,24.4-15.7,30.5c-3.9,16.6,7.9,41.4,24.8,51.8
					C4126.3,2701.1,4144.6,2699.8,4164.6,2684.9z M4388.5,1275.5"/>
			</g>
		</g>
	</g>
</g>
<g>
	<circle fill="#FFC6C5" cx="603.3" cy="243.3" r="5.7"/>
</g>
<g>
	<circle fill="#18CFC8" cx="586.3" cy="288.3" r="5.7"/>
</g>
<g>
	<g>
		<path fill="#FFE400" d="M531.4,161.1h4.9c0.2,0,0.5,0,0.8,0.1c0.3,0.1,0.5,0.1,0.8,0.3s0.4,0.3,0.6,0.5c0.2,0.2,0.2,0.5,0.2,0.9
			c0,0.3-0.1,0.6-0.2,0.8s-0.3,0.4-0.5,0.6c-0.2,0.1-0.5,0.3-0.7,0.3c-0.3,0.1-0.6,0.1-0.9,0.1h-4.9v4.8c0,0.2,0,0.5-0.1,0.8
			c-0.1,0.3-0.1,0.5-0.3,0.8c-0.1,0.2-0.3,0.4-0.6,0.6c-0.2,0.1-0.5,0.2-0.9,0.2c-0.6,0-1.1-0.2-1.4-0.7c-0.3-0.4-0.4-1-0.4-1.7
			v-4.8h-4.9c-0.3,0-0.5,0-0.8-0.1c-0.3-0.1-0.5-0.1-0.8-0.3c-0.2-0.1-0.4-0.3-0.6-0.5c-0.1-0.2-0.2-0.5-0.2-0.9
			c0-0.3,0.1-0.6,0.2-0.8c0.1-0.2,0.3-0.4,0.5-0.6c0.2-0.1,0.5-0.3,0.7-0.3c0.3-0.1,0.6-0.1,0.9-0.1h4.9v-4.8c0-0.2,0-0.5,0.1-0.8
			c0-0.3,0.1-0.5,0.3-0.8c0.1-0.2,0.3-0.4,0.6-0.6s0.5-0.2,0.9-0.2c0.3,0,0.6,0.1,0.8,0.2c0.2,0.1,0.4,0.3,0.6,0.5
			c0.1,0.2,0.3,0.5,0.3,0.8s0.1,0.6,0.1,0.9V161.1z"/>
	</g>
</g>
<g>
	<g>
		<path fill="#FFC6C5" d="M576.4,201.8h4.9c0.2,0,0.5,0,0.8,0.1c0.3,0.1,0.5,0.1,0.8,0.3s0.4,0.3,0.6,0.5c0.2,0.2,0.2,0.5,0.2,0.9
			c0,0.3-0.1,0.6-0.2,0.8s-0.3,0.4-0.5,0.6c-0.2,0.1-0.5,0.3-0.7,0.3c-0.3,0.1-0.6,0.1-0.9,0.1h-4.9v4.8c0,0.2,0,0.5-0.1,0.8
			c-0.1,0.3-0.1,0.5-0.3,0.8c-0.1,0.2-0.3,0.4-0.6,0.6c-0.2,0.1-0.5,0.2-0.9,0.2c-0.6,0-1.1-0.2-1.4-0.7c-0.3-0.4-0.4-1-0.4-1.7
			v-4.8h-4.9c-0.3,0-0.5,0-0.8-0.1c-0.3-0.1-0.5-0.1-0.8-0.3c-0.2-0.1-0.4-0.3-0.6-0.5c-0.1-0.2-0.2-0.5-0.2-0.9
			c0-0.3,0.1-0.6,0.2-0.8c0.1-0.2,0.3-0.4,0.5-0.6c0.2-0.1,0.5-0.3,0.7-0.3c0.3-0.1,0.6-0.1,0.9-0.1h4.9V197c0-0.2,0-0.5,0.1-0.8
			c0-0.3,0.1-0.5,0.3-0.8c0.1-0.2,0.3-0.4,0.6-0.6s0.5-0.2,0.9-0.2c0.3,0,0.6,0.1,0.8,0.2c0.2,0.1,0.4,0.3,0.6,0.5
			c0.1,0.2,0.3,0.5,0.3,0.8s0.1,0.6,0.1,0.9V201.8z"/>
	</g>
</g>
<g>
	<path fill="#18CFC8" d="M574.6,142.4c-4.5,0-8.2,3.7-8.2,8.2s3.7,8.2,8.2,8.2s8.2-3.7,8.2-8.2S579.1,142.4,574.6,142.4z
		 M574.4,153.1c-1.5,0-2.7-1.2-2.7-2.7s1.2-2.7,2.7-2.7s2.7,1.2,2.7,2.7S575.9,153.1,574.4,153.1z"/>
</g>
<g>
	<circle fill="#18CFC8" cx="156.7" cy="69" r="8"/>
</g>
<g>
	<path fill="#FFE400" d="M180.7,86.1c-4.5,0-8.2,3.7-8.2,8.2s3.7,8.2,8.2,8.2s8.2-3.7,8.2-8.2S185.3,86.1,180.7,86.1z M180.6,98
		c-2.1,0-3.8-1.7-3.8-3.8s1.7-3.8,3.8-3.8s3.8,1.7,3.8,3.8S182.7,98,180.6,98z"/>
</g>
<g>
	<path fill="#18CFC8" d="M87.6,118.4c-4.5,0-8.2,3.7-8.2,8.2c0,4.5,3.7,8.2,8.2,8.2s8.2-3.7,8.2-8.2C95.8,122,92.1,118.4,87.6,118.4
		z M87.4,129.1c-1.5,0-2.7-1.2-2.7-2.7s1.2-2.7,2.7-2.7c1.5,0,2.7,1.2,2.7,2.7S88.9,129.1,87.4,129.1z"/>
</g>
<g>
	<g>
		<path fill="#18CFC8" d="M130.7,106.1h4.9c0.2,0,0.5,0,0.8,0.1c0.3,0.1,0.5,0.1,0.8,0.3s0.4,0.3,0.6,0.5c0.2,0.2,0.2,0.5,0.2,0.9
			c0,0.3-0.1,0.6-0.2,0.8s-0.3,0.4-0.5,0.6c-0.2,0.1-0.5,0.3-0.7,0.3c-0.3,0.1-0.6,0.1-0.9,0.1h-4.9v4.8c0,0.2,0,0.5-0.1,0.8
			c-0.1,0.3-0.1,0.5-0.3,0.8c-0.1,0.2-0.3,0.4-0.6,0.6c-0.2,0.1-0.5,0.2-0.9,0.2c-0.6,0-1.1-0.2-1.4-0.7c-0.3-0.4-0.4-1-0.4-1.7
			v-4.8h-4.9c-0.3,0-0.5,0-0.8-0.1c-0.3-0.1-0.5-0.1-0.8-0.3c-0.2-0.1-0.4-0.3-0.6-0.5c-0.1-0.2-0.2-0.5-0.2-0.9
			c0-0.3,0.1-0.6,0.2-0.8c0.1-0.2,0.3-0.4,0.5-0.6c0.2-0.1,0.5-0.3,0.7-0.3c0.3-0.1,0.6-0.1,0.9-0.1h4.9v-4.8c0-0.2,0-0.5,0.1-0.8
			c0-0.3,0.1-0.5,0.3-0.8c0.1-0.2,0.3-0.4,0.6-0.6s0.5-0.2,0.9-0.2c0.3,0,0.6,0.1,0.8,0.2c0.2,0.1,0.4,0.3,0.6,0.5
			c0.1,0.2,0.3,0.5,0.3,0.8s0.1,0.6,0.1,0.9V106.1z"/>
	</g>
</g>
<g>
	<g>
		<path fill="#FFAE31" d="M87,164.3h4.9c0.2,0,0.5,0,0.8,0.1c0.3,0.1,0.5,0.1,0.8,0.3s0.4,0.3,0.6,0.5c0.2,0.2,0.2,0.5,0.2,0.9
			c0,0.3-0.1,0.6-0.2,0.8s-0.3,0.4-0.5,0.6c-0.2,0.1-0.5,0.3-0.7,0.3c-0.3,0.1-0.6,0.1-0.9,0.1H87v4.8c0,0.2,0,0.5-0.1,0.8
			c-0.1,0.3-0.1,0.5-0.3,0.8c-0.1,0.2-0.3,0.4-0.6,0.6c-0.2,0.1-0.5,0.2-0.9,0.2c-0.6,0-1.1-0.2-1.4-0.7c-0.3-0.4-0.4-1-0.4-1.7
			v-4.8h-4.9c-0.3,0-0.5,0-0.8-0.1c-0.3-0.1-0.5-0.1-0.8-0.3c-0.2-0.1-0.4-0.3-0.6-0.5c-0.1-0.2-0.2-0.5-0.2-0.9
			c0-0.3,0.1-0.6,0.2-0.8c0.1-0.2,0.3-0.4,0.5-0.6c0.2-0.1,0.5-0.3,0.7-0.3c0.3-0.1,0.6-0.1,0.9-0.1h4.9v-4.8c0-0.2,0-0.5,0.1-0.8
			c0-0.3,0.1-0.5,0.3-0.8c0.1-0.2,0.3-0.4,0.6-0.6s0.5-0.2,0.9-0.2c0.3,0,0.6,0.1,0.8,0.2c0.2,0.1,0.4,0.3,0.6,0.5
			c0.1,0.2,0.3,0.5,0.3,0.8s0.1,0.6,0.1,0.9V164.3z"/>
	</g>
</g>
</svg>
