<?xml version="1.0" encoding="utf-8"?>
<!-- Generator: Adobe Illustrator 18.1.1, SVG Export Plug-In . SVG Version: 6.00 Build 0)  -->
<svg version="1.1" id="Capa_1" xmlns="http://www.w3.org/2000/svg" xmlns:xlink="http://www.w3.org/1999/xlink" x="0px" y="0px"
	 viewBox="0 0 706 422" enable-background="new 0 0 706 422" xml:space="preserve">
<g>
	<g>
		<circle fill="#18CFC8" cx="200.7" cy="80" r="8"/>
	</g>
	<g>
		<circle fill="#FFC6C5" cx="583.3" cy="154.3" r="5.7"/>
	</g>
	<g>
		<circle fill="#18CFC8" cx="566.3" cy="199.3" r="5.7"/>
	</g>
	<g>
		<path fill="#FFE400" d="M224.7,97.1c-4.5,0-8.2,3.7-8.2,8.2s3.7,8.2,8.2,8.2s8.2-3.7,8.2-8.2S229.3,97.1,224.7,97.1z M224.6,109
			c-2.1,0-3.8-1.7-3.8-3.8s1.7-3.8,3.8-3.8s3.8,1.7,3.8,3.8S226.7,109,224.6,109z"/>
	</g>
	<g>
		<path fill="#18CFC8" d="M131.6,129.4c-4.5,0-8.2,3.7-8.2,8.2s3.7,8.2,8.2,8.2c4.5,0,8.2-3.7,8.2-8.2S136.1,129.4,131.6,129.4z
			 M131.4,140.1c-1.5,0-2.7-1.2-2.7-2.7s1.2-2.7,2.7-2.7s2.7,1.2,2.7,2.7S132.9,140.1,131.4,140.1z"/>
	</g>
	<g>
		<g>
			<path fill="#18CFC8" d="M174.7,117.1h4.9c0.2,0,0.5,0,0.8,0.1c0.3,0.1,0.5,0.1,0.8,0.3s0.4,0.3,0.6,0.5c0.2,0.2,0.2,0.5,0.2,0.9
				c0,0.3-0.1,0.6-0.2,0.8s-0.3,0.4-0.5,0.6c-0.2,0.1-0.5,0.3-0.7,0.3c-0.3,0.1-0.6,0.1-0.9,0.1h-4.9v4.8c0,0.2,0,0.5-0.1,0.8
				c-0.1,0.3-0.1,0.5-0.3,0.8c-0.1,0.2-0.3,0.4-0.6,0.6c-0.2,0.1-0.5,0.2-0.9,0.2c-0.6,0-1.1-0.2-1.4-0.7c-0.3-0.4-0.4-1-0.4-1.7
				v-4.8h-4.9c-0.3,0-0.5,0-0.8-0.1c-0.3-0.1-0.5-0.1-0.8-0.3c-0.2-0.1-0.4-0.3-0.6-0.5c-0.1-0.2-0.2-0.5-0.2-0.9
				c0-0.3,0.1-0.6,0.2-0.8c0.1-0.2,0.3-0.4,0.5-0.6c0.2-0.1,0.5-0.3,0.7-0.3c0.3-0.1,0.6-0.1,0.9-0.1h4.9v-4.8c0-0.2,0-0.5,0.1-0.8
				c0-0.3,0.1-0.5,0.3-0.8c0.1-0.2,0.3-0.4,0.6-0.6s0.5-0.2,0.9-0.2c0.3,0,0.6,0.1,0.8,0.2c0.2,0.1,0.4,0.3,0.6,0.5
				c0.1,0.2,0.3,0.5,0.3,0.8s0.1,0.6,0.1,0.9V117.1z"/>
		</g>
	</g>
	<g>
		<g>
			<path fill="#FFAE31" d="M131,175.3h4.9c0.2,0,0.5,0,0.8,0.1c0.3,0.1,0.5,0.1,0.8,0.3s0.4,0.3,0.6,0.5c0.2,0.2,0.2,0.5,0.2,0.9
				c0,0.3-0.1,0.6-0.2,0.8s-0.3,0.4-0.5,0.6c-0.2,0.1-0.5,0.3-0.7,0.3c-0.3,0.1-0.6,0.1-0.9,0.1H131v4.8c0,0.2,0,0.5-0.1,0.8
				c-0.1,0.3-0.1,0.5-0.3,0.8c-0.1,0.2-0.3,0.4-0.6,0.6c-0.2,0.1-0.5,0.2-0.9,0.2c-0.6,0-1.1-0.2-1.4-0.7c-0.3-0.4-0.4-1-0.4-1.7
				v-4.8h-4.9c-0.3,0-0.5,0-0.8-0.1c-0.3-0.1-0.5-0.1-0.8-0.3c-0.2-0.1-0.4-0.3-0.6-0.5c-0.1-0.2-0.2-0.5-0.2-0.9
				c0-0.3,0.1-0.6,0.2-0.8c0.1-0.2,0.3-0.4,0.5-0.6c0.2-0.1,0.5-0.3,0.7-0.3c0.3-0.1,0.6-0.1,0.9-0.1h4.9v-4.8c0-0.2,0-0.5,0.1-0.8
				c0-0.3,0.1-0.5,0.3-0.8c0.1-0.2,0.3-0.4,0.6-0.6s0.5-0.2,0.9-0.2c0.3,0,0.6,0.1,0.8,0.2c0.2,0.1,0.4,0.3,0.6,0.5
				c0.1,0.2,0.3,0.5,0.3,0.8s0.1,0.6,0.1,0.9V175.3z"/>
		</g>
	</g>
	<g>
		<g>
			<path fill="#FFE400" d="M511.4,72.1h4.9c0.2,0,0.5,0,0.8,0.1c0.3,0.1,0.5,0.1,0.8,0.3s0.4,0.3,0.6,0.5c0.2,0.2,0.2,0.5,0.2,0.9
				c0,0.3-0.1,0.6-0.2,0.8s-0.3,0.4-0.5,0.6c-0.2,0.1-0.5,0.3-0.7,0.3c-0.3,0.1-0.6,0.1-0.9,0.1h-4.9v4.8c0,0.2,0,0.5-0.1,0.8
				c-0.1,0.3-0.1,0.5-0.3,0.8c-0.1,0.2-0.3,0.4-0.6,0.6c-0.2,0.1-0.5,0.2-0.9,0.2c-0.6,0-1.1-0.2-1.4-0.7c-0.3-0.4-0.4-1-0.4-1.7
				v-4.8h-4.9c-0.3,0-0.5,0-0.8-0.1c-0.3-0.1-0.5-0.1-0.8-0.3c-0.2-0.1-0.4-0.3-0.6-0.5c-0.1-0.2-0.2-0.5-0.2-0.9
				c0-0.3,0.1-0.6,0.2-0.8c0.1-0.2,0.3-0.4,0.5-0.6c0.2-0.1,0.5-0.3,0.7-0.3c0.3-0.1,0.6-0.1,0.9-0.1h4.9v-4.8c0-0.2,0-0.5,0.1-0.8
				c0-0.3,0.1-0.5,0.3-0.8c0.1-0.2,0.3-0.4,0.6-0.6s0.5-0.2,0.9-0.2c0.3,0,0.6,0.1,0.8,0.2c0.2,0.1,0.4,0.3,0.6,0.5
				c0.1,0.2,0.3,0.5,0.3,0.8s0.1,0.6,0.1,0.9V72.1z"/>
		</g>
	</g>
	<g>
		<g>
			<path fill="#FFC6C5" d="M556.4,112.8h4.9c0.2,0,0.5,0,0.8,0.1c0.3,0.1,0.5,0.1,0.8,0.3s0.4,0.3,0.6,0.5c0.2,0.2,0.2,0.5,0.2,0.9
				c0,0.3-0.1,0.6-0.2,0.8s-0.3,0.4-0.5,0.6c-0.2,0.1-0.5,0.3-0.7,0.3c-0.3,0.1-0.6,0.1-0.9,0.1h-4.9v4.8c0,0.2,0,0.5-0.1,0.8
				c-0.1,0.3-0.1,0.5-0.3,0.8c-0.1,0.2-0.3,0.4-0.6,0.6c-0.2,0.1-0.5,0.2-0.9,0.2c-0.6,0-1.1-0.2-1.4-0.7c-0.3-0.4-0.4-1-0.4-1.7
				v-4.8h-4.9c-0.3,0-0.5,0-0.8-0.1c-0.3-0.1-0.5-0.1-0.8-0.3c-0.2-0.1-0.4-0.3-0.6-0.5c-0.1-0.2-0.2-0.5-0.2-0.9
				c0-0.3,0.1-0.6,0.2-0.8c0.1-0.2,0.3-0.4,0.5-0.6c0.2-0.1,0.5-0.3,0.7-0.3c0.3-0.1,0.6-0.1,0.9-0.1h4.9V108c0-0.2,0-0.5,0.1-0.8
				c0-0.3,0.1-0.5,0.3-0.8c0.1-0.2,0.3-0.4,0.6-0.6s0.5-0.2,0.9-0.2c0.3,0,0.6,0.1,0.8,0.2c0.2,0.1,0.4,0.3,0.6,0.5
				c0.1,0.2,0.3,0.5,0.3,0.8s0.1,0.6,0.1,0.9V112.8z"/>
		</g>
	</g>
	<g>
		<path fill="#18CFC8" d="M554.6,53.4c-4.5,0-8.2,3.7-8.2,8.2s3.7,8.2,8.2,8.2s8.2-3.7,8.2-8.2S559.1,53.4,554.6,53.4z M554.4,64.1
			c-1.5,0-2.7-1.2-2.7-2.7s1.2-2.7,2.7-2.7s2.7,1.2,2.7,2.7S555.9,64.1,554.4,64.1z"/>
	</g>
	<g>
		<path fill="#18CFC8" d="M497.6,320.2H200.2c-4.4,0-8-3.6-8-8V179c0-4.4,3.6-8,8-8h297.3c4.4,0,8,3.6,8,8v133.2
			C505.5,316.6,501.9,320.2,497.6,320.2z"/>
	</g>
</g>
<g>
	<polygon fill="#FFFFFF" points="300.2,299.8 300.7,274.1 366.6,208 392,233.4 326.1,299.5 	"/>
	<path fill="#4F5D77" d="M300.2,304c-1.1,0-2.1-0.6-2.8-1.3c-0.8-0.8-1.2-1.9-1.2-3l0.5-25.7c0-1,0.4-2,1.2-2.8l65.9-66.1
		c0.8-0.8,1.8-1.2,2.8-1.2c0,0,0,0,0,0c1.1,0,2.1,0.4,2.8,1.2l25.4,25.4c1.6,1.6,1.6,4.1,0,5.7l-66,66.1c-0.7,0.7-1.7,1.3-2.8,1.3
		L300.2,304C300.2,304,300.2,304,300.2,304z M304.7,275.8l-0.4,19.9l20.1-0.2l62-62.1l-19.7-19.7L304.7,275.8z"/>
</g>
<g>
	<path fill="#4F5D77" d="M520.4,341.8h-23c-3.3,0-6-2.7-6-6s2.7-6,6-6l23,0c3.3,0,6,2.7,6,6C526.4,339.1,523.7,341.8,520.4,341.8
		L520.4,341.8z M474.5,341.8h-22.9c-3.3,0-6-2.7-6-6s2.7-6,6-6h22.9c3.3,0,6,2.7,6,6S477.8,341.8,474.5,341.8z M428.8,341.8h-22.9
		c-3.3,0-6-2.7-6-6s2.7-6,6-6h22.9c3.3,0,6,2.7,6,6S432.1,341.8,428.8,341.8z M383,341.8h-22.9c-3.3,0-6-2.7-6-6s2.7-6,6-6H383
		c3.3,0,6,2.7,6,6S386.3,341.8,383,341.8z M337.3,341.8h-22.9c-3.3,0-6-2.7-6-6s2.7-6,6-6h22.9c3.3,0,6,2.7,6,6
		S340.6,341.8,337.3,341.8z M291.5,341.8h-22.9c-3.3,0-6-2.7-6-6s2.7-6,6-6h22.9c3.3,0,6,2.7,6,6S294.8,341.8,291.5,341.8z
		 M245.8,341.8h-22.9c-3.3,0-6-2.7-6-6s2.7-6,6-6h22.9c3.3,0,6,2.7,6,6S249.1,341.8,245.8,341.8z M200,341.8h-18.3
		c-2.9,0-5.7-1-8-2.7c-2.6-2-3.1-5.8-1-8.4c2-2.6,5.8-3.1,8.4-1c0.2,0.1,0.4,0.2,0.6,0.2H200c3.3,0,6,2.7,6,6S203.3,341.8,200,341.8
		z M527.3,322.9c-3.3,0-6-2.7-6-6V294c0-3.3,2.7-6,6-6s6,2.7,6,6v22.9C533.3,320.2,530.6,322.9,527.3,322.9z M174.8,318.3
		c-3.3,0-6-2.7-6-6v-22.9c0-3.3,2.7-6,6-6s6,2.7,6,6v22.9C180.8,315.6,178.1,318.3,174.8,318.3z M527.3,277.1c-3.3,0-6-2.7-6-6
		v-22.9c0-3.3,2.7-6,6-6s6,2.7,6,6v22.9C533.3,274.4,530.6,277.1,527.3,277.1z M174.8,272.6c-3.3,0-6-2.7-6-6v-22.9c0-3.3,2.7-6,6-6
		s6,2.7,6,6v22.9C180.8,269.9,178.1,272.6,174.8,272.6z M527.3,231.4c-3.3,0-6-2.7-6-6v-22.9c0-3.3,2.7-6,6-6s6,2.7,6,6v22.9
		C533.3,228.7,530.6,231.4,527.3,231.4z M174.8,226.8c-3.3,0-6-2.7-6-6V198c0-3.3,2.7-6,6-6s6,2.7,6,6v22.9
		C180.8,224.1,178.1,226.8,174.8,226.8z M527.3,185.6c-3.3,0-6-2.7-6-6v-16.5c0-0.4-0.3-0.7-0.4-0.8c-2.6-2-3.1-5.8-1.1-8.4
		c2-2.6,5.8-3.1,8.4-1.1c3.2,2.5,5.1,6.2,5.1,10.3v16.5C533.3,182.9,530.6,185.6,527.3,185.6z M174.8,181.1c-3.3,0-6-2.7-6-6v-11.9
		c0-7.1,5.8-12.9,12.9-13c0,0,0,0,0,0c3.3,0,6,2.7,6,6c0,3.3-2.7,6-6,6c-0.5,0-1,0.5-1,1v11.9C180.8,178.4,178.1,181.1,174.8,181.1z
		 M502,162.1h-22.9c-3.3,0-6-2.7-6-6s2.7-6,6-6H502c3.3,0,6,2.7,6,6S505.3,162.1,502,162.1z M456.2,162.1h-22.9c-3.3,0-6-2.7-6-6
		s2.7-6,6-6h22.9c3.3,0,6,2.7,6,6S459.5,162.1,456.2,162.1z M410.5,162.1h-22.9c-3.3,0-6-2.7-6-6s2.7-6,6-6h22.9c3.3,0,6,2.7,6,6
		S413.8,162.1,410.5,162.1z M364.7,162.1h-22.9c-3.3,0-6-2.7-6-6s2.7-6,6-6h22.9c3.3,0,6,2.7,6,6S368,162.1,364.7,162.1z M319,162.1
		h-22.9c-3.3,0-6-2.7-6-6s2.7-6,6-6H319c3.3,0,6,2.7,6,6S322.3,162.1,319,162.1z M273.2,162.1h-22.9c-3.3,0-6-2.7-6-6s2.7-6,6-6
		h22.9c3.3,0,6,2.7,6,6S276.5,162.1,273.2,162.1z M227.5,162.1h-22.9c-3.3,0-6-2.7-6-6s2.7-6,6-6h22.9c3.3,0,6,2.7,6,6
		S230.8,162.1,227.5,162.1z"/>
</g>
<g>
	<g>
		<polygon fill="#FFFFFF" points="375.1,199.6 390.2,184.4 415.3,209.5 400.2,224.7 		"/>
		<path fill="#4F5D77" d="M400.2,228.7c-1,0-2-0.4-2.8-1.2l-25.2-25c-0.8-0.7-1.2-1.8-1.2-2.8s0.4-2.1,1.2-2.8l15.2-15.2
			c0.8-0.8,1.8-1.2,2.8-1.2l0,0c1.1,0,2.1,0.4,2.8,1.2l25.1,25.1c1.6,1.6,1.6,4.1,0,5.7L403,227.5
			C402.3,228.3,401.2,228.7,400.2,228.7z M380.7,199.6l19.5,19.4l9.5-9.5l-19.4-19.4L380.7,199.6z"/>
	</g>
	<g>
		<path fill="#FFC6C5" d="M399.4,218.3l-17.8-17.8c-0.5-0.5-0.5-1.2,0-1.7l7.8-7.8c0.5-0.5,1.2-0.5,1.7,0l17.8,17.8
			c0.5,0.5,0.5,1.2,0,1.7l-7.8,7.8C400.7,218.7,399.9,218.7,399.4,218.3z"/>
	</g>
</g>
<g>
	<polygon fill="#FFE400" points="303.9,296.1 304.3,276.4 366.9,213.7 386.4,233.2 323.7,295.9 	"/>
</g>
<g>
	<path fill="#4F5D77" d="M303.1,287.2l9.7,9.8h-9.7C303.2,297,304.1,288.2,303.1,287.2z"/>
</g>
<g>
	<path fill="#FFA000" d="M311,281.8c-0.6,0-1.3-0.2-1.7-0.7c-1-1-1-2.5,0-3.5l58-59.3c1-1,2.5-1,3.5,0c1,1,1,2.5,0,3.5l-58,59.3
		C312.3,281.6,311.6,281.8,311,281.8z"/>
</g>
<g>
	<path fill="#FFA000" d="M321,290.8c-0.6,0-1.3-0.2-1.7-0.7c-1-1-1-2.5,0-3.5l58-59.3c1-1,2.5-1,3.5,0c1,1,1,2.5,0,3.5l-58,59.3
		C322.3,290.6,321.6,290.8,321,290.8z"/>
</g>
</svg>
