<?xml version="1.0" encoding="utf-8"?>
<!-- Generator: Adobe Illustrator 18.1.1, SVG Export Plug-In . SVG Version: 6.00 Build 0)  -->
<svg version="1.1" id="Capa_1" xmlns="http://www.w3.org/2000/svg" xmlns:xlink="http://www.w3.org/1999/xlink" x="0px" y="0px"
	 viewBox="0 0 706 422" enable-background="new 0 0 706 422" xml:space="preserve">
<g>
	<g>
		<polygon fill="#18CFC8" points="293,296 293,250 253.5,250 314.8,188.7 373.1,250 334,250 334,296 		"/>
		<path fill="#4F5D77" d="M334,302h-41c-3.3,0-6-2.7-6-6v-40h-33.5c-2.4,0-4.6-1.5-5.5-3.7c-0.9-2.2-0.4-4.8,1.3-6.5l61.3-61.3
			c1.1-1.1,2.7-1.8,4.3-1.8c1.6,0,3.2,0.7,4.3,1.9l58.3,61.3c1.7,1.7,2.1,4.3,1.2,6.5c-0.9,2.2-3.1,3.6-5.5,3.6H340v40
			C340,299.3,337.3,302,334,302z M299,290h29v-40c0-3.3,2.7-6,6-6h25.1l-44.5-46.7L268,244h25c3.3,0,6,2.7,6,6V290z"/>
	</g>
	<g>
		<path fill="none" stroke="#000000" stroke-miterlimit="10" d="M245,267.5"/>
	</g>
	<g>
		<path fill="none" stroke="#000000" stroke-miterlimit="10" d="M169,267.5"/>
	</g>
	<g>
		<line fill="#FFFFFF" x1="254" y1="317" x2="373" y2="317"/>
		<path fill="#4F5D77" d="M373,323H254c-3.3,0-6-2.7-6-6s2.7-6,6-6h119c3.3,0,6,2.7,6,6S376.3,323,373,323z"/>
	</g>
	<g>
		<polygon fill="#FF8082" points="422,126 422,172 461.1,172 399.8,233.3 341.5,172 381,172 381,126 		"/>
		<path fill="#4F5D77" d="M399.8,239C399.8,239,399.8,239,399.8,239c-1.7,0-3.2-0.5-4.3-1.7l-58.3-61.2c-1.7-1.7-2.1-4.3-1.2-6.5
			c0.9-2.2,3.1-3.6,5.5-3.6H375v-40c0-3.3,2.7-6,6-6h41c3.3,0,6,2.7,6,6v40h33.1c2.4,0,4.6,1.5,5.5,3.7c0.9,2.2,0.4,4.8-1.3,6.5
			l-61.3,61.2C403,238.5,401.4,239,399.8,239z M355.5,178l44.5,46.7l46.7-46.7H422c-3.3,0-6-2.7-6-6v-40h-29v40c0,3.3-2.7,6-6,6
			H355.5z"/>
	</g>
	<g>
		<line fill="#FFFFFF" x1="461" y1="105" x2="342" y2="105"/>
		<path fill="#4F5D77" d="M461,111H342c-3.3,0-6-2.7-6-6s2.7-6,6-6h119c3.3,0,6,2.7,6,6S464.3,111,461,111z"/>
	</g>
	<g>
		<g>
			<circle fill="#18CFC8" cx="259.7" cy="108" r="8"/>
		</g>
		<g>
			<path fill="#FFE400" d="M283.7,125.1c-4.5,0-8.2,3.7-8.2,8.2s3.7,8.2,8.2,8.2s8.2-3.7,8.2-8.2S288.3,125.1,283.7,125.1z
				 M283.6,137c-2.1,0-3.8-1.7-3.8-3.8s1.7-3.8,3.8-3.8s3.8,1.7,3.8,3.8S285.7,137,283.6,137z"/>
		</g>
		<g>
			<path fill="#18CFC8" d="M190.6,157.4c-4.5,0-8.2,3.7-8.2,8.2s3.7,8.2,8.2,8.2s8.2-3.7,8.2-8.2S195.1,157.4,190.6,157.4z
				 M190.4,168.1c-1.5,0-2.7-1.2-2.7-2.7s1.2-2.7,2.7-2.7s2.7,1.2,2.7,2.7S191.9,168.1,190.4,168.1z"/>
		</g>
		<g>
			<g>
				<path fill="#18CFC8" d="M233.7,145.1h4.9c0.2,0,0.5,0,0.8,0.1c0.3,0.1,0.5,0.1,0.8,0.3s0.4,0.3,0.6,0.5c0.2,0.2,0.2,0.5,0.2,0.9
					c0,0.3-0.1,0.6-0.2,0.8s-0.3,0.4-0.5,0.6c-0.2,0.1-0.5,0.3-0.7,0.3c-0.3,0.1-0.6,0.1-0.9,0.1h-4.9v4.8c0,0.2,0,0.5-0.1,0.8
					c-0.1,0.3-0.1,0.5-0.3,0.8c-0.1,0.2-0.3,0.4-0.6,0.6c-0.2,0.1-0.5,0.2-0.9,0.2c-0.6,0-1.1-0.2-1.4-0.7c-0.3-0.4-0.4-1-0.4-1.7
					v-4.8h-4.9c-0.3,0-0.5,0-0.8-0.1c-0.3-0.1-0.5-0.1-0.8-0.3c-0.2-0.1-0.4-0.3-0.6-0.5c-0.1-0.2-0.2-0.5-0.2-0.9
					c0-0.3,0.1-0.6,0.2-0.8c0.1-0.2,0.3-0.4,0.5-0.6c0.2-0.1,0.5-0.3,0.7-0.3c0.3-0.1,0.6-0.1,0.9-0.1h4.9v-4.8c0-0.2,0-0.5,0.1-0.8
					c0-0.3,0.1-0.5,0.3-0.8c0.1-0.2,0.3-0.4,0.6-0.6s0.5-0.2,0.9-0.2c0.3,0,0.6,0.1,0.8,0.2c0.2,0.1,0.4,0.3,0.6,0.5
					c0.1,0.2,0.3,0.5,0.3,0.8s0.1,0.6,0.1,0.9V145.1z"/>
			</g>
		</g>
		<g>
			<g>
				<path fill="#FFAE31" d="M190,203.3h4.9c0.2,0,0.5,0,0.8,0.1c0.3,0.1,0.5,0.1,0.8,0.3s0.4,0.3,0.6,0.5c0.2,0.2,0.2,0.5,0.2,0.9
					c0,0.3-0.1,0.6-0.2,0.8s-0.3,0.4-0.5,0.6c-0.2,0.1-0.5,0.3-0.7,0.3c-0.3,0.1-0.6,0.1-0.9,0.1H190v4.8c0,0.2,0,0.5-0.1,0.8
					c-0.1,0.3-0.1,0.5-0.3,0.8c-0.1,0.2-0.3,0.4-0.6,0.6c-0.2,0.1-0.5,0.2-0.9,0.2c-0.6,0-1.1-0.2-1.4-0.7c-0.3-0.4-0.4-1-0.4-1.7
					v-4.8h-4.9c-0.3,0-0.5,0-0.8-0.1c-0.3-0.1-0.5-0.1-0.8-0.3c-0.2-0.1-0.4-0.3-0.6-0.5c-0.1-0.2-0.2-0.5-0.2-0.9
					c0-0.3,0.1-0.6,0.2-0.8c0.1-0.2,0.3-0.4,0.5-0.6c0.2-0.1,0.5-0.3,0.7-0.3c0.3-0.1,0.6-0.1,0.9-0.1h4.9v-4.8c0-0.2,0-0.5,0.1-0.8
					c0-0.3,0.1-0.5,0.3-0.8c0.1-0.2,0.3-0.4,0.6-0.6s0.5-0.2,0.9-0.2c0.3,0,0.6,0.1,0.8,0.2c0.2,0.1,0.4,0.3,0.6,0.5
					c0.1,0.2,0.3,0.5,0.3,0.8s0.1,0.6,0.1,0.9V203.3z"/>
			</g>
		</g>
	</g>
	<g>
		<g>
			<circle fill="#FFC6C5" cx="531.3" cy="205" r="5.7"/>
		</g>
		<g>
			<circle fill="#18CFC8" cx="514.3" cy="160" r="5.7"/>
		</g>
		<g>
			<g>
				<path fill="#FFE400" d="M459.4,292.1c0,0.3,0,0.6-0.1,0.9s-0.2,0.5-0.3,0.8c-0.1,0.2-0.3,0.4-0.6,0.5c-0.2,0.1-0.5,0.2-0.8,0.2
					c-0.4,0-0.7-0.1-0.9-0.2s-0.4-0.3-0.6-0.6c-0.1-0.2-0.2-0.5-0.3-0.8c0-0.3-0.1-0.5-0.1-0.8v-4.8h-4.9c-0.3,0-0.6,0-0.9-0.1
					c-0.3-0.1-0.5-0.2-0.7-0.3c-0.2-0.1-0.4-0.3-0.5-0.6c-0.1-0.2-0.2-0.5-0.2-0.8c0-0.4,0.1-0.7,0.2-0.9c0.1-0.2,0.3-0.4,0.6-0.5
					c0.2-0.1,0.5-0.2,0.8-0.3c0.3-0.1,0.5-0.1,0.8-0.1h4.9V279c0-0.7,0.1-1.2,0.4-1.7c0.3-0.4,0.7-0.7,1.4-0.7
					c0.4,0,0.7,0.1,0.9,0.2c0.2,0.1,0.4,0.3,0.6,0.6c0.1,0.2,0.2,0.5,0.3,0.8c0.1,0.3,0.1,0.5,0.1,0.8v4.8h4.9c0.3,0,0.6,0,0.9,0.1
					c0.3,0.1,0.5,0.2,0.7,0.3c0.2,0.1,0.4,0.3,0.5,0.6s0.2,0.5,0.2,0.8c0,0.4-0.1,0.6-0.2,0.9c-0.2,0.2-0.3,0.4-0.6,0.5
					s-0.5,0.2-0.8,0.3c-0.3,0.1-0.5,0.1-0.8,0.1h-4.9V292.1z"/>
			</g>
		</g>
		<g>
			<g>
				<path fill="#FFC6C5" d="M504.4,251.4c0,0.3,0,0.6-0.1,0.9s-0.2,0.5-0.3,0.8c-0.1,0.2-0.3,0.4-0.6,0.5c-0.2,0.1-0.5,0.2-0.8,0.2
					c-0.4,0-0.7-0.1-0.9-0.2s-0.4-0.3-0.6-0.6c-0.1-0.2-0.2-0.5-0.3-0.8c0-0.3-0.1-0.5-0.1-0.8v-4.8h-4.9c-0.3,0-0.6,0-0.9-0.1
					c-0.3-0.1-0.5-0.2-0.7-0.3c-0.2-0.1-0.4-0.3-0.5-0.6c-0.1-0.2-0.2-0.5-0.2-0.8c0-0.4,0.1-0.7,0.2-0.9c0.1-0.2,0.3-0.4,0.6-0.5
					c0.2-0.1,0.5-0.2,0.8-0.3c0.3-0.1,0.5-0.1,0.8-0.1h4.9v-4.8c0-0.7,0.1-1.2,0.4-1.7c0.3-0.4,0.7-0.7,1.4-0.7
					c0.4,0,0.7,0.1,0.9,0.2c0.2,0.1,0.4,0.3,0.6,0.6c0.1,0.2,0.2,0.5,0.3,0.8c0.1,0.3,0.1,0.5,0.1,0.8v4.8h4.9c0.3,0,0.6,0,0.9,0.1
					c0.3,0.1,0.5,0.2,0.7,0.3c0.2,0.1,0.4,0.3,0.5,0.6s0.2,0.5,0.2,0.8c0,0.4-0.1,0.6-0.2,0.9c-0.2,0.2-0.3,0.4-0.6,0.5
					s-0.5,0.2-0.8,0.3c-0.3,0.1-0.5,0.1-0.8,0.1h-4.9V251.4z"/>
			</g>
		</g>
		<g>
			<path fill="#18CFC8" d="M510.8,297.8c0-4.5-3.7-8.2-8.2-8.2s-8.2,3.7-8.2,8.2s3.7,8.2,8.2,8.2S510.8,302.3,510.8,297.8z
				 M505.1,297.9c0,1.5-1.2,2.7-2.7,2.7s-2.7-1.2-2.7-2.7s1.2-2.7,2.7-2.7S505.1,296.4,505.1,297.9z"/>
		</g>
	</g>
</g>
</svg>
