<?xml version="1.0" encoding="utf-8"?>
<!-- Generator: Adobe Illustrator 18.1.1, SVG Export Plug-In . SVG Version: 6.00 Build 0)  -->
<svg version="1.1" id="Capa_1" xmlns="http://www.w3.org/2000/svg" xmlns:xlink="http://www.w3.org/1999/xlink" x="0px" y="0px"
	 viewBox="0 0 706 422" enable-background="new 0 0 706 422" xml:space="preserve">
<g>
	<g>
		<g>
			<path fill="#18CFC8" d="M346.9,155.6c-1.5,0.1-3.5,0.2-6.2,0.4c-2.7,0.2-5.5,0.5-8.3,0.9c-0.4,0.1-0.8,0.1-1.2,0.1
				c-0.4,0-0.8,0-1.2,0c-4.2,0-7.6-1.4-10.3-4.3c-2.7-2.9-4-6.6-4-11.4c0-3,1-5.9,3-8.7c2-2.8,5.2-4.9,9.5-6.2
				c6.4-1.9,12.9-3.2,19.6-4c6.7-0.8,13.2-1.2,19.4-1.2c7.9,0,15.4,0.9,22.6,2.8c7.1,1.9,13.4,4.8,18.7,8.8c5.3,4,9.5,9.1,12.7,15.3
				c3.1,6.2,4.7,13.6,4.7,22.3c-0.2,5.7-1.2,10.8-3.2,15.4c-2,4.6-4.5,8.8-7.5,12.6c-3,3.8-6.3,7.4-10,10.6
				c-3.7,3.3-7.3,6.4-10.9,9.5c-2.5,2.2-4.8,4.2-6.8,5.9c-2,1.7-3.8,3.4-5.1,5c-1.4,1.6-2.5,3.2-3.3,4.8c-0.8,1.6-1.3,3.5-1.3,5.5
				c0,2.2-0.3,4.5-0.9,6.8c-0.6,2.4-1.7,4.6-3.2,6.6c-1.5,2-3.5,3.7-6.1,5c-2.5,1.3-5.7,2-9.4,2c-5.1-0.4-9.1-2.1-12-5
				c-2.9-2.9-4.3-7.7-4.3-14.4v-6c0.2-5,1.5-9.4,3.9-13.4c2.3-4,5.1-7.6,8.2-10.9c3.1-3.3,6.4-6.4,9.8-9.2c3.4-2.8,6.2-5.6,8.5-8.5
				c2.3-2.9,4.2-5.9,5.7-9.1c1.5-3.2,2.3-6.5,2.3-9.9c0-3.5-0.6-6.5-1.9-8.9c-1.3-2.4-2.9-4.4-5-6c-2.1-1.5-4.5-2.6-7.2-3.3
				c-2.7-0.7-5.5-1-8.4-1c-1.6,0-3.3,0.1-5.1,0.2C350.6,155.2,348.7,155.4,346.9,155.6z M338.9,293.4c0-2.6,0.5-5.1,1.5-7.5
				c1-2.4,2.4-4.5,4.2-6.4c1.8-1.8,4-3.3,6.5-4.4c2.5-1.1,5.3-1.7,8.4-1.7c2.7,0,5.3,0.5,7.8,1.5c2.5,1,4.7,2.3,6.6,4.1
				c1.9,1.8,3.4,3.9,4.6,6.3c1.1,2.4,1.7,5.1,1.7,8.1c0,2.8-0.5,5.4-1.6,7.8c-1.1,2.4-2.5,4.6-4.3,6.4c-1.8,1.8-4,3.3-6.5,4.3
				c-2.5,1.1-5.3,1.6-8.2,1.6s-5.7-0.5-8.2-1.6c-2.5-1.1-4.7-2.5-6.5-4.3c-1.8-1.8-3.3-4-4.3-6.4
				C339.4,298.8,338.9,296.2,338.9,293.4z"/>
			<path fill="#4F5D77" d="M359.6,319.1c-3.7,0-7.1-0.7-10.3-2c-3.2-1.3-6-3.2-8.3-5.5c-2.3-2.3-4.2-5.1-5.5-8.1
				c-1.4-3.1-2-6.5-2-10c0-3.3,0.6-6.5,1.9-9.6c1.3-3.1,3.1-5.8,5.4-8.2c2.3-2.3,5.1-4.2,8.2-5.6c3.2-1.4,6.8-2.1,10.6-2.1
				c3.4,0,6.7,0.6,9.8,1.8c3.1,1.2,5.9,3,8.3,5.2c2.4,2.2,4.4,4.9,5.9,8c1.5,3.2,2.2,6.7,2.2,10.4c0,3.5-0.7,6.9-2,10
				c-1.3,3.1-3.2,5.8-5.5,8.1c-2.3,2.3-5.1,4.2-8.3,5.5C366.7,318.4,363.2,319.1,359.6,319.1z M359.6,279c-2.3,0-4.4,0.4-6.2,1.2
				c-1.9,0.8-3.5,1.9-4.9,3.3c-1.3,1.3-2.3,2.8-3,4.5c-0.7,1.8-1.1,3.5-1.1,5.5c0,2,0.4,3.9,1.1,5.6c0.8,1.8,1.8,3.4,3.2,4.7
				c1.3,1.3,2.9,2.4,4.8,3.2c1.9,0.8,3.9,1.2,6.1,1.2c2.2,0,4.2-0.4,6.1-1.2c1.9-0.8,3.4-1.8,4.8-3.2c1.4-1.4,2.4-2.9,3.2-4.7
				c0.8-1.8,1.1-3.6,1.1-5.6c0-2.1-0.4-4-1.2-5.8c-0.8-1.8-1.9-3.3-3.3-4.6c-1.4-1.3-3-2.3-4.9-3C363.5,279.3,361.6,279,359.6,279z
				 M357.9,265.8c-0.1,0-0.3,0-0.4,0c-6.5-0.5-11.7-2.8-15.5-6.7c-3.9-4-5.8-10-5.8-18.3v-6c0-0.1,0-0.2,0-0.3
				c0.3-5.8,1.8-11.2,4.6-15.9c2.5-4.3,5.5-8.3,8.9-11.9c3.3-3.4,6.7-6.7,10.3-9.6c3.1-2.6,5.7-5.2,7.7-7.7c2-2.5,3.7-5.2,5.1-8
				c1.2-2.4,1.8-4.9,1.8-7.5c0-2.6-0.4-4.8-1.3-6.4c-0.9-1.7-2-3.1-3.4-4.1c-1.5-1.1-3.2-1.9-5.2-2.4c-2.3-0.5-4.7-0.8-7.1-0.8
				c-1.5,0-3,0.1-4.6,0.2c-1.8,0.2-3.5,0.4-5.3,0.6c-0.1,0-0.3,0-0.4,0c-1.4,0.1-3.5,0.2-6.1,0.4c-2.5,0.2-5.2,0.5-7.8,0.9
				c-0.7,0.1-1.4,0.2-2.1,0.2h-1.2c-5.6,0-10.6-2.1-14.3-6c-3.7-3.9-5.5-9-5.5-15.1c0-4.2,1.3-8.2,4-11.9c2.7-3.8,6.9-6.6,12.4-8.2
				c6.7-2,13.6-3.4,20.6-4.2c6.9-0.8,13.6-1.2,20-1.2c8.3,0,16.4,1,24,3c7.8,2.1,14.7,5.3,20.6,9.7c6,4.5,10.7,10.3,14.3,17.2
				c3.5,6.9,5.3,15.3,5.3,24.7c0,0.1,0,0.1,0,0.2c-0.2,6.4-1.4,12.3-3.7,17.5c-2.2,5-4.9,9.6-8.2,13.8c-3.2,4.1-6.8,7.9-10.7,11.4
				c-3.7,3.3-7.4,6.5-10.9,9.6c-2.5,2.2-4.8,4.2-6.9,5.9c-1.8,1.5-3.3,3-4.5,4.4c-1.1,1.2-1.9,2.5-2.5,3.7c-0.5,0.9-0.7,2-0.8,3.2
				c0,2.6-0.4,5.3-1.1,8.1c-0.8,3-2.2,5.9-4.1,8.5c-2,2.7-4.7,4.9-8,6.6C366.5,264.9,362.5,265.8,357.9,265.8z M347.1,235v5.9
				c0,5.1,0.9,8.8,2.7,10.6c1.9,1.9,4.6,3,8.3,3.4c2.8,0,5-0.5,6.7-1.3c1.8-0.9,3.2-2,4.2-3.4c1.1-1.5,1.8-3,2.3-4.7
				c0.5-1.9,0.7-3.7,0.7-5.5c0-0.1,0-0.1,0-0.2c0.1-2.8,0.8-5.4,1.9-7.7c1-2,2.4-4,4.1-6c1.6-1.8,3.5-3.7,5.7-5.5
				c2-1.7,4.3-3.7,6.8-5.8c3.6-3.1,7.2-6.3,10.8-9.5c3.4-3,6.5-6.4,9.3-9.9c2.7-3.5,5-7.3,6.8-11.4c1.7-3.9,2.6-8.3,2.8-13.3
				c0-7.7-1.4-14.3-4.1-19.7c-2.7-5.4-6.5-9.9-11.1-13.4c-4.7-3.5-10.3-6.2-16.7-7.9c-6.7-1.7-13.8-2.6-21.2-2.6
				c-6,0-12.3,0.4-18.8,1.1c-6.4,0.7-12.7,2-18.7,3.8c-3.1,0.9-5.3,2.3-6.6,4.1c-1.3,1.9-2,3.7-2,5.6c0,3.3,0.8,5.8,2.5,7.6
				c1.6,1.7,3.6,2.6,6.3,2.6h1.2c0,0,0.1,0,0.1,0c0.1,0,0.2,0,0.3-0.1c3-0.4,5.9-0.7,8.7-1c2.6-0.2,4.7-0.3,6.1-0.4
				c1.8-0.2,3.7-0.4,5.5-0.6c2-0.2,3.9-0.3,5.6-0.3c3.4,0,6.6,0.4,9.7,1.1c3.4,0.8,6.5,2.2,9.1,4.2c2.7,2,5,4.7,6.6,7.9
				c1.7,3.2,2.5,7.1,2.5,11.4c0,4.2-1,8.4-2.9,12.3c-1.7,3.5-3.9,6.9-6.4,10.1c-2.5,3.1-5.6,6.2-9.3,9.3c-3.2,2.7-6.3,5.6-9.3,8.7
				c-2.8,3-5.3,6.3-7.4,9.9C348.3,227.4,347.3,230.9,347.1,235z"/>
		</g>
	</g>
	<g>
		<g>
			<circle fill="#18CFC8" cx="320.7" cy="56.1" r="7.3"/>
		</g>
		<g>
			<path fill="#FFE400" d="M342.6,71.8c-4.1,0-7.5,3.3-7.5,7.5s3.3,7.5,7.5,7.5s7.5-3.3,7.5-7.5S346.8,71.8,342.6,71.8z M342.5,82.6
				c-1.9,0-3.5-1.6-3.5-3.5c0-1.9,1.6-3.5,3.5-3.5s3.5,1.6,3.5,3.5C346,81.1,344.4,82.6,342.5,82.6z"/>
		</g>
		<g>
			<path fill="#18CFC8" d="M257.6,101.2c-4.1,0-7.5,3.3-7.5,7.5s3.3,7.5,7.5,7.5s7.5-3.3,7.5-7.5S261.7,101.2,257.6,101.2z
				 M257.4,111.1c-1.4,0-2.5-1.1-2.5-2.5c0-1.4,1.1-2.5,2.5-2.5s2.5,1.1,2.5,2.5C259.9,110,258.8,111.1,257.4,111.1z"/>
		</g>
		<g>
			<g>
				<path fill="#18CFC8" d="M297,90h4.5c0.2,0,0.5,0,0.7,0.1c0.3,0,0.5,0.1,0.7,0.2c0.2,0.1,0.4,0.3,0.5,0.5
					c0.1,0.2,0.2,0.5,0.2,0.8c0,0.3-0.1,0.5-0.2,0.7c-0.1,0.2-0.3,0.4-0.5,0.5c-0.2,0.1-0.4,0.2-0.7,0.3c-0.3,0.1-0.5,0.1-0.8,0.1
					H297v4.4c0,0.2,0,0.5-0.1,0.7c0,0.3-0.1,0.5-0.2,0.7c-0.1,0.2-0.3,0.4-0.5,0.5c-0.2,0.1-0.5,0.2-0.8,0.2c-0.6,0-1-0.2-1.3-0.6
					c-0.3-0.4-0.4-0.9-0.4-1.5v-4.4h-4.5c-0.2,0-0.5,0-0.7-0.1c-0.3,0-0.5-0.1-0.7-0.2c-0.2-0.1-0.4-0.3-0.5-0.5
					c-0.1-0.2-0.2-0.5-0.2-0.8c0-0.3,0.1-0.5,0.2-0.7c0.1-0.2,0.3-0.4,0.5-0.5c0.2-0.1,0.4-0.2,0.7-0.3c0.3-0.1,0.5-0.1,0.8-0.1h4.5
					v-4.4c0-0.2,0-0.5,0.1-0.7c0-0.3,0.1-0.5,0.2-0.7c0.1-0.2,0.3-0.4,0.5-0.5c0.2-0.1,0.5-0.2,0.8-0.2c0.3,0,0.6,0.1,0.8,0.2
					c0.2,0.1,0.4,0.3,0.5,0.5c0.1,0.2,0.2,0.4,0.3,0.7s0.1,0.5,0.1,0.8V90z"/>
			</g>
		</g>
		<g>
			<g>
				<path fill="#FFAE31" d="M257,143.2h4.5c0.2,0,0.5,0,0.7,0.1c0.3,0,0.5,0.1,0.7,0.2c0.2,0.1,0.4,0.3,0.5,0.5
					c0.1,0.2,0.2,0.5,0.2,0.8c0,0.3-0.1,0.5-0.2,0.7c-0.1,0.2-0.3,0.4-0.5,0.5c-0.2,0.1-0.4,0.2-0.7,0.3c-0.3,0.1-0.5,0.1-0.8,0.1
					H257v4.4c0,0.2,0,0.5-0.1,0.7c0,0.3-0.1,0.5-0.2,0.7c-0.1,0.2-0.3,0.4-0.5,0.5c-0.2,0.1-0.5,0.2-0.8,0.2c-0.6,0-1-0.2-1.3-0.6
					c-0.3-0.4-0.4-0.9-0.4-1.5v-4.4h-4.5c-0.2,0-0.5,0-0.7-0.1c-0.3,0-0.5-0.1-0.7-0.2c-0.2-0.1-0.4-0.3-0.5-0.5
					c-0.1-0.2-0.2-0.5-0.2-0.8c0-0.3,0.1-0.5,0.2-0.7c0.1-0.2,0.3-0.4,0.5-0.5c0.2-0.1,0.4-0.2,0.7-0.3c0.3-0.1,0.5-0.1,0.8-0.1h4.5
					v-4.4c0-0.2,0-0.5,0.1-0.7c0-0.3,0.1-0.5,0.2-0.7c0.1-0.2,0.3-0.4,0.5-0.5c0.2-0.1,0.5-0.2,0.8-0.2c0.3,0,0.6,0.1,0.8,0.2
					c0.2,0.1,0.4,0.3,0.5,0.5c0.1,0.2,0.2,0.4,0.3,0.7c0.1,0.3,0.1,0.5,0.1,0.8V143.2z"/>
			</g>
		</g>
	</g>
	<g>
		<g>
			<circle fill="#FFC6C5" cx="453.8" cy="280.9" r="5.2"/>
		</g>
		<g>
			<circle fill="#18CFC8" cx="438.2" cy="239.8" r="5.2"/>
		</g>
		<g>
			<g>
				<path fill="#FFE400" d="M388,360.5c0,0.3,0,0.5-0.1,0.8s-0.2,0.5-0.3,0.7c-0.1,0.2-0.3,0.4-0.5,0.5c-0.2,0.1-0.5,0.2-0.8,0.2
					c-0.3,0-0.6-0.1-0.8-0.2s-0.4-0.3-0.5-0.5c-0.1-0.2-0.2-0.4-0.2-0.7c0-0.3-0.1-0.5-0.1-0.7v-4.4h-4.5c-0.3,0-0.6,0-0.8-0.1
					c-0.3-0.1-0.5-0.2-0.7-0.3c-0.2-0.1-0.3-0.3-0.5-0.5c-0.1-0.2-0.2-0.4-0.2-0.7c0-0.3,0.1-0.6,0.2-0.8c0.1-0.2,0.3-0.4,0.5-0.5
					c0.2-0.1,0.4-0.2,0.7-0.2c0.3,0,0.5-0.1,0.7-0.1h4.5v-4.4c0-0.6,0.1-1.1,0.4-1.5c0.3-0.4,0.7-0.6,1.3-0.6c0.3,0,0.6,0.1,0.8,0.2
					c0.2,0.1,0.4,0.3,0.5,0.5c0.1,0.2,0.2,0.4,0.2,0.7c0,0.3,0.1,0.5,0.1,0.7v4.4h4.5c0.3,0,0.5,0,0.8,0.1c0.3,0.1,0.5,0.2,0.7,0.3
					c0.2,0.1,0.4,0.3,0.5,0.5c0.1,0.2,0.2,0.5,0.2,0.7c0,0.3-0.1,0.6-0.2,0.8c-0.1,0.2-0.3,0.4-0.5,0.5c-0.2,0.1-0.4,0.2-0.7,0.2
					c-0.3,0-0.5,0.1-0.7,0.1H388V360.5z"/>
			</g>
		</g>
		<g>
			<g>
				<path fill="#FFC6C5" d="M429.1,323.3c0,0.3,0,0.5-0.1,0.8c-0.1,0.3-0.2,0.5-0.3,0.7c-0.1,0.2-0.3,0.4-0.5,0.5
					c-0.2,0.1-0.5,0.2-0.8,0.2c-0.3,0-0.6-0.1-0.8-0.2c-0.2-0.1-0.4-0.3-0.5-0.5c-0.1-0.2-0.2-0.4-0.2-0.7c0-0.3-0.1-0.5-0.1-0.7
					v-4.4h-4.5c-0.3,0-0.6,0-0.8-0.1c-0.3-0.1-0.5-0.2-0.7-0.3c-0.2-0.1-0.3-0.3-0.5-0.5c-0.1-0.2-0.2-0.4-0.2-0.7
					c0-0.3,0.1-0.6,0.2-0.8c0.1-0.2,0.3-0.4,0.5-0.5c0.2-0.1,0.4-0.2,0.7-0.2c0.3,0,0.5-0.1,0.7-0.1h4.5v-4.4c0-0.6,0.1-1.1,0.4-1.5
					c0.3-0.4,0.7-0.6,1.3-0.6c0.3,0,0.6,0.1,0.8,0.2c0.2,0.1,0.4,0.3,0.5,0.5c0.1,0.2,0.2,0.4,0.2,0.7c0,0.3,0.1,0.5,0.1,0.7v4.4
					h4.5c0.3,0,0.5,0,0.8,0.1c0.3,0.1,0.5,0.2,0.7,0.3c0.2,0.1,0.4,0.3,0.5,0.5c0.1,0.2,0.2,0.5,0.2,0.7c0,0.3-0.1,0.6-0.2,0.8
					c-0.1,0.2-0.3,0.4-0.5,0.5s-0.4,0.2-0.7,0.2c-0.3,0-0.5,0.1-0.7,0.1h-4.5V323.3z"/>
			</g>
		</g>
		<g>
			<path fill="#18CFC8" d="M435,365.7c0-4.1-3.3-7.5-7.5-7.5s-7.5,3.3-7.5,7.5s3.3,7.5,7.5,7.5S435,369.8,435,365.7z M429.8,365.8
				c0,1.4-1.1,2.5-2.5,2.5c-1.4,0-2.5-1.1-2.5-2.5s1.1-2.5,2.5-2.5C428.7,363.3,429.8,364.5,429.8,365.8z"/>
		</g>
	</g>
</g>
</svg>
