<?xml version="1.0" encoding="utf-8"?>
<!-- Generator: Adobe Illustrator 18.1.1, SVG Export Plug-In . SVG Version: 6.00 Build 0)  -->
<svg version="1.1" id="Capa_1" xmlns="http://www.w3.org/2000/svg" xmlns:xlink="http://www.w3.org/1999/xlink" x="0px" y="0px"
	 viewBox="0 0 706 422" enable-background="new 0 0 706 422" xml:space="preserve">
<g>
	<circle fill="#18CFC8" cx="196.7" cy="64" r="8"/>
	<circle fill="#FFC6C5" cx="579.3" cy="138.3" r="5.7"/>
	<circle fill="#18CFC8" cx="562.3" cy="183.3" r="5.7"/>
	<path fill="#FFE400" d="M220.7,81.1c-4.5,0-8.2,3.7-8.2,8.2s3.7,8.2,8.2,8.2s8.2-3.7,8.2-8.2S225.3,81.1,220.7,81.1z M220.6,93
		c-2.1,0-3.8-1.7-3.8-3.8s1.7-3.8,3.8-3.8s3.8,1.7,3.8,3.8S222.7,93,220.6,93z"/>
	<path fill="#18CFC8" d="M127.6,113.4c-4.5,0-8.2,3.7-8.2,8.2s3.7,8.2,8.2,8.2c4.5,0,8.2-3.7,8.2-8.2S132.1,113.4,127.6,113.4z
		 M127.4,124.1c-1.5,0-2.7-1.2-2.7-2.7s1.2-2.7,2.7-2.7s2.7,1.2,2.7,2.7S128.9,124.1,127.4,124.1z"/>
	<g>
		<path fill="#18CFC8" d="M170.7,101.1h4.9c0.2,0,0.5,0,0.8,0.1c0.3,0.1,0.5,0.1,0.8,0.3s0.4,0.3,0.6,0.5c0.2,0.2,0.2,0.5,0.2,0.9
			c0,0.3-0.1,0.6-0.2,0.8s-0.3,0.4-0.5,0.6c-0.2,0.1-0.5,0.3-0.7,0.3c-0.3,0.1-0.6,0.1-0.9,0.1h-4.9v4.8c0,0.2,0,0.5-0.1,0.8
			c-0.1,0.3-0.1,0.5-0.3,0.8c-0.1,0.2-0.3,0.4-0.6,0.6c-0.2,0.1-0.5,0.2-0.9,0.2c-0.6,0-1.1-0.2-1.4-0.7c-0.3-0.4-0.4-1-0.4-1.7
			v-4.8h-4.9c-0.3,0-0.5,0-0.8-0.1c-0.3-0.1-0.5-0.1-0.8-0.3c-0.2-0.1-0.4-0.3-0.6-0.5c-0.1-0.2-0.2-0.5-0.2-0.9
			c0-0.3,0.1-0.6,0.2-0.8c0.1-0.2,0.3-0.4,0.5-0.6c0.2-0.1,0.5-0.3,0.7-0.3c0.3-0.1,0.6-0.1,0.9-0.1h4.9v-4.8c0-0.2,0-0.5,0.1-0.8
			c0-0.3,0.1-0.5,0.3-0.8c0.1-0.2,0.3-0.4,0.6-0.6s0.5-0.2,0.9-0.2c0.3,0,0.6,0.1,0.8,0.2c0.2,0.1,0.4,0.3,0.6,0.5
			c0.1,0.2,0.3,0.5,0.3,0.8s0.1,0.6,0.1,0.9V101.1z"/>
	</g>
	<g>
		<path fill="#FFAE31" d="M127,159.3h4.9c0.2,0,0.5,0,0.8,0.1c0.3,0.1,0.5,0.1,0.8,0.3s0.4,0.3,0.6,0.5c0.2,0.2,0.2,0.5,0.2,0.9
			c0,0.3-0.1,0.6-0.2,0.8s-0.3,0.4-0.5,0.6c-0.2,0.1-0.5,0.3-0.7,0.3c-0.3,0.1-0.6,0.1-0.9,0.1H127v4.8c0,0.2,0,0.5-0.1,0.8
			c-0.1,0.3-0.1,0.5-0.3,0.8c-0.1,0.2-0.3,0.4-0.6,0.6c-0.2,0.1-0.5,0.2-0.9,0.2c-0.6,0-1.1-0.2-1.4-0.7c-0.3-0.4-0.4-1-0.4-1.7
			v-4.8h-4.9c-0.3,0-0.5,0-0.8-0.1c-0.3-0.1-0.5-0.1-0.8-0.3c-0.2-0.1-0.4-0.3-0.6-0.5c-0.1-0.2-0.2-0.5-0.2-0.9
			c0-0.3,0.1-0.6,0.2-0.8c0.1-0.2,0.3-0.4,0.5-0.6c0.2-0.1,0.5-0.3,0.7-0.3c0.3-0.1,0.6-0.1,0.9-0.1h4.9v-4.8c0-0.2,0-0.5,0.1-0.8
			c0-0.3,0.1-0.5,0.3-0.8c0.1-0.2,0.3-0.4,0.6-0.6s0.5-0.2,0.9-0.2c0.3,0,0.6,0.1,0.8,0.2c0.2,0.1,0.4,0.3,0.6,0.5
			c0.1,0.2,0.3,0.5,0.3,0.8s0.1,0.6,0.1,0.9V159.3z"/>
	</g>
	<g>
		<path fill="#FFE400" d="M507.4,56.1h4.9c0.2,0,0.5,0,0.8,0.1c0.3,0.1,0.5,0.1,0.8,0.3s0.4,0.3,0.6,0.5c0.2,0.2,0.2,0.5,0.2,0.9
			c0,0.3-0.1,0.6-0.2,0.8s-0.3,0.4-0.5,0.6c-0.2,0.1-0.5,0.3-0.7,0.3c-0.3,0.1-0.6,0.1-0.9,0.1h-4.9v4.8c0,0.2,0,0.5-0.1,0.8
			c-0.1,0.3-0.1,0.5-0.3,0.8c-0.1,0.2-0.3,0.4-0.6,0.6c-0.2,0.1-0.5,0.2-0.9,0.2c-0.6,0-1.1-0.2-1.4-0.7c-0.3-0.4-0.4-1-0.4-1.7
			v-4.8h-4.9c-0.3,0-0.5,0-0.8-0.1c-0.3-0.1-0.5-0.1-0.8-0.3c-0.2-0.1-0.4-0.3-0.6-0.5c-0.1-0.2-0.2-0.5-0.2-0.9
			c0-0.3,0.1-0.6,0.2-0.8c0.1-0.2,0.3-0.4,0.5-0.6c0.2-0.1,0.5-0.3,0.7-0.3c0.3-0.1,0.6-0.1,0.9-0.1h4.9v-4.8c0-0.2,0-0.5,0.1-0.8
			c0-0.3,0.1-0.5,0.3-0.8c0.1-0.2,0.3-0.4,0.6-0.6s0.5-0.2,0.9-0.2c0.3,0,0.6,0.1,0.8,0.2c0.2,0.1,0.4,0.3,0.6,0.5
			c0.1,0.2,0.3,0.5,0.3,0.8s0.1,0.6,0.1,0.9V56.1z"/>
	</g>
	<g>
		<path fill="#FFC6C5" d="M552.4,96.8h4.9c0.2,0,0.5,0,0.8,0.1c0.3,0.1,0.5,0.1,0.8,0.3s0.4,0.3,0.6,0.5c0.2,0.2,0.2,0.5,0.2,0.9
			c0,0.3-0.1,0.6-0.2,0.8s-0.3,0.4-0.5,0.6c-0.2,0.1-0.5,0.3-0.7,0.3c-0.3,0.1-0.6,0.1-0.9,0.1h-4.9v4.8c0,0.2,0,0.5-0.1,0.8
			c-0.1,0.3-0.1,0.5-0.3,0.8c-0.1,0.2-0.3,0.4-0.6,0.6c-0.2,0.1-0.5,0.2-0.9,0.2c-0.6,0-1.1-0.2-1.4-0.7c-0.3-0.4-0.4-1-0.4-1.7
			v-4.8h-4.9c-0.3,0-0.5,0-0.8-0.1c-0.3-0.1-0.5-0.1-0.8-0.3c-0.2-0.1-0.4-0.3-0.6-0.5c-0.1-0.2-0.2-0.5-0.2-0.9
			c0-0.3,0.1-0.6,0.2-0.8c0.1-0.2,0.3-0.4,0.5-0.6c0.2-0.1,0.5-0.3,0.7-0.3c0.3-0.1,0.6-0.1,0.9-0.1h4.9V92c0-0.2,0-0.5,0.1-0.8
			c0-0.3,0.1-0.5,0.3-0.8c0.1-0.2,0.3-0.4,0.6-0.6s0.5-0.2,0.9-0.2c0.3,0,0.6,0.1,0.8,0.2c0.2,0.1,0.4,0.3,0.6,0.5
			c0.1,0.2,0.3,0.5,0.3,0.8s0.1,0.6,0.1,0.9V96.8z"/>
	</g>
	<path fill="#18CFC8" d="M550.6,37.4c-4.5,0-8.2,3.7-8.2,8.2s3.7,8.2,8.2,8.2s8.2-3.7,8.2-8.2S555.1,37.4,550.6,37.4z M550.4,48.1
		c-1.5,0-2.7-1.2-2.7-2.7s1.2-2.7,2.7-2.7s2.7,1.2,2.7,2.7S551.9,48.1,550.4,48.1z"/>
	<g>
		<path fill="#4F5D77" d="M480,141.6c9.5,0,18.9,0,28.4,0c2.6,0,7.3-1.1,8.2,2c0.2,0.8,0,1.9,0,2.6c0,15.4,0,30.7,0,46.1
			c0,44.2,0,88.3,0,132.5c0,3.3,0.8,7.9,0,11.1c-0.7,2.7-2.9,2.2-5.2,2.2c-11.3,0-22.5,0-33.8,0c-44.6,0-89.2,0-133.8,0
			c-44.3,0-88.5,0-132.8,0c-11,0-22,0-33,0c-2.3,0-4.3,0.5-5-2.2c-0.8-3.5,0-8.2,0-11.8c0-44.2,0-88.4,0-132.6c0-15.2,0-30.4,0-45.6
			c0-2.6,0.3-4,3.1-4.3c3.9-0.4,8,0,11.9,0c41.8,0,83.6,0,125.4,0c38.6,0,77.3,0,115.9,0c2.2,0,4.4,0,6.5,0c7.7,0,7.7-12,0-12
			c-30.4,0-60.7,0-91.1,0c-47.2,0-94.4,0-141.7,0c-9.3,0-18.8-0.4-28.1,0c-9.7,0.5-14,8.2-14,16.9c0,6.2,0,12.4,0,18.5
			c0,46.7,0,93.3,0,140c0,7.7,0,15.5,0,23.2c0,4.4-0.5,9.3,1.2,13.3c4.7,10.9,18.7,8.5,28.4,8.5c40.5,0,80.9,0,121.4,0
			c48.7,0,97.4,0,146.1,0c15.3,0,30.6,0,45.8,0c3.2,0,6.5,0.1,9.7,0c8.4-0.2,14.6-5.8,14.9-14.4c0.5-13.4,0-26.8,0-40.2
			c0-24.7,0-49.4,0-74.1c0-21.2,0-42.5,0-63.7c0-4.5,0.2-9.1,0-13.6c-0.2-5.3-2.5-10.2-7.3-12.8c-3.9-2.2-8.6-1.7-12.9-1.7
			c-9.5,0-18.9,0-28.4,0C472.3,129.6,472.3,141.6,480,141.6L480,141.6z"/>
	</g>
	<g>
		<path fill="#4F5D77" d="M212.1,375.1c29.4,0,58.8,0,88.2,0c46.8,0,93.7,0,140.5,0c10.7,0,21.4,0,32.2,0c7.7,0,7.7-12,0-12
			c-29.4,0-58.8,0-88.2,0c-46.8,0-93.7,0-140.5,0c-10.7,0-21.4,0-32.2,0C204.4,363.1,204.4,375.1,212.1,375.1L212.1,375.1z"/>
	</g>
	<path fill="#18CFC8" d="M499.4,307.1H190.4c-4.5,0-8.3-3.7-8.3-8.3V160.4c0-4.5,3.7-8.3,8.3-8.3h309.1c4.5,0,8.3,3.7,8.3,8.3v138.5
		C507.7,303.4,504,307.1,499.4,307.1z"/>
	<path fill="#FFFF00" d="M240.5,294H200c-3.8,0-6.9-3.1-6.9-6.9V173.9c0-3.8,3.1-6.9,6.9-6.9h40.5c3.8,0,6.9,3.1,6.9,6.9v113.2
		C247.4,290.9,244.3,294,240.5,294z"/>
	<path fill="#FFFFFF" d="M490.6,294.7H263.8c-3.5,0-6.4-2.9-6.4-6.4V173.6c0-3.5,2.9-6.4,6.4-6.4h226.8c3.5,0,6.4,2.9,6.4,6.4v114.7
		C497,291.8,494.2,294.7,490.6,294.7z"/>
</g>
</svg>
