<?xml version="1.0" encoding="utf-8"?>
<!-- Generator: Adobe Illustrator 18.1.1, SVG Export Plug-In . SVG Version: 6.00 Build 0)  -->
<svg version="1.1" id="Capa_1" xmlns="http://www.w3.org/2000/svg" xmlns:xlink="http://www.w3.org/1999/xlink" x="0px" y="0px"
	 viewBox="0 0 706 422" enable-background="new 0 0 706 422" xml:space="preserve">
<g>
	<circle fill="#18CFC8" cx="199.1" cy="58.8" r="8"/>
	<circle fill="#FFC6C5" cx="581.8" cy="133.1" r="5.7"/>
	<circle fill="#18CFC8" cx="564.8" cy="178.1" r="5.7"/>
	<path fill="#FFE400" d="M223.2,75.9c-4.5,0-8.2,3.7-8.2,8.2s3.7,8.2,8.2,8.2s8.2-3.7,8.2-8.2S227.7,75.9,223.2,75.9z M223,87.8
		c-2.1,0-3.8-1.7-3.8-3.8s1.7-3.8,3.8-3.8s3.8,1.7,3.8,3.8S225.1,87.8,223,87.8z"/>
	<path fill="#18CFC8" d="M130,108.1c-4.5,0-8.2,3.7-8.2,8.2s3.7,8.2,8.2,8.2c4.5,0,8.2-3.7,8.2-8.2S134.6,108.1,130,108.1z
		 M129.9,118.9c-1.5,0-2.7-1.2-2.7-2.7c0-1.5,1.2-2.7,2.7-2.7s2.7,1.2,2.7,2.7C132.6,117.7,131.4,118.9,129.9,118.9z"/>
	<g>
		<path fill="#18CFC8" d="M173.2,95.9h4.9c0.2,0,0.5,0,0.8,0.1c0.3,0.1,0.5,0.1,0.8,0.3s0.4,0.3,0.6,0.5c0.2,0.2,0.2,0.5,0.2,0.9
			c0,0.3-0.1,0.6-0.2,0.8s-0.3,0.4-0.5,0.6c-0.2,0.1-0.5,0.3-0.7,0.3c-0.3,0.1-0.6,0.1-0.9,0.1h-4.9v4.8c0,0.2,0,0.5-0.1,0.8
			c-0.1,0.3-0.1,0.5-0.3,0.8c-0.1,0.2-0.3,0.4-0.6,0.6c-0.2,0.1-0.5,0.2-0.9,0.2c-0.6,0-1.1-0.2-1.4-0.7c-0.3-0.4-0.4-1-0.4-1.7
			v-4.8h-4.9c-0.3,0-0.5,0-0.8-0.1c-0.3-0.1-0.5-0.1-0.8-0.3c-0.2-0.1-0.4-0.3-0.6-0.5c-0.1-0.2-0.2-0.5-0.2-0.9
			c0-0.3,0.1-0.6,0.2-0.8c0.1-0.2,0.3-0.4,0.5-0.6c0.2-0.1,0.5-0.3,0.7-0.3c0.3-0.1,0.6-0.1,0.9-0.1h4.9v-4.8c0-0.2,0-0.5,0.1-0.8
			c0-0.3,0.1-0.5,0.3-0.8c0.1-0.2,0.3-0.4,0.6-0.6s0.5-0.2,0.9-0.2c0.3,0,0.6,0.1,0.8,0.2c0.2,0.1,0.4,0.3,0.6,0.5
			c0.1,0.2,0.3,0.5,0.3,0.8s0.1,0.6,0.1,0.9V95.9z"/>
	</g>
	<g>
		<path fill="#FFAE31" d="M129.4,154.1h4.9c0.2,0,0.5,0,0.8,0.1c0.3,0.1,0.5,0.1,0.8,0.3s0.4,0.3,0.6,0.5c0.2,0.2,0.2,0.5,0.2,0.9
			c0,0.3-0.1,0.6-0.2,0.8s-0.3,0.4-0.5,0.6c-0.2,0.1-0.5,0.3-0.7,0.3c-0.3,0.1-0.6,0.1-0.9,0.1h-4.9v4.8c0,0.2,0,0.5-0.1,0.8
			c-0.1,0.3-0.1,0.5-0.3,0.8c-0.1,0.2-0.3,0.4-0.6,0.6c-0.2,0.1-0.5,0.2-0.9,0.2c-0.6,0-1.1-0.2-1.4-0.7c-0.3-0.4-0.4-1-0.4-1.7
			v-4.8h-4.9c-0.3,0-0.5,0-0.8-0.1c-0.3-0.1-0.5-0.1-0.8-0.3c-0.2-0.1-0.4-0.3-0.6-0.5c-0.1-0.2-0.2-0.5-0.2-0.9
			c0-0.3,0.1-0.6,0.2-0.8c0.1-0.2,0.3-0.4,0.5-0.6c0.2-0.1,0.5-0.3,0.7-0.3c0.3-0.1,0.6-0.1,0.9-0.1h4.9v-4.8c0-0.2,0-0.5,0.1-0.8
			c0-0.3,0.1-0.5,0.3-0.8c0.1-0.2,0.3-0.4,0.6-0.6s0.5-0.2,0.9-0.2c0.3,0,0.6,0.1,0.8,0.2c0.2,0.1,0.4,0.3,0.6,0.5
			c0.1,0.2,0.3,0.5,0.3,0.8s0.1,0.6,0.1,0.9V154.1z"/>
	</g>
	<g>
		<path fill="#FFE400" d="M509.8,50.9h4.9c0.2,0,0.5,0,0.8,0.1c0.3,0.1,0.5,0.1,0.8,0.3s0.4,0.3,0.6,0.5c0.2,0.2,0.2,0.5,0.2,0.9
			c0,0.3-0.1,0.6-0.2,0.8s-0.3,0.4-0.5,0.6c-0.2,0.1-0.5,0.3-0.7,0.3c-0.3,0.1-0.6,0.1-0.9,0.1h-4.9v4.8c0,0.2,0,0.5-0.1,0.8
			c-0.1,0.3-0.1,0.5-0.3,0.8c-0.1,0.2-0.3,0.4-0.6,0.6c-0.2,0.1-0.5,0.2-0.9,0.2c-0.6,0-1.1-0.2-1.4-0.7c-0.3-0.4-0.4-1-0.4-1.7
			v-4.8h-4.9c-0.3,0-0.5,0-0.8-0.1c-0.3-0.1-0.5-0.1-0.8-0.3c-0.2-0.1-0.4-0.3-0.6-0.5c-0.1-0.2-0.2-0.5-0.2-0.9
			c0-0.3,0.1-0.6,0.2-0.8c0.1-0.2,0.3-0.4,0.5-0.6c0.2-0.1,0.5-0.3,0.7-0.3c0.3-0.1,0.6-0.1,0.9-0.1h4.9v-4.8c0-0.2,0-0.5,0.1-0.8
			c0-0.3,0.1-0.5,0.3-0.8c0.1-0.2,0.3-0.4,0.6-0.6s0.5-0.2,0.9-0.2c0.3,0,0.6,0.1,0.8,0.2c0.2,0.1,0.4,0.3,0.6,0.5
			c0.1,0.2,0.3,0.5,0.3,0.8s0.1,0.6,0.1,0.9V50.9z"/>
	</g>
	<g>
		<path fill="#FFC6C5" d="M554.8,91.5h4.9c0.2,0,0.5,0,0.8,0.1c0.3,0.1,0.5,0.1,0.8,0.3s0.4,0.3,0.6,0.5c0.2,0.2,0.2,0.5,0.2,0.9
			c0,0.3-0.1,0.6-0.2,0.8s-0.3,0.4-0.5,0.6c-0.2,0.1-0.5,0.3-0.7,0.3c-0.3,0.1-0.6,0.1-0.9,0.1h-4.9v4.8c0,0.2,0,0.5-0.1,0.8
			c-0.1,0.3-0.1,0.5-0.3,0.8c-0.1,0.2-0.3,0.4-0.6,0.6c-0.2,0.1-0.5,0.2-0.9,0.2c-0.6,0-1.1-0.2-1.4-0.7c-0.3-0.4-0.4-1-0.4-1.7
			v-4.8h-4.9c-0.3,0-0.5,0-0.8-0.1c-0.3-0.1-0.5-0.1-0.8-0.3c-0.2-0.1-0.4-0.3-0.6-0.5c-0.1-0.2-0.2-0.5-0.2-0.9
			c0-0.3,0.1-0.6,0.2-0.8c0.1-0.2,0.3-0.4,0.5-0.6c0.2-0.1,0.5-0.3,0.7-0.3c0.3-0.1,0.6-0.1,0.9-0.1h4.9v-4.8c0-0.2,0-0.5,0.1-0.8
			c0-0.3,0.1-0.5,0.3-0.8c0.1-0.2,0.3-0.4,0.6-0.6s0.5-0.2,0.9-0.2c0.3,0,0.6,0.1,0.8,0.2c0.2,0.1,0.4,0.3,0.6,0.5
			c0.1,0.2,0.3,0.5,0.3,0.8s0.1,0.6,0.1,0.9V91.5z"/>
	</g>
	<path fill="#18CFC8" d="M553,32.1c-4.5,0-8.2,3.7-8.2,8.2s3.7,8.2,8.2,8.2s8.2-3.7,8.2-8.2S557.6,32.1,553,32.1z M552.9,42.9
		c-1.5,0-2.7-1.2-2.7-2.7s1.2-2.7,2.7-2.7s2.7,1.2,2.7,2.7S554.4,42.9,552.9,42.9z"/>
	<g>
		<path fill="#4F5D77" d="M482.4,136.4c9.5,0,18.9,0,28.4,0c2.6,0,7.3-1.1,8.2,2c0.2,0.8,0,1.9,0,2.6c0,15.4,0,30.7,0,46.1
			c0,44.2,0,88.3,0,132.5c0,3.3,0.8,7.9,0,11.1c-0.7,2.7-2.9,2.2-5.2,2.2c-11.3,0-22.5,0-33.8,0c-44.6,0-89.2,0-133.8,0
			c-44.3,0-88.5,0-132.8,0c-11,0-22,0-33,0c-2.3,0-4.3,0.5-5-2.2c-0.8-3.5,0-8.2,0-11.8c0-44.2,0-88.4,0-132.6c0-15.2,0-30.4,0-45.6
			c0-2.6,0.3-4,3.1-4.3c3.9-0.4,8,0,11.9,0c41.8,0,83.6,0,125.4,0c38.6,0,77.3,0,115.9,0c2.2,0,4.4,0,6.5,0c7.7,0,7.7-12,0-12
			c-30.4,0-60.7,0-91.1,0c-47.2,0-94.4,0-141.7,0c-9.3,0-18.8-0.4-28.1,0c-9.7,0.5-14,8.2-14,16.9c0,6.2,0,12.4,0,18.5
			c0,46.7,0,93.3,0,140c0,7.7,0,15.5,0,23.2c0,4.4-0.5,9.3,1.2,13.3c4.7,10.9,18.7,8.5,28.4,8.5c40.5,0,80.9,0,121.4,0
			c48.7,0,97.4,0,146.1,0c15.3,0,30.6,0,45.8,0c3.2,0,6.5,0.1,9.7,0c8.4-0.2,14.6-5.8,14.9-14.4c0.5-13.4,0-26.8,0-40.2
			c0-24.7,0-49.4,0-74.1c0-21.2,0-42.5,0-63.7c0-4.5,0.2-9.1,0-13.6c-0.2-5.3-2.5-10.2-7.3-12.8c-3.9-2.2-8.6-1.7-12.9-1.7
			c-9.5,0-18.9,0-28.4,0C474.7,124.4,474.7,136.4,482.4,136.4L482.4,136.4z"/>
	</g>
	<g>
		<path fill="#4F5D77" d="M214.6,369.9c29.4,0,58.8,0,88.2,0c46.8,0,93.7,0,140.5,0c10.7,0,21.4,0,32.2,0c7.7,0,7.7-12,0-12
			c-29.4,0-58.8,0-88.2,0c-46.8,0-93.7,0-140.5,0c-10.7,0-21.4,0-32.2,0C206.8,357.9,206.8,369.9,214.6,369.9L214.6,369.9z"/>
	</g>
	<path fill="#18CFC8" d="M501.9,301.9H192.8c-4.5,0-8.3-3.7-8.3-8.3V155.1c0-4.5,3.7-8.3,8.3-8.3h309.1c4.5,0,8.3,3.7,8.3,8.3v138.5
		C510.1,298.2,506.4,301.9,501.9,301.9z"/>
	<path fill="#FFFFFF" d="M375,267h-50.3c-19.8,0-36-16.2-36-36v0c0-19.8,16.2-36,36-36H375c19.8,0,36,16.2,36,36v0
		C411,250.8,394.8,267,375,267z"/>
	<g>
		<path fill="#FFFFFF" d="M338,215.2v32.3l29.1-16.3C367.1,231.1,336,211.8,338,215.2z"/>
		<g>
			<path fill="#4F5D77" d="M332,215c0,11,0,21.7,0,32.4c0,4.6,5.3,7.4,9.2,5.2c9.7-5.4,19.5-10.9,29.2-16.3c4-2.3,3.8-8.1,0-10.4
				c-6.4-3.9-12.8-7.8-19.4-11.5c-3.2-1.8-6.6-4.1-10.2-5.2c-5.5-1.7-10.8,3.7-7.6,9c4,6.6,14.3,0.6,10.4-6.1
				c0.2,1.4,0.3,2.8,0.5,4.3c-0.9,1.2-1.8,2.4-2.8,3.6c-4.2,0-5.6,0.2-4,0.7c0.1,0,0.2,0.1,0.3,0.1c-0.1-0.4-0.9-0.5,0.4,0.2
				c1.2,0.6,2.4,1.2,3.6,1.9c3.3,1.8,6.3,3.7,9.5,5.6c4.4,2.6,8.8,5.2,12.8,7.8c0-3.5,0-6.9,0-10.4c-10,5.4-19.4,10.9-29.1,16.3
				c3,1.7,6.1,3.5,9.1,5.2c0-10.8,0-21.4,0-32.4C344,208,332,208,332,215z"/>
		</g>
	</g>
</g>
</svg>
