<?xml version="1.0" encoding="utf-8"?>
<!-- Generator: Adobe Illustrator 18.1.1, SVG Export Plug-In . SVG Version: 6.00 Build 0)  -->
<svg version="1.1" id="Capa_1" xmlns="http://www.w3.org/2000/svg" xmlns:xlink="http://www.w3.org/1999/xlink" x="0px" y="0px"
	 viewBox="0 0 706 422" enable-background="new 0 0 706 422" xml:space="preserve">
<g>
	<g>
		<path fill="#FFFFFF" d="M241.4,225.1c0,0,33.5-67.8,104-67.8s103,68,103,68s-30,67.2-103.4,67.2S241.4,225.1,241.4,225.1z"/>
		<path fill="#4F5D77" d="M345,299.5c-31.9,0-61.1-12.4-84.3-35.8c-17.4-17.6-25.3-35.1-25.7-35.8c-0.9-1.9-0.8-4.1,0.1-6
			c0.4-0.7,9.1-18.2,26.9-35.8c23.8-23.5,52.6-35.9,83.3-35.9c30.7,0,59.4,12.5,82.9,36.1c17.6,17.6,26.1,35.2,26.5,35.9
			c0.9,1.9,0.9,4,0.1,5.9c-0.3,0.7-8.2,18.2-25.6,35.7C406,287.2,376.9,299.5,345,299.5z M249.3,225.2c2.9,5.4,10,17.3,21.7,29
			c20.8,20.8,45.7,31.3,74,31.3c28.3,0,53.2-10.5,73.9-31.2c11.7-11.7,18.7-23.6,21.6-29c-3-5.4-10.5-17.5-22.5-29.5
			c-21.1-21-45.5-31.6-72.6-31.6c-27.2,0-51.8,10.6-73.2,31.6C260.1,207.7,252.4,219.8,249.3,225.2z"/>
	</g>
	<g>
		
			<path fill="none" stroke="#4F5D77" stroke-width="1.4986" stroke-linecap="round" stroke-linejoin="round" stroke-miterlimit="10" d="
			M426.6,225.1"/>
	</g>
	<g>
		<circle fill="#18CFC8" cx="346.5" cy="223.6" r="36"/>
		<path fill="#4F5D77" d="M346.5,266.5c-23.7,0-43-19.3-43-43c0-23.7,19.3-43,43-43c23.7,0,43,19.3,43,43
			C389.4,247.3,370.2,266.5,346.5,266.5z M346.5,194.6c-16,0-29,13-29,29s13,29,29,29c16,0,29-13,29-29S362.4,194.6,346.5,194.6z"/>
	</g>
	<g>
		<g>
			<circle fill="#FFC6C5" cx="515.8" cy="236.5" r="5.7"/>
		</g>
		<g>
			<circle fill="#18CFC8" cx="498.8" cy="191.5" r="5.7"/>
		</g>
		<g>
			<g>
				<path fill="#FFE400" d="M443.8,323.6c0,0.3,0,0.6-0.1,0.9s-0.2,0.5-0.3,0.8c-0.1,0.2-0.3,0.4-0.6,0.5c-0.2,0.1-0.5,0.2-0.8,0.2
					c-0.4,0-0.7-0.1-0.9-0.2s-0.4-0.3-0.6-0.6c-0.1-0.2-0.2-0.5-0.3-0.8c0-0.3-0.1-0.5-0.1-0.8v-4.8h-4.9c-0.3,0-0.6,0-0.9-0.1
					c-0.3-0.1-0.5-0.2-0.7-0.3c-0.2-0.1-0.4-0.3-0.5-0.6c-0.1-0.2-0.2-0.5-0.2-0.8c0-0.4,0.1-0.7,0.2-0.9c0.1-0.2,0.3-0.4,0.6-0.5
					c0.2-0.1,0.5-0.2,0.8-0.3c0.3-0.1,0.5-0.1,0.8-0.1h4.9v-4.8c0-0.7,0.1-1.2,0.4-1.7c0.3-0.4,0.7-0.7,1.4-0.7
					c0.4,0,0.7,0.1,0.9,0.2c0.2,0.1,0.4,0.3,0.6,0.6c0.1,0.2,0.2,0.5,0.3,0.8c0.1,0.3,0.1,0.5,0.1,0.8v4.8h4.9c0.3,0,0.6,0,0.9,0.1
					c0.3,0.1,0.5,0.2,0.7,0.3c0.2,0.1,0.4,0.3,0.5,0.6s0.2,0.5,0.2,0.8c0,0.4-0.1,0.6-0.2,0.9c-0.2,0.2-0.3,0.4-0.6,0.5
					s-0.5,0.2-0.8,0.3c-0.3,0.1-0.5,0.1-0.8,0.1h-4.9V323.6z"/>
			</g>
		</g>
		<g>
			<g>
				<path fill="#FFC6C5" d="M488.8,282.9c0,0.3,0,0.6-0.1,0.9s-0.2,0.5-0.3,0.8c-0.1,0.2-0.3,0.4-0.6,0.5c-0.2,0.1-0.5,0.2-0.8,0.2
					c-0.4,0-0.7-0.1-0.9-0.2s-0.4-0.3-0.6-0.6c-0.1-0.2-0.2-0.5-0.3-0.8c0-0.3-0.1-0.5-0.1-0.8v-4.8h-4.9c-0.3,0-0.6,0-0.9-0.1
					c-0.3-0.1-0.5-0.2-0.7-0.3c-0.2-0.1-0.4-0.3-0.5-0.6c-0.1-0.2-0.2-0.5-0.2-0.8c0-0.4,0.1-0.7,0.2-0.9c0.1-0.2,0.3-0.4,0.6-0.5
					c0.2-0.1,0.5-0.2,0.8-0.3c0.3-0.1,0.5-0.1,0.8-0.1h4.9v-4.8c0-0.7,0.1-1.2,0.4-1.7c0.3-0.4,0.7-0.7,1.4-0.7
					c0.4,0,0.7,0.1,0.9,0.2c0.2,0.1,0.4,0.3,0.6,0.6c0.1,0.2,0.2,0.5,0.3,0.8c0.1,0.3,0.1,0.5,0.1,0.8v4.8h4.9c0.3,0,0.6,0,0.9,0.1
					c0.3,0.1,0.5,0.2,0.7,0.3c0.2,0.1,0.4,0.3,0.5,0.6s0.2,0.5,0.2,0.8c0,0.4-0.1,0.6-0.2,0.9c-0.2,0.2-0.3,0.4-0.6,0.5
					s-0.5,0.2-0.8,0.3c-0.3,0.1-0.5,0.1-0.8,0.1h-4.9V282.9z"/>
			</g>
		</g>
		<g>
			<path fill="#18CFC8" d="M495.2,329.3c0-4.5-3.7-8.2-8.2-8.2s-8.2,3.7-8.2,8.2s3.7,8.2,8.2,8.2S495.2,333.8,495.2,329.3z
				 M489.6,329.4c0,1.5-1.2,2.7-2.7,2.7s-2.7-1.2-2.7-2.7s1.2-2.7,2.7-2.7S489.6,327.9,489.6,329.4z"/>
		</g>
	</g>
	<g>
		<g>
			<circle fill="#18CFC8" cx="265.1" cy="92.5" r="8"/>
		</g>
		<g>
			<path fill="#FFE400" d="M289.2,109.6c-4.5,0-8.2,3.7-8.2,8.2s3.7,8.2,8.2,8.2s8.2-3.7,8.2-8.2S293.7,109.6,289.2,109.6z
				 M289,121.5c-2.1,0-3.8-1.7-3.8-3.8s1.7-3.8,3.8-3.8s3.8,1.7,3.8,3.8S291.1,121.5,289,121.5z"/>
		</g>
		<g>
			<path fill="#18CFC8" d="M196,141.9c-4.5,0-8.2,3.7-8.2,8.2s3.7,8.2,8.2,8.2s8.2-3.7,8.2-8.2S200.6,141.9,196,141.9z M195.9,152.6
				c-1.5,0-2.7-1.2-2.7-2.7s1.2-2.7,2.7-2.7s2.7,1.2,2.7,2.7S197.4,152.6,195.9,152.6z"/>
		</g>
		<g>
			<g>
				<path fill="#18CFC8" d="M239.2,129.6h4.9c0.2,0,0.5,0,0.8,0.1c0.3,0.1,0.5,0.1,0.8,0.3s0.4,0.3,0.6,0.5c0.2,0.2,0.2,0.5,0.2,0.9
					c0,0.3-0.1,0.6-0.2,0.8s-0.3,0.4-0.5,0.6c-0.2,0.1-0.5,0.3-0.7,0.3c-0.3,0.1-0.6,0.1-0.9,0.1h-4.9v4.8c0,0.2,0,0.5-0.1,0.8
					c-0.1,0.3-0.1,0.5-0.3,0.8c-0.1,0.2-0.3,0.4-0.6,0.6c-0.2,0.1-0.5,0.2-0.9,0.2c-0.6,0-1.1-0.2-1.4-0.7c-0.3-0.4-0.4-1-0.4-1.7
					v-4.8h-4.9c-0.3,0-0.5,0-0.8-0.1c-0.3-0.1-0.5-0.1-0.8-0.3c-0.2-0.1-0.4-0.3-0.6-0.5c-0.1-0.2-0.2-0.5-0.2-0.9
					c0-0.3,0.1-0.6,0.2-0.8c0.1-0.2,0.3-0.4,0.5-0.6c0.2-0.1,0.5-0.3,0.7-0.3c0.3-0.1,0.6-0.1,0.9-0.1h4.9v-4.8c0-0.2,0-0.5,0.1-0.8
					c0-0.3,0.1-0.5,0.3-0.8c0.1-0.2,0.3-0.4,0.6-0.6s0.5-0.2,0.9-0.2c0.3,0,0.6,0.1,0.8,0.2c0.2,0.1,0.4,0.3,0.6,0.5
					c0.1,0.2,0.3,0.5,0.3,0.8s0.1,0.6,0.1,0.9V129.6z"/>
			</g>
		</g>
		<g>
			<g>
				<path fill="#FFAE31" d="M195.4,187.8h4.9c0.2,0,0.5,0,0.8,0.1c0.3,0.1,0.5,0.1,0.8,0.3s0.4,0.3,0.6,0.5c0.2,0.2,0.2,0.5,0.2,0.9
					c0,0.3-0.1,0.6-0.2,0.8s-0.3,0.4-0.5,0.6c-0.2,0.1-0.5,0.3-0.7,0.3c-0.3,0.1-0.6,0.1-0.9,0.1h-4.9v4.8c0,0.2,0,0.5-0.1,0.8
					c-0.1,0.3-0.1,0.5-0.3,0.8c-0.1,0.2-0.3,0.4-0.6,0.6c-0.2,0.1-0.5,0.2-0.9,0.2c-0.6,0-1.1-0.2-1.4-0.7c-0.3-0.4-0.4-1-0.4-1.7
					v-4.8h-4.9c-0.3,0-0.5,0-0.8-0.1c-0.3-0.1-0.5-0.1-0.8-0.3c-0.2-0.1-0.4-0.3-0.6-0.5c-0.1-0.2-0.2-0.5-0.2-0.9
					c0-0.3,0.1-0.6,0.2-0.8c0.1-0.2,0.3-0.4,0.5-0.6c0.2-0.1,0.5-0.3,0.7-0.3c0.3-0.1,0.6-0.1,0.9-0.1h4.9V183c0-0.2,0-0.5,0.1-0.8
					c0-0.3,0.1-0.5,0.3-0.8c0.1-0.2,0.3-0.4,0.6-0.6s0.5-0.2,0.9-0.2c0.3,0,0.6,0.1,0.8,0.2c0.2,0.1,0.4,0.3,0.6,0.5
					c0.1,0.2,0.3,0.5,0.3,0.8s0.1,0.6,0.1,0.9V187.8z"/>
			</g>
		</g>
	</g>
</g>
</svg>
