<?xml version="1.0" standalone="no"?>
<!DOCTYPE svg PUBLIC "-//W3C//DTD SVG 20010904//EN"
 "http://www.w3.org/TR/2001/REC-SVG-20010904/DTD/svg10.dtd">
<svg version="1.0" xmlns="http://www.w3.org/2000/svg"
 width="1001.000000pt" height="797.000000pt" viewBox="0 0 1001.000000 797.000000"
 preserveAspectRatio="xMidYMid meet">
<metadata>
Created by potrace 1.15, written by Peter Selinger 2001-2017
</metadata>
<g transform="translate(0.000000,797.000000) scale(0.100000,-0.100000)"
fill="#18cfc8" stroke="none">
<path d="M2826 7569 c-2 -8 -65 -194 -139 -414 -75 -220 -158 -470 -186 -555
-27 -85 -120 -360 -207 -610 -96 -279 -158 -474 -160 -504 -4 -62 -52 -206
-70 -213 -19 -7 -103 23 -128 46 -12 10 -57 29 -101 41 -44 12 -281 86 -526
166 -246 79 -449 144 -453 144 -23 0 14 -56 163 -249 93 -120 196 -256 228
-302 33 -46 108 -147 169 -224 60 -77 131 -170 158 -208 28 -37 55 -67 62 -67
6 0 37 -33 67 -74 l56 -74 -50 -64 c-28 -35 -76 -88 -108 -118 -56 -54 -237
-273 -380 -459 -41 -53 -136 -171 -212 -263 -151 -183 -167 -204 -157 -214 4
-4 78 16 165 44 87 28 192 60 233 72 208 60 518 164 543 182 44 31 195 79 204
65 4 -7 8 -82 9 -167 1 -85 11 -263 23 -395 25 -297 76 -944 91 -1165 23 -347
51 -655 60 -664 18 -18 27 6 50 124 27 138 116 530 289 1273 142 607 185 812
176 827 -7 12 33 200 46 214 10 11 127 -31 137 -50 6 -11 254 -119 442 -192
421 -164 539 -211 674 -267 178 -73 206 -82 206 -66 0 13 -213 329 -435 646
-89 127 -197 284 -241 350 -135 202 -158 234 -176 240 -9 3 -43 42 -74 87
l-56 81 44 44 c25 24 52 45 62 47 9 1 184 166 388 367 204 200 481 473 617
606 135 132 243 244 239 248 -10 10 -196 -64 -713 -283 -143 -60 -336 -142
-430 -182 -93 -39 -178 -79 -188 -88 -18 -16 -248 -114 -254 -108 -9 9 -15
197 -6 208 7 9 -12 355 -57 1061 -62 959 -76 1115 -94 1056z"/>
<path d="M6843 6838 c-28 -84 -113 -334 -189 -555 l-138 -403 -360 183 c-456
231 -600 300 -604 287 -4 -11 36 -56 253 -287 359 -382 497 -535 489 -542 -5
-5 -83 -69 -174 -144 -91 -75 -235 -195 -320 -267 -85 -72 -199 -167 -252
-211 -100 -82 -114 -96 -104 -106 10 -10 153 32 559 163 214 69 391 124 394
120 6 -5 -13 -1108 -22 -1283 -9 -166 11 -132 119 201 52 160 149 459 216 664
l121 372 57 -43 c31 -24 145 -104 252 -177 107 -73 204 -140 215 -150 41 -36
280 -200 293 -200 19 0 16 7 -47 93 -32 45 -92 132 -133 192 -41 61 -159 227
-261 370 -103 143 -187 265 -186 270 0 6 88 87 196 180 109 94 238 206 288
251 49 44 162 142 250 218 163 141 182 161 166 170 -4 3 -138 -51 -297 -120
-355 -155 -622 -269 -650 -278 -21 -6 -21 -3 -27 146 -4 84 -12 347 -18 583
-6 237 -12 436 -15 443 -9 30 -23 2 -71 -140z"/>
<path d="M9581 6713 c-10 -38 -67 -274 -93 -388 l-14 -60 -40 0 c-21 0 -85 4
-141 8 -68 5 -103 4 -103 -2 0 -6 39 -71 86 -146 47 -74 84 -141 81 -148 -2
-6 -60 -90 -127 -186 -70 -99 -118 -177 -113 -182 5 -5 58 12 123 40 63 26
125 52 138 55 l23 8 -3 -261 c-2 -187 0 -261 8 -261 6 0 50 113 98 252 47 138
88 253 90 255 2 3 63 -23 134 -56 131 -61 152 -69 152 -52 0 5 -38 89 -85 187
-47 99 -85 184 -85 191 0 10 267 304 290 318 9 6 15 45 6 45 -1 0 -72 -16
-156 -36 -84 -19 -154 -33 -157 -31 -5 5 -48 285 -57 372 -10 92 -16 115 -31
115 -8 0 -19 -17 -24 -37z"/>
<path d="M8435 4272 c-10 -7 -197 -751 -230 -912 -29 -140 -137 -575 -145
-584 -5 -5 -194 18 -444 54 -240 35 -439 60 -443 56 -8 -8 62 -78 292 -291
303 -280 366 -345 359 -369 -13 -41 -103 -214 -155 -297 -28 -46 -130 -200
-226 -342 -95 -141 -173 -262 -173 -268 0 -17 24 -9 401 141 193 78 353 139
354 138 4 -5 165 -1125 206 -1430 19 -144 25 -168 39 -168 15 0 21 22 38 137
12 76 24 161 28 188 9 72 213 1338 216 1341 2 1 224 -72 493 -162 270 -90 496
-164 503 -164 26 0 9 30 -79 141 -50 63 -137 173 -192 244 -55 72 -158 203
-229 292 -91 114 -127 167 -121 176 4 8 63 86 130 173 67 88 173 227 235 309
62 83 176 233 253 334 140 183 158 211 134 211 -7 0 -240 -113 -517 -251 -277
-138 -505 -249 -507 -247 -2 2 -48 351 -104 777 -56 426 -102 776 -104 777 -1
2 -7 0 -12 -4z"/>
</g>
</svg>
