<svg width="188" height="247" xmlns="http://www.w3.org/2000/svg">
 <!-- Created with Method Draw - http://github.com/duopixel/Method-Draw/ -->
 <g>
  <title>background</title>
  <rect fill="none" id="canvas_background" height="249" width="190" y="-1" x="-1"/>
  <g display="none" overflow="visible" y="0" x="0" height="100%" width="100%" id="canvasGrid">
   <rect fill="url(#gridpattern)" stroke-width="0" y="0" x="0" height="100%" width="100%"/>
  </g>
 </g>
 <g>
  <title>Layer 1</title>
  <path id="svg_1" d="m5.75,38.883556l32.467335,0l10.032656,-30.843827l10.032662,30.843827l32.467329,0l-26.266578,19.062315l10.033175,30.843827l-26.266589,-19.062834l-26.266583,19.062834l10.033178,-30.843827l-26.266586,-19.062315z" stroke-width="1.5" stroke="#18cfc8" fill="#18cfc8"/>
  <path stroke="#18cfc8" id="svg_4" d="m56.749999,162.58396l45.836246,0l14.163742,-43.544232l14.163756,43.544232l45.836232,0l-37.082217,26.911497l14.164476,43.544232l-37.082246,-26.912245l-37.082232,26.912245l14.16449,-43.544232l-37.082246,-26.911497z" stroke-width="1.5" fill="#18cfc8"/>
  <path stroke="#18cfc8" id="svg_5" d="m128.750002,57.09602l19.480392,0l6.019591,-18.506288l6.019591,18.506288l19.480387,0l-15.759931,11.437381l6.019897,18.506288l-15.759944,-11.4377l-15.759944,11.4377l6.019905,-18.506288l-15.759944,-11.437381z" stroke-width="1.5" fill="#18cfc8"/>
 </g>
</svg>