<?xml version="1.0" encoding="UTF-8"?>
<svg viewBox="0 0 50 50" xmlns="http://www.w3.org/2000/svg">
    <g transform="matrix(.45862 .61914 -.61914 .45862 187.67 -605.18)" enable-background="new">
        <g transform="translate(.28517 4.135)">
            <path   transform="matrix(.70754 .22532 -.22532 .70754 282.79 61.87)" d="m567.83 651.89-7.7786-1.6414-5.4297 6.1093-0.8427-7.9052-7.4882-3.2761 7.2578-3.2443 0.80181-8.134 5.3283 5.9001 7.9837-1.751-3.9648 6.8907 4.1324 7.0519z" fill="#fff" stroke="#888888" stroke-width="2.3859"/>
            <path stroke="#888888" fill="#888888" d="m531.97 647.86c0.61269-0.22649 0.61368-0.25975 1.0603-0.25375l1.0082 39.022c0 0.0829-0.0667 0.14961-0.1496 0.14961h-3.1288c-0.0829 0-0.14961-0.0667-0.14961-0.14961 0.57734-5.1498 1.3809-38.487 1.3595-38.768v5e-5z"/>
        </g>
        <path stroke="#18CFC8" fill="#18CFC8" d="m522.57 651.84-5.9886 2.4715 0.95056 1.8061 5.038-4.2776z"/>
        <path stroke="#18CFC8" fill="#18CFC8" d="m522.07 638.17-4.0089-5.0892-1.479 1.4065 5.4878 3.6827z"/>
        <path stroke="#18CFC8" fill="#18CFC8" d="m542.53 637.76 5.9886-2.4715-0.95056-1.8061-5.038 4.2776z"/>
        <path stroke="#18CFC8" fill="#18CFC8" d="m543.04 651.43 4.0089 5.0892 1.479-1.4065-5.4878-3.6827z"/>
        <path stroke="#18CFC8" fill="#18CFC8" d="m532.37 633.34 0.83946-6.4239-2.0396-0.0752 1.2001 6.4991z"/>
    </g>
</svg>
