<svg width="273.89" height="380.28" xmlns="http://www.w3.org/2000/svg">

 <g>
  <title>background</title>
  <rect fill="none" id="canvas_background" height="382.28" width="275.89" y="-1" x="-1"/>
 </g>
 <g>
  <title>Layer 1</title>
  <path id="svg_1" d="m262.03,116.05c-0.19,-2.811 -0.541,-5.561 -0.645,-8.387c-0.511,-2.056 -0.817,-5.448 -1.371,-7.274c-0.77,-2.521 -0.798,-3.436 -1.305,-5.143c-0.54,-1.833 -0.575,-1.729 -1.677,-5.828c-2.073,-7.689 -5.674,-15.394 -9.375,-22.633c-2.415,-4.722 -5.498,-8.528 -8.474,-12.665c-0.643,-0.899 -2.391,-2.968 -2.919,-3.748c-1.111,-1.644 -8.034,-9.609 -10.228,-11.401c-2.192,-1.792 -4.091,-3.841 -6.344,-5.586c-2.302,-1.779 -4.572,-3.599 -6.895,-5.354c-1.91,-1.443 -3.906,-2.244 -5.846,-3.452c-10.546,-6.563 -22.191,-11.574 -34.293,-14.384c-40.338,-9.38 -87.658,4.36 -113.851,37.401c-2.738,3.461 -10.31,13.992 -11.381,15.749c-2.408,3.958 -4.379,7.679 -6.281,11.904c-7.416,16.469 -11.868,36.204 -10.455,55.122c0.773,10.358 2.832,21.046 6.397,30.812c1.116,3.062 2.153,6.171 3.575,9.11c0.975,2.021 3.496,6.61 3.714,7.01c-21.541,9.584 -36.583,31.13 -36.583,56.231c0,33.994 27.561,61.551 61.556,61.551c7.354,0 14.375,-1.358 20.917,-3.723c0.083,0.249 0.203,0.431 0.317,0.626c3.387,13.382 15.468,23.29 29.898,23.29c17.051,0 30.877,-13.822 30.877,-30.872c0,-14.702 -10.282,-26.978 -24.04,-30.097c0.083,-0.33 0.185,-0.666 0.277,-0.999c0.422,-1.248 0.792,-2.515 1.139,-3.798c0.494,-1.603 0.957,-3.213 1.22,-4.879c0.14,-0.852 0.258,-1.955 0.358,-3.011c0.154,-1.194 0.276,-2.386 0.363,-3.597c0.294,-0.188 0.712,0 1.314,0.028c6.724,0.289 13.423,1.398 20.173,1.037c12.569,-0.666 26.087,-3.165 37.661,-8.271c12.05,-5.315 23.553,-12.168 33.517,-20.81c4.751,-4.128 9.153,-8.686 12.918,-13.734c1.809,-2.424 3.91,-4.477 5.552,-7.048c1.388,-2.178 2.942,-4.206 4.162,-6.488c0.859,-1.609 1.062,-2.355 1.903,-3.964c0.519,-1.002 1.148,-1.886 1.525,-2.952c0.814,-2.289 1.208,-4.737 1.291,-7.164c0.16,-4.731 -1.305,-9.547 -3.95,-13.482c-2.264,-3.36 -7.335,-6.554 -11.331,-7.658c-4.715,-1.301 -10.053,-1.034 -14.613,0.742c-5.01,1.949 -8.45,6.25 -11.113,10.748c-2.954,5.004 -5.744,9.497 -9.896,13.649c-7.685,7.68 -16.027,13.822 -26.148,17.943c-38.728,15.79 -83.799,-5.655 -96.595,-45.333c-5.948,-18.452 -4.258,-39.24 5.171,-56.347c4.967,-9.009 11.565,-16.987 19.648,-23.375c4.291,-3.386 9.163,-6.626 14.175,-8.742c4.525,-1.905 9.104,-2.955 13.739,-4.527c3.634,-1.232 8.523,-1.556 12.406,-1.851c4.085,-0.305 8.317,-0.403 12.373,0.264c8.305,1.367 16.896,3.266 24.477,7.139c4.128,2.106 8.631,5.026 12.351,7.978c3.706,2.939 7.65,6.636 10.655,10.543c2.364,3.024 3.824,5.265 6.035,8.484c2.321,3.659 5.779,7.626 6.039,12.257c-9.593,-0.003 -19.394,0.069 -28.992,0.069c-9.325,0 -19.356,-2.068 -28.044,2.273c-9.023,4.501 -15.895,17.657 -10.295,27.207c2.715,4.612 4.088,8.287 9.217,10.83c5.087,2.518 9.679,2.92 15.281,2.792c13.251,-0.295 26.546,-0.016 39.808,-0.016l20.644,0c5.881,0 11.539,0.358 17.108,-1.782c9.358,-3.593 13.847,-12.704 13.189,-22.414m-162.779,168.483c0,-11.797 9.562,-21.363 21.36,-21.363c11.804,0 21.371,9.566 21.371,21.363c0,11.804 -9.567,21.37 -21.371,21.37c-11.798,0 -21.36,-9.567 -21.36,-21.37m-29.962,-92.328c22.791,0 41.264,18.475 41.264,41.265c0,22.787 -18.473,41.262 -41.264,41.262s-41.268,-18.475 -41.268,-41.262c0,-22.79 18.477,-41.265 41.268,-41.265m144.502,-95.11c0.087,0 0.186,0 0.327,0c0,0 -0.17,0 -0.327,0" fill="#231F20"/>
  <path id="svg_2" d="m243.089,347.017l-5.615,0c-3.778,0 -5.667,1.39 -5.667,4.17l0,0.429c0,2.781 1.836,4.171 5.507,4.171c3.851,0 5.775,-1.872 5.775,-5.615l0,-3.155zm4.76,12.406c-1.104,0 -2.032,-0.374 -2.781,-1.123c-0.428,-0.321 -0.783,-0.855 -1.069,-1.604c-1.676,1.818 -4.171,2.728 -7.487,2.728c-3.172,0 -5.561,-0.749 -7.165,-2.246c-1.462,-1.391 -2.192,-3.263 -2.192,-5.615l0,-0.428c0,-2.353 0.783,-4.207 2.353,-5.561c1.783,-1.462 4.279,-2.193 7.487,-2.193l6.096,0l0,-1.283c0,-2.281 -0.356,-3.886 -1.069,-4.812c-0.82,-1.07 -2.299,-1.605 -4.438,-1.605c-1.998,0 -3.816,0.446 -5.455,1.338c-0.393,0.214 -0.768,0.32 -1.123,0.32c-0.57,0 -1.043,-0.204 -1.417,-0.614c-0.375,-0.41 -0.562,-0.884 -0.562,-1.418c0,-0.678 0.32,-1.23 0.963,-1.657c1.996,-1.248 4.617,-1.872 7.86,-1.872c3.637,0 6.238,0.909 7.808,2.728c1.391,1.676 2.085,4.35 2.085,8.021l0,9.948c0,1.676 0.5,2.798 1.498,3.368c0.606,0.393 0.909,0.909 0.909,1.551c-0.002,1.353 -0.768,2.029 -2.301,2.029m-26.015,-0.668c-0.447,0.444 -1.009,0.668 -1.686,0.668c-0.641,0 -1.186,-0.224 -1.631,-0.668c-0.447,-0.445 -0.668,-1.007 -0.668,-1.685l0,-15.08c0,-1.889 -0.341,-3.279 -1.016,-4.172c-0.821,-1.069 -2.176,-1.604 -4.064,-1.604c-3.031,0 -5.188,1.123 -6.471,3.369l0,17.487c0,0.678 -0.234,1.239 -0.695,1.685c-0.464,0.444 -1.017,0.668 -1.658,0.668c-0.641,0 -1.195,-0.232 -1.657,-0.695c-0.464,-0.463 -0.695,-1.017 -0.695,-1.657l0,-18.021c0,-1.675 -0.555,-2.799 -1.658,-3.37c-0.607,-0.32 -0.909,-0.837 -0.909,-1.55c0,-1.354 0.766,-2.033 2.301,-2.033c0.995,0 1.958,0.375 2.887,1.124c0.535,0.534 0.927,1.123 1.177,1.764c1.96,-2.139 4.74,-3.208 8.343,-3.208c5.846,0 8.77,3.262 8.77,9.786l0,15.509c-0.002,0.677 -0.226,1.238 -0.67,1.683m-32.328,-11.738l-5.615,0c-3.778,0 -5.669,1.39 -5.669,4.17l0,0.429c0,2.781 1.837,4.171 5.509,4.171c3.85,0 5.775,-1.872 5.775,-5.615l0,-3.155zm4.759,12.406c-1.104,0 -2.031,-0.374 -2.78,-1.123c-0.428,-0.321 -0.784,-0.855 -1.069,-1.604c-1.676,1.818 -4.171,2.728 -7.487,2.728c-3.173,0 -5.561,-0.749 -7.165,-2.246c-1.463,-1.391 -2.193,-3.263 -2.193,-5.615l0,-0.428c0,-2.353 0.784,-4.207 2.354,-5.561c1.782,-1.462 4.278,-2.193 7.486,-2.193l6.097,0l0,-1.283c0,-2.281 -0.356,-3.886 -1.069,-4.812c-0.82,-1.07 -2.3,-1.605 -4.439,-1.605c-1.996,0 -3.814,0.446 -5.454,1.338c-0.393,0.214 -0.767,0.32 -1.122,0.32c-0.571,0 -1.044,-0.204 -1.418,-0.614c-0.375,-0.41 -0.561,-0.884 -0.561,-1.418c0,-0.678 0.32,-1.23 0.962,-1.657c1.996,-1.248 4.617,-1.872 7.861,-1.872c3.637,0 6.238,0.909 7.808,2.728c1.39,1.676 2.085,4.35 2.085,8.021l0,9.948c0,1.676 0.5,2.798 1.498,3.368c0.606,0.393 0.909,0.909 0.909,1.551c-0.003,1.353 -0.771,2.029 -2.303,2.029m-28.394,-17.006c0,-4.526 -1.945,-6.791 -5.83,-6.791c-3.993,0 -5.989,2.265 -5.989,6.791l0,0.909l11.819,0l0,-0.909zm4.546,2.782c0,1.213 -0.591,1.818 -1.767,1.818l-14.599,0l0,1.444c0,4.635 2.013,6.951 6.044,6.951c2.565,0 4.793,-0.498 6.685,-1.498c0.247,-0.142 0.515,-0.213 0.802,-0.213c0.534,0 0.979,0.213 1.334,0.642c0.356,0.428 0.537,0.909 0.537,1.443c0,0.749 -0.357,1.319 -1.069,1.712c-2.427,1.282 -5.243,1.925 -8.45,1.925c-3.602,0 -6.312,-1.123 -8.129,-3.37c-1.604,-1.959 -2.405,-4.615 -2.405,-7.967l0,-4.974c0,-3.351 0.819,-6.007 2.46,-7.968c1.854,-2.246 4.545,-3.369 8.074,-3.369c3.672,0 6.397,1.123 8.183,3.369c1.531,1.89 2.301,4.511 2.301,7.861l0,2.194l-0.001,0zm-30.43,-2.888c0,-4.313 -1.961,-6.472 -5.883,-6.472c-1.889,0 -3.688,0.749 -5.4,2.247l0,14.812c1.605,1.642 3.458,2.46 5.562,2.46c3.813,0 5.721,-2.406 5.721,-7.22l0,-5.827zm-4.919,17.112c-2.426,0 -4.545,-0.695 -6.364,-2.085l0,9.197c0,0.678 -0.232,1.238 -0.695,1.685c-0.465,0.445 -1.016,0.669 -1.658,0.669s-1.186,-0.224 -1.631,-0.669c-0.446,-0.446 -0.668,-1.007 -0.668,-1.685l0,-27.809c0,-1.71 -0.5,-2.834 -1.498,-3.368c-0.606,-0.321 -0.909,-0.838 -0.909,-1.551c0,-1.354 0.767,-2.032 2.3,-2.032c1.032,0 1.977,0.374 2.834,1.123c0.356,0.321 0.696,0.732 1.016,1.23c2.174,-1.568 4.508,-2.354 7.005,-2.354c6.594,0 9.894,3.601 9.894,10.802l0,4.866c0,7.988 -3.209,11.981 -9.626,11.981m-21.923,-16.577c0,-4.492 -2.033,-6.738 -6.097,-6.738c-4.029,0 -6.042,2.246 -6.042,6.738l0,5.507c0,4.529 2.013,6.793 6.042,6.793c4.064,0 6.097,-2.264 6.097,-6.793l0,-5.507zm2.19,13.316c-1.854,2.176 -4.617,3.262 -8.288,3.262c-3.636,0 -6.382,-1.086 -8.236,-3.262c-1.676,-1.961 -2.514,-4.563 -2.514,-7.809l0,-5.507c0,-3.244 0.838,-5.847 2.514,-7.809c1.854,-2.173 4.6,-3.262 8.236,-3.262c3.671,0 6.434,1.089 8.288,3.262c1.676,1.962 2.514,4.564 2.514,7.809l0,5.507c0,3.245 -0.838,5.848 -2.514,7.809m-22.46,-19.574c-0.285,-0.035 -0.589,-0.079 -0.909,-0.134c-0.321,-0.054 -0.634,-0.096 -0.936,-0.133c-0.304,-0.036 -0.562,-0.054 -0.776,-0.054c-3.281,0 -5.258,1.623 -5.936,4.866l0,15.937c0,0.678 -0.232,1.239 -0.695,1.685c-0.463,0.444 -1.016,0.668 -1.658,0.668c-0.641,0 -1.194,-0.232 -1.657,-0.695s-0.696,-1.017 -0.696,-1.657l0,-18.021c0,-1.675 -0.552,-2.799 -1.657,-3.37c-0.606,-0.32 -0.909,-0.837 -0.909,-1.55c0,-1.354 0.767,-2.033 2.3,-2.033c0.392,0 0.641,0.019 0.748,0.054c1.747,0.465 2.942,1.569 3.583,3.316c1.747,-2.461 4.206,-3.69 7.379,-3.69c1.462,0 2.656,0.214 3.583,0.643c0.749,0.392 1.123,1.016 1.123,1.871c0,0.642 -0.214,1.194 -0.642,1.657c-0.428,0.465 -0.944,0.695 -1.55,0.695c-0.178,-0.001 -0.41,-0.018 -0.695,-0.055m-21.017,22.835c-1.034,0 -1.997,-0.374 -2.888,-1.123c-0.5,-0.429 -0.927,-1.087 -1.284,-1.979c-1.96,2.069 -4.724,3.102 -8.289,3.102c-5.811,0 -8.716,-3.244 -8.716,-9.732l0,-15.562c0,-0.642 0.223,-1.194 0.668,-1.658c0.446,-0.463 1.008,-0.695 1.685,-0.695c0.642,0 1.185,0.232 1.631,0.695c0.446,0.464 0.668,1.017 0.668,1.658l0,15.133c0,1.891 0.339,3.28 1.016,4.172c0.82,1.034 2.174,1.55 4.064,1.55c3.102,0 5.259,-1.192 6.471,-3.582l0,-17.272c0,-0.642 0.232,-1.194 0.695,-1.658c0.463,-0.463 1.016,-0.695 1.658,-0.695c0.642,0 1.195,0.232 1.658,0.695c0.463,0.464 0.695,1.017 0.695,1.658l0,18.343c0,1.676 0.553,2.798 1.658,3.368c0.606,0.321 0.909,0.839 0.909,1.551c0.001,1.355 -0.765,2.031 -2.299,2.031m-30.962,-17.006c0,-4.526 -1.943,-6.791 -5.829,-6.791c-3.994,0 -5.989,2.265 -5.989,6.791l0,0.909l11.817,0l0,-0.909l0.001,0zm4.546,2.782c0,1.213 -0.588,1.818 -1.765,1.818l-14.599,0l0,1.444c0,4.635 2.013,6.951 6.042,6.951c2.567,0 4.795,-0.498 6.684,-1.498c0.25,-0.142 0.517,-0.213 0.803,-0.213c0.535,0 0.979,0.213 1.337,0.642c0.356,0.428 0.535,0.909 0.535,1.443c0,0.749 -0.357,1.319 -1.069,1.712c-2.425,1.282 -5.241,1.925 -8.45,1.925c-3.601,0 -6.31,-1.123 -8.128,-3.37c-1.604,-1.959 -2.406,-4.615 -2.406,-7.967l0,-4.974c0,-3.351 0.819,-6.007 2.46,-7.968c1.853,-2.246 4.545,-3.369 8.075,-3.369c3.672,0 6.399,1.123 8.182,3.369c1.533,1.89 2.299,4.511 2.299,7.861l0,2.194z" fill="#231F20"/>
 </g>
</svg>