<?xml version="1.0" encoding="utf-8"?>
<!-- Generator: Adobe Illustrator 21.1.0, SVG Export Plug-In . SVG Version: 6.00 Build 0)  -->
<svg version="1.1" id="Layer_1" xmlns="http://www.w3.org/2000/svg" xmlns:xlink="http://www.w3.org/1999/xlink" x="0px" y="0px"
	 viewBox="0 0 480.9 117.551" style="enable-background:new 0 0 480.9 117.551;" xml:space="preserve">
<style type="text/css">
	.st0{fill:#FFFFFF;}
	.st1{fill:#FFE121;}
</style>
<title>SB_AB_Logo_H_clr_r</title>
<path class="st0" d="M272.42,114.36h1.61l4.64-12.93h-2V98.6h10.52v2.83h-2l4.64,12.93h1.59v2.86h-7.16v-2.83h2.16l-1-3.05h-7
	l-1,3.05h2.26v2.83h-7.26V114.36z M284.42,108.67l-2.6-7.33l-2.6,7.33H284.42z"/>
<path class="st0" d="M294.68,110.43v-9h-2v-2.86h7.47v2.86h-2.24v8.8c0,2.86,1.44,4.39,3.82,4.39s3.85-1.39,3.85-4.27v-8.91h-2.24
	v-2.86h7.38v2.86h-2v8.91c0,4.86-2.86,7.18-7,7.18S294.68,115.24,294.68,110.43z"/>
<path class="st0" d="M313.61,114.36h2.12v-12.9h-2.12V98.6h7c6.73,0,10.72,3.51,10.72,9.14s-3.76,9.47-11.06,9.47h-6.7
	L313.61,114.36z M320.77,114.36c4.81,0,7.3-2.6,7.3-6.59s-2.88-6.31-7.53-6.31h-1.61v12.9H320.77z"/>
<path class="st0" d="M334.22,114.36h2.26v-12.9h-2.26V98.6h7.72v2.86h-2.26v12.9h2.26v2.86h-7.72V114.36z"/>
<path class="st0" d="M344.75,107.91c0.05-5.274,4.366-9.509,9.64-9.459c5.274,0.05,9.509,4.366,9.459,9.64
	c-0.05,5.27-4.359,9.503-9.629,9.459c-5.158,0.074-9.399-4.046-9.474-9.204C344.744,108.201,344.745,108.055,344.75,107.91z
	 M360.53,107.91c0-3.88-2.63-6.68-6.22-6.68s-6.25,2.77-6.25,6.68s2.63,6.67,6.25,6.67s6.23-2.8,6.23-6.67H360.53z"/>
<path class="st0" d="M366.8,114.36h2.12v-12.9h-2.12V98.6h7.44c4.55,0,6.79,2.09,6.79,4.89c0.019,1.948-1.286,3.662-3.17,4.16
	c2.32,0.68,3.7,2,3.7,4.36c0,3.08-2.49,5.2-7,5.2h-7.75L366.8,114.36z M374.27,106.5c2.23,0,3.48-1,3.48-2.63s-1.3-2.46-3.57-2.46
	h-2.09v5.09L374.27,106.5L374.27,106.5z M374.61,114.42c2.21,0,3.68-0.9,3.68-2.69s-1.36-2.69-3.76-2.69h-2.43v5.37L374.61,114.42z"
	/>
<path class="st0" d="M384.6,114.36h2.12v-12.9h-2.12V98.6h7.82v2.86h-2.5v12.93h5.12v-2.61h3.08v5.46H384.6V114.36z"/>
<path class="st0" d="M400.97,107.91c0.05-5.274,4.366-9.509,9.64-9.459c5.274,0.05,9.509,4.366,9.459,9.64
	c-0.05,5.27-4.359,9.503-9.629,9.459c-5.158,0.074-9.399-4.046-9.474-9.204C400.964,108.201,400.965,108.055,400.97,107.91z
	 M416.75,107.91c0-3.88-2.63-6.68-6.22-6.68s-6.25,2.77-6.25,6.68s2.63,6.67,6.25,6.67s6.23-2.8,6.23-6.67H416.75z"/>
<path class="st0" d="M423.42,107.91c-0.068-5.263,4.143-9.585,9.406-9.653c0.128-0.002,0.256-0.001,0.384,0.003
	c4.33,0,7.21,2.26,7.21,4.5c0.106,1.155-0.744,2.177-1.899,2.283c-0.034,0.003-0.067,0.005-0.101,0.007
	c-1.101,0.083-2.062-0.743-2.144-1.844c-0.004-0.052-0.006-0.104-0.006-0.156c-0.009-0.344,0.06-0.686,0.2-1
	c-0.983-0.632-2.144-0.93-3.31-0.85c-3.685,0.176-6.53,3.306-6.354,6.991c0.167,3.492,2.999,6.265,6.494,6.359
	c2.054-0.011,4.004-0.908,5.35-2.46l2.12,2.21c-1.921,2.083-4.636,3.254-7.47,3.22C427.48,117.56,423.42,113.71,423.42,107.91z"/>
<path class="st0" d="M443.85,114.36h2.12v-12.9h-2.12V98.6h7.64v2.8h-2.32v6.31l6.25-6.31h-2.12v-2.8h8.2v2.86h-2l-5.2,5.12
	l4.75,7.78h2.46v2.86h-4.47l-5.18-8.44l-2.69,2.63v3h2.32v2.86h-7.64V114.36z"/>
<path class="st0" d="M464.33,113.23c-0.116-1.098,0.68-2.083,1.779-2.199c0.073-0.008,0.147-0.011,0.221-0.011
	c1.057-0.034,1.946,0.784,2,1.84c0.01,0.391-0.075,0.78-0.25,1.13c0.879,0.552,1.903,0.827,2.94,0.79c2,0,3.34-0.9,3.34-2.52
	s-1.56-2.26-3.42-2.91c-3.45-1.24-5.88-2.35-5.88-5.8c0-3,2.41-5.29,6.17-5.29c3.48,0,6.17,1.78,6.17,4
	c0.116,1.032-0.626,1.962-1.658,2.078c-0.077,0.009-0.154,0.013-0.232,0.012c-1.065,0.039-1.96-0.793-1.999-1.858
	c0-0.011-0.001-0.021-0.001-0.032c-0.014-0.306,0.055-0.61,0.2-0.88c-0.753-0.408-1.604-0.602-2.46-0.56
	c-1.84,0-2.91,0.93-2.91,2.29c0,1.53,1.55,2.21,3.42,2.88c3.34,1.19,5.85,2.35,5.85,5.8s-2.74,5.54-6.56,5.54
	S464.33,115.49,464.33,113.23z"/>
<circle class="st1" cx="54" cy="54" r="54"/>
<path d="M51.57,25.7v36.38c-10.043-0.236-17.994-8.568-17.758-18.612c0.228-9.712,8.047-17.531,17.758-17.758
	C51.57,25.71,51.57,25.7,51.57,25.7z"/>
<path d="M56.42,82.3V45.93c10.043,0.236,17.994,8.568,17.758,18.612C73.951,74.253,66.132,82.072,56.42,82.3z"/>
<circle cx="65" cy="34.27" r="8.57"/>
<circle cx="43" cy="73.73" r="8.57"/>
<path class="st0" d="M147.36,66.17c0-3,1.81-5,4.47-5c2.449-0.125,4.535,1.76,4.66,4.209v0.001c0.023,0.898-0.176,1.788-0.58,2.59
	c2.012,1.263,4.356,1.894,6.73,1.81c4.66,0,7.63-2.07,7.63-5.76c0-3.49-3.56-5.18-7.83-6.67c-7.89-2.85-13.46-5.37-13.46-13.26
	c0-6.79,5.5-12.1,14.11-12.1c8,0,14.11,4.08,14.11,9.19c0,3-1.88,4.79-4.34,4.79c-2.432,0.138-4.515-1.721-4.653-4.152
	c-0.003-0.059-0.006-0.118-0.007-0.178c-0.035-0.695,0.121-1.387,0.45-2c-1.723-0.937-3.671-1.383-5.63-1.29
	c-4.21,0-6.66,2.14-6.66,5.24c0,3.49,3.56,5,7.83,6.6c7.64,2.72,13.39,5.37,13.39,13.27c0,8.09-6.28,12.68-15,12.68
	C154.15,76.07,147.36,71.34,147.36,66.17z"/>
<path class="st0" d="M186.9,71.92c-0.706-1.378-1.05-2.913-1-4.46V52.9h-5.48v-6h5.5v-6l7-3v9h8.61v6h-8.61v13.2
	c-0.042,0.718,0.113,1.434,0.45,2.07c0.668,0.978,1.824,1.503,3,1.36c1.939-0.112,3.834-0.62,5.57-1.49l-0.58,6.08
	c-2.1,1.085-4.426,1.661-6.79,1.68C191.11,75.78,188.32,74.64,186.9,71.92z"/>
<path class="st0" d="M205.21,61.12c0-7.77,5.82-14.69,15.08-14.69c9.26,0,15.08,6.79,15.08,14.69s-5.83,14.66-15.08,14.66
	S205.21,69.01,205.21,61.12z M228.12,61.12c0-5.18-3.24-8.8-7.83-8.8s-7.83,3.62-7.83,8.8s3.24,8.8,7.83,8.8
	C224.88,69.92,228.12,66.3,228.12,61.12z"/>
<path class="st0" d="M264.1,51.09c0.045,2.375-1.836,4.34-4.21,4.4c-1.759,0.059-3.385-0.931-4.14-2.52
	c-2.431,1.101-4.416,2.994-5.63,5.37v11.13h4.92v5.82h-16.18v-5.82h4.21V52.9h-4.21v-6h11v6.41c2.39-3.82,5.37-6.92,9-6.92
	S264.1,48.57,264.1,51.09z"/>
<path class="st0" d="M273.99,88.17c-3.75,0-6.08-2.2-6.08-4.47c-0.146-1.85,1.236-3.468,3.086-3.613
	c0.141-0.011,0.283-0.013,0.424-0.007c1.388-0.027,2.639,0.834,3.11,2.14c0.924-0.283,1.722-0.877,2.26-1.68
	c0.5-0.69,0.932-1.427,1.29-2.2l2.14-4.47l-10.1-21h-3.49v-6h14.62v5.63h-4.14l6.53,14.95l6.6-14.95h-4.4v-5.63h14.58v6h-3.43
	l-13.26,28.15c-0.588,1.23-1.327,2.383-2.2,3.43C279.701,86.758,276.934,88.123,273.99,88.17z"/>
<path class="st0" d="M311.14,72.57l-1.55,2.85h-4.79V33.88h-4.27v-6h11.32v22.13c2.178-2.288,5.191-3.594,8.35-3.62
	c7.51,0,13.14,6,13.14,14.56c0,8.22-6,14.82-13.59,14.82C316.585,75.793,313.522,74.655,311.14,72.57z M326.09,61.05
	c0-5.44-3.37-8.54-7.51-8.54c-2.521,0.076-4.922,1.092-6.73,2.85v12.17c1.96,1.416,4.312,2.185,6.73,2.2
	c3.95-0.01,7.5-3.05,7.5-8.68L326.09,61.05z"/>
<path class="st0" d="M336.3,69.47h4.4V33.88h-4.4v-6h11.45v41.54h4.21v5.82H336.3V69.47z"/>
<path class="st0" d="M354.9,61.12c0-7.77,5.82-14.69,15.08-14.69s15.08,6.79,15.08,14.69s-5.83,14.66-15.09,14.66
	S354.9,69.01,354.9,61.12z M377.81,61.12c0-5.18-3.24-8.8-7.83-8.8s-7.83,3.62-7.83,8.8s3.24,8.8,7.83,8.8s7.82-3.62,7.82-8.8
	H377.81z"/>
<path class="st0" d="M389.14,60.86c0.016-7.935,6.425-14.375,14.36-14.43c7.77,0,12.88,5,12.88,9.51
	c0.183,2.456-1.661,4.596-4.117,4.778c-0.137,0.01-0.275,0.014-0.413,0.012c-2.349-0.022-4.248-1.921-4.27-4.27
	c0.027-0.876,0.347-1.718,0.91-2.39c-1.308-1.34-3.131-2.047-5-1.94c-3.24,0-7.25,2.65-7.25,8.87c0,5.44,4.14,8.86,9.19,8.86
	c3.43,0,6.41-1,10.09-3l-0.58,6.34c-3.067,1.805-6.584,2.7-10.14,2.58C395.87,75.78,389.14,69.98,389.14,60.86z"/>
<path class="st0" d="M420,69.47h4.21V33.88H420v-6h11.26v31.77l8.28-7.12h-3.95V46.9h16.76v6h-5.24l-6.6,5.56l7.18,10.87h4.66v6
	h-8.86l-8.15-12.75l-4.08,3.43v3.62h3.56v5.69H420V69.47z"/>
<path class="st0" d="M476.57,57.04c-2.26,0-3.82-1.36-3.82-3.49c-0.024-0.414,0.019-0.83,0.13-1.23c-1.28-0.475-2.635-0.716-4-0.71
	c-3.17,0-4.72,1.42-4.72,2.91s1.62,2.46,6,3.62c6.79,1.81,10.74,3.49,10.74,8.61c0,6-5.57,9.12-12,9.12c-4.33,0-9-1.55-10.87-3.43
	c-1.068-0.979-1.659-2.372-1.62-3.82c-0.05-2.059,1.579-3.769,3.639-3.819c0.037-0.001,0.074-0.001,0.111-0.001
	c2.014-0.095,3.723,1.461,3.817,3.474c0.004,0.092,0.005,0.184,0.003,0.276c-0.011,0.39-0.055,0.778-0.13,1.16
	c1.633,0.615,3.365,0.924,5.11,0.91c2.85,0,5.18-1,5.18-3c0-1.42-1.23-2.26-5.56-3.43c-7.83-2.07-11.13-3.95-11.13-8.8
	c0-4.4,3.62-9,11.58-9c3.43,0,7.57,1.29,9.51,3.24c0.99,0.944,1.55,2.252,1.55,3.62c0.166,1.92-1.256,3.611-3.177,3.777
	C476.799,57.037,476.685,57.041,476.57,57.04z"/>
</svg>
