<svg width="100" height="73" xmlns="http://www.w3.org/2000/svg">
 <!-- Created with Method Draw - http://github.com/duopixel/Method-Draw/ -->

 <g>
  <title>background</title>
  <rect fill="#fff" id="canvas_background" height="75" width="102" y="-1" x="-1"/>
  <g display="none" overflow="visible" y="0" x="0" height="100%" width="100%" id="canvasGrid">
   <rect fill="url(#gridpattern)" stroke-width="0" y="0" x="0" height="100%" width="100%"/>
  </g>
 </g>
 <g>
  <title>Layer 1</title>
  <style transform="matrix(0.12253368966912959,0,0,0.12253368966912959,0,0) " type="text/css">.st0{fill:#FF0000;}
	.st1{fill:#FFFFFF;}
	.st2{fill:#282828;}</style>
  <g stroke="null" id="svg_17">
   <g stroke="null" transform="matrix(0.7655783576628169,0,0,0.7655783576628169,-1399.3913566357223,-1022.2508450377791) " id="svg_5">
    <path stroke="null" id="svg_6" d="m1950.258704,1352.213315c-1.4,-5.2 -5.5,-9.3 -10.7,-10.7c-9.5,-2.6 -47.5,-2.6 -47.5,-2.6s-38,0 -47.5,2.5c-5.1,1.4 -9.3,5.6 -10.7,10.8c-2.5,9.5 -2.5,29.2 -2.5,29.2s0,19.8 2.5,29.2c1.4,5.2 5.5,9.3 10.7,10.7c9.6,2.6 47.5,2.6 47.5,2.6s38,0 47.5,-2.5c5.2,-1.4 9.3,-5.5 10.7,-10.7c2.5,-9.5 2.5,-29.2 2.5,-29.2s0.1,-19.8 -2.5,-29.3z" class="st0"/>
    <polygon stroke="null" id="svg_7" points="1879.9588012695312,1399.613265991211 1911.5586547851562,1381.413314819336 1879.9588012695312,1363.213363647461 " class="st1"/>
   </g>
   <g stroke="null" transform="matrix(0.7655783576628169,0,0,0.7655783576628169,-1399.3913566357223,-1022.2508450377791) " id="svg_8">
    <g stroke="null" id="svg_9">
     <path stroke="null" id="svg_10" d="m2007.658704,1416.313315c-2.4,-1.6 -4.1,-4.1 -5.1,-7.6c-1,-3.4 -1.5,-8 -1.5,-13.6l0,-7.7c0,-5.7 0.6,-10.3 1.7,-13.8c1.2,-3.5 3,-6 5.4,-7.6c2.5,-1.6 5.7,-2.4 9.7,-2.4c3.9,0 7.1,0.8 9.5,2.4c2.4,1.6 4.1,4.2 5.2,7.6c1.1,3.4 1.7,8 1.7,13.8l0,7.7c0,5.7 -0.5,10.2 -1.6,13.7c-1.1,3.4 -2.8,6 -5.2,7.6c-2.4,1.6 -5.7,2.4 -9.8,2.4c-4.2,-0.1 -7.6,-0.9 -10,-2.5zm13.5,-8.4c0.7,-1.7 1,-4.6 1,-8.5l0,-16.6c0,-3.8 -0.3,-6.6 -1,-8.4c-0.7,-1.8 -1.8,-2.6 -3.5,-2.6c-1.6,0 -2.8,0.9 -3.4,2.6c-0.7,1.8 -1,4.6 -1,8.4l0,16.6c0,3.9 0.3,6.8 1,8.5c0.6,1.7 1.8,2.6 3.5,2.6c1.6,0 2.7,-0.8 3.4,-2.6z" class="st2"/>
     <path stroke="null" id="svg_11" d="m2192.258704,1395.213315l0,2.7c0,3.4 0.1,6 0.3,7.7c0.2,1.7 0.6,3 1.3,3.7c0.6,0.8 1.6,1.2 3,1.2c1.8,0 3,-0.7 3.7,-2.1c0.7,-1.4 1,-3.7 1.1,-7l10.3,0.6c0.1,0.5 0.1,1.1 0.1,1.9c0,4.9 -1.3,8.6 -4,11s-6.5,3.6 -11.4,3.6c-5.9,0 -10,-1.9 -12.4,-5.6c-2.4,-3.7 -3.6,-9.4 -3.6,-17.2l0,-9.3c0,-8 1.2,-13.8 3.7,-17.5c2.5,-3.7 6.7,-5.5 12.6,-5.5c4.1,0 7.3,0.8 9.5,2.3c2.2,1.5 3.7,3.9 4.6,7c0.9,3.2 1.3,7.6 1.3,13.2l0,9.1l-20.1,0l0,0.2zm1.5,-22.4c-0.6,0.8 -1,2 -1.2,3.7c-0.2,1.7 -0.3,4.3 -0.3,7.8l0,3.8l8.8,0l0,-3.8c0,-3.4 -0.1,-6 -0.3,-7.8c-0.2,-1.8 -0.7,-3 -1.3,-3.7c-0.6,-0.7 -1.6,-1.1 -2.8,-1.1c-1.4,-0.1 -2.3,0.3 -2.9,1.1z" class="st2"/>
     <path stroke="null" id="svg_12" d="m1978.458704,1394.213315l-13.6,-49.3l11.9,0l4.8,22.3c1.2,5.5 2.1,10.2 2.7,14.1l0.3,0c0.4,-2.8 1.3,-7.4 2.7,-14l5,-22.4l11.9,0l-13.8,49.3l0,23.6l-11.8,0l0,-23.6l-0.1,0z" class="st2"/>
     <path stroke="null" id="svg_13" d="m2072.958704,1364.613315l0,53.3l-9.4,0l-1,-6.5l-0.3,0c-2.5,4.9 -6.4,7.4 -11.5,7.4c-3.5,0 -6.1,-1.2 -7.8,-3.5c-1.7,-2.3 -2.5,-5.9 -2.5,-10.9l0,-39.8l12,0l0,39.1c0,2.4 0.3,4.1 0.8,5.1c0.5,1 1.4,1.5 2.6,1.5c1,0 2,-0.3 3,-1c1,-0.6 1.7,-1.4 2.1,-2.4l0,-42.3l12,0z" class="st2"/>
     <path stroke="null" id="svg_14" d="m2134.458704,1364.613315l0,53.3l-9.4,0l-1,-6.5l-0.3,0c-2.5,4.9 -6.4,7.4 -11.5,7.4c-3.5,0 -6.1,-1.2 -7.8,-3.5c-1.7,-2.3 -2.5,-5.9 -2.5,-10.9l0,-39.8l12,0l0,39.1c0,2.4 0.3,4.1 0.8,5.1c0.5,1 1.4,1.5 2.6,1.5c1,0 2,-0.3 3,-1c1,-0.6 1.7,-1.4 2.1,-2.4l0,-42.3l12,0z" class="st2"/>
     <path stroke="null" id="svg_15" d="m2105.558704,1354.613315l-11.9,0l0,63.2l-11.7,0l0,-63.2l-11.9,0l0,-9.7l35.5,0l0,9.7z" class="st2"/>
     <path stroke="null" id="svg_16" d="m2174.158704,1373.113315c-0.7,-3.4 -1.9,-5.8 -3.5,-7.3c-1.6,-1.5 -3.9,-2.3 -6.7,-2.3c-2.2,0 -4.3,0.6 -6.2,1.9c-1.9,1.2 -3.4,2.9 -4.4,4.9l-0.1,0l0,-28.1l-11.6,0l0,75.6l9.9,0l1.2,-5l0.3,0c0.9,1.8 2.3,3.2 4.2,4.3c1.9,1 3.9,1.6 6.2,1.6c4.1,0 7,-1.9 8.9,-5.6c1.9,-3.7 2.9,-9.6 2.9,-17.5l0,-8.4c-0.1,-6.1 -0.4,-10.8 -1.1,-14.1zm-11,21.7c0,3.9 -0.2,6.9 -0.5,9.1c-0.3,2.2 -0.9,3.8 -1.6,4.7c-0.8,0.9 -1.8,1.4 -3,1.4c-1,0 -1.9,-0.2 -2.7,-0.7c-0.8,-0.5 -1.5,-1.2 -2,-2.1l0,-30.2c0.4,-1.4 1.1,-2.6 2.1,-3.6c1,-0.9 2.1,-1.4 3.2,-1.4c1.2,0 2.2,0.5 2.8,1.4c0.7,1 1.1,2.6 1.4,4.8c0.3,2.3 0.4,5.5 0.4,9.6l0,7l-0.1,0z" class="st2"/>
    </g>
   </g>
  </g>
 </g>
</svg>